<svg width="149" height="58" viewBox="0 0 149 58" fill="none" xmlns="http://www.w3.org/2000/svg">
<g opacity="0.7">
<path d="M35.2019 21.8101H16.434V1.2572H0.452637V56.9314H16.434V36.0653H35.2019V56.9314H51.1849V1.2572H35.2019V21.8101Z" fill="black"/>
<path d="M102.875 1.2572H53.9473V15.3581H70.4214V56.9314H86.4044V15.3581H102.875V1.2572Z" fill="black"/>
<path d="M128.226 21.9754C120.423 20.2047 119.034 19.1365 119.034 17.0128C119.034 14.9464 120.941 13.7082 124.142 13.7082C129.618 13.9156 134.903 15.7784 139.299 19.0506L139.617 19.27L147.646 7.919L147.364 7.69487C141.176 2.7291 133.708 0.32251 124.535 0.32251C111.591 0.32251 102.895 7.53909 102.895 18.2845C102.895 30.284 112.831 33.5442 123.898 36.0716C131.518 37.8344 132.859 39.0504 132.859 40.9547C132.859 44.0337 129.167 44.4931 126.967 44.4931C120.535 44.4245 114.325 42.1256 109.399 37.9886L109.108 37.7549L100.159 48.4447L100.434 48.6911C107.672 54.8433 116.921 58.117 126.417 57.8883C140.346 57.8883 149 50.8942 149 39.6195C148.998 28.7215 140.694 24.6856 128.226 21.9754Z" fill="black"/>
</g>
</svg>
