<svg width="151" height="84" viewBox="0 0 151 84" fill="none" xmlns="http://www.w3.org/2000/svg">
<g opacity="0.7">
<path d="M69.6627 6.72126L68.8883 6.94942C68.9136 6.5941 68.8679 6.23729 68.7536 5.89987C68.6394 5.56245 68.459 5.25121 68.2231 4.98436C68.0421 4.80783 67.8255 4.67217 67.5876 4.58652C67.3498 4.50087 67.0964 4.46723 66.8445 4.48787C66.3252 4.48504 65.8232 4.6735 65.434 5.01728C65.0449 5.36106 64.796 5.83609 64.7348 6.35171C64.5452 7.9183 65.4386 8.76184 66.5697 9.82873L66.7481 9.99904C66.8367 10.6483 66.7194 11.309 66.4127 11.8881C66.106 12.4672 65.6253 12.9355 65.0385 13.227C64.5749 13.4786 64.0502 13.5954 63.5238 13.5641C62.9973 13.5329 62.4901 13.3549 62.0595 13.0503C61.8576 12.8567 61.718 12.6073 61.6588 12.3339C61.5995 12.0605 61.6233 11.7756 61.727 11.5158C62.0138 11.461 62.3089 11.4654 62.594 11.5287C62.8791 11.592 63.1483 11.7128 63.3851 11.8838L63.9909 12.324L64.0005 11.5753C63.9878 11.1952 64.054 10.8166 64.195 10.4634C64.3361 10.1102 64.5489 9.79017 64.82 9.52345L65.5173 8.84861L64.5532 8.85825C63.9847 8.79784 63.4429 8.58525 62.985 8.24286L62.2106 7.78493L62.1335 8.36176C62.1303 8.68649 62.0288 9.00264 61.8424 9.26853C61.6559 9.53442 61.3933 9.73758 61.0891 9.85122C60.681 9.9878 60.3966 9.93156 60.2969 9.81266C60.1973 9.69376 60.2294 9.51541 60.3483 9.28565C60.422 9.15752 60.5081 9.03697 60.6054 8.92573C60.8946 8.6392 61.0587 8.24987 61.0618 7.84278C61.0637 7.66161 61.0274 7.48206 60.9551 7.31592C60.8829 7.14977 60.7763 7.00078 60.6424 6.87872C60.4975 6.76133 60.3293 6.67588 60.1491 6.62797C59.9688 6.58007 59.7805 6.57079 59.5964 6.60075C58.8073 6.6741 58.0162 6.48367 57.3469 6.05928L55.5972 5.04702L56.8537 6.63932C57.8533 7.79437 58.3675 9.29134 58.2885 10.8169C58.1406 11.0035 58.041 11.2238 57.9987 11.4581C57.9564 11.6924 57.9726 11.9336 58.0459 12.1601C58.1781 12.4572 58.4034 12.7032 58.6878 12.8609C58.9721 13.0185 59.3001 13.0794 59.6221 13.0342C61.2817 15.788 62.1475 18.9471 62.1238 22.1622L62.1367 22.9334L62.7472 22.4627C66.4097 19.6959 70.8746 18.199 75.4647 18.199C80.0548 18.199 84.5197 19.6959 88.1822 22.4627L88.7944 22.9334L88.8056 22.1622C88.7818 18.9456 89.6488 15.7852 91.3106 13.031C91.6326 13.0762 91.9605 13.0153 92.2449 12.8576C92.5293 12.7 92.7546 12.454 92.8868 12.1569C92.9606 11.9307 92.9771 11.6897 92.9348 11.4555C92.8924 11.2213 92.7926 11.0013 92.6442 10.8153C92.5668 9.28997 93.0808 7.79361 94.079 6.63771L95.3355 5.04702L93.5809 6.0641C92.9114 6.4877 92.1203 6.67755 91.3314 6.60397C91.1474 6.5737 90.9589 6.58282 90.7786 6.63074C90.5983 6.67865 90.4302 6.76427 90.2854 6.88194C90.1521 7.00444 90.0459 7.15351 89.9737 7.31955C89.9015 7.4856 89.8648 7.66492 89.8661 7.84599C89.8711 8.25269 90.0348 8.64133 90.3224 8.92895C90.4197 9.03927 90.5053 9.15934 90.5779 9.28725C90.6968 9.51702 90.7177 9.71465 90.6309 9.81588C90.5441 9.9171 90.2469 9.9894 89.8388 9.85444C89.5343 9.74069 89.2715 9.53729 89.085 9.27108C88.8986 9.00487 88.7972 8.68837 88.7944 8.36337L88.7173 7.78654L87.9444 8.24447C87.4948 8.60382 86.947 8.81889 86.373 8.86146L85.4089 8.85021L86.1063 9.52505C86.3774 9.79212 86.5904 10.1124 86.7317 10.4658C86.873 10.8192 86.9396 11.1981 86.9273 11.5785L86.937 12.3272L87.5427 11.8854C87.7797 11.7149 88.049 11.5945 88.3341 11.5315C88.6192 11.4686 88.9141 11.4643 89.2009 11.519C89.3046 11.7788 89.3283 12.0637 89.2691 12.3371C89.2098 12.6105 89.0703 12.8599 88.8683 13.0535C88.4377 13.3588 87.9302 13.5372 87.4033 13.5684C86.8764 13.5997 86.3514 13.4825 85.8878 13.2302C85.301 12.9386 84.8206 12.4703 84.5142 11.8912C84.2078 11.3121 84.0908 10.6514 84.1798 10.0023L84.3581 9.83194C85.4829 8.76345 86.3826 7.92151 86.193 6.35171C86.1315 5.83623 85.8825 5.36141 85.4934 5.01769C85.1044 4.67398 84.6025 4.48539 84.0834 4.48787C83.8314 4.47003 83.5785 4.50528 83.341 4.59136C83.1035 4.67744 82.8868 4.81242 82.7048 4.98757C82.4686 5.25427 82.288 5.5655 82.1738 5.90295C82.0596 6.24041 82.0139 6.59729 82.0396 6.95263L81.2651 6.72447C79.4382 6.18621 78.8309 5.15467 79.0976 3.04821L79.1651 2.50192L78.6284 2.62242C78.1374 2.72064 77.6755 2.93066 77.2788 3.2362C77.2563 2.66219 77.1009 2.10122 76.8249 1.59741C76.5489 1.09361 76.1597 0.660722 75.6881 0.332795L75.4647 0.172119L75.2414 0.332795C74.77 0.660744 74.3809 1.09339 74.1047 1.59682C73.8284 2.10026 73.6725 2.66082 73.6491 3.2346C73.2532 2.92993 72.7925 2.72046 72.3026 2.62242L71.766 2.50192L71.8351 3.04821C72.097 5.15146 71.4896 6.183 69.6627 6.72126ZM73.347 9.93477C73.51 9.45315 73.8133 9.03125 74.2179 8.72328C74.1739 9.15192 74.0412 9.56671 73.8282 9.94126C73.6152 10.3158 73.3266 10.6419 72.9807 10.8988L73.347 9.93477ZM76.7067 8.72328C77.111 9.03192 77.4146 9.45353 77.5792 9.93477L77.9472 10.8988C77.6009 10.6427 77.3118 10.3173 77.0982 9.94329C76.8846 9.56927 76.7513 9.15487 76.7067 8.72649V8.72328ZM68.8754 7.3013L69.6949 7.46198C70.3659 7.54526 70.9986 7.82047 71.517 8.25455C72.0355 8.68863 72.4176 9.26313 72.6175 9.90907L72.9389 10.9197C72.6989 11.0811 72.4316 11.1976 72.15 11.2636C71.4572 11.365 70.7503 11.2325 70.1412 10.8871C69.5321 10.5417 69.0556 10.003 68.787 9.35634L68.8754 7.3013ZM82.0508 7.3013L82.136 9.35956C81.8675 10.0064 81.391 10.5452 80.782 10.8909C80.1729 11.2366 79.466 11.3694 78.773 11.2684C78.4919 11.201 78.2248 11.0846 77.9841 10.9245L78.3055 9.91389C78.505 9.26775 78.8871 8.69303 79.4056 8.2589C79.9241 7.82476 80.557 7.5497 81.2282 7.4668L82.0508 7.3013Z" fill="black"/>
<path d="M149.409 56.4504H149.313L149.227 56.4954C149.202 56.5099 149.173 56.5211 149.133 56.5388C149.025 56.5893 148.929 56.6602 148.848 56.7477C148.755 56.8441 148.688 56.918 148.278 58.5039C148.101 59.1867 148.04 59.3924 148.037 59.4069C147.856 59.7727 147.582 60.0846 147.243 60.3115C146.892 60.5445 146.477 60.6629 146.056 60.6505C145.813 60.6505 145.45 60.575 145.133 59.9178C144.921 59.4617 144.815 58.9635 144.822 58.4605V46.5849C144.822 46.3728 144.883 46.1607 145.325 46.0338C145.646 45.9422 146.388 45.7301 146.388 45.1854C146.388 45.0039 146.31 44.5733 145.585 44.5058C145.275 44.4769 144.98 44.4624 144.698 44.4624H140.975C140.801 44.462 140.628 44.4953 140.466 44.5604C140.346 44.6 140.241 44.6761 140.165 44.778C140.09 44.8799 140.049 45.0026 140.046 45.1292C140.046 45.7414 140.819 45.9246 141.078 45.9856C141.218 46.0194 141.509 46.0852 141.509 46.7585V59.68C141.509 60.5477 141.163 60.6537 141.052 60.6874C140.385 60.8915 140.048 61.2145 140.048 61.6515C140.048 61.7816 140.098 62.095 140.569 62.2331C140.793 62.2964 141.026 62.3251 141.259 62.3183L143.445 62.2058C143.552 62.2058 144.346 62.224 145.827 62.2605C147.319 62.299 148.373 62.3183 148.983 62.3183C149.515 62.3183 149.769 62.2588 149.915 62.1046C150.061 61.9503 150.121 61.6997 150.121 61.1486V57.453C150.119 56.5468 149.623 56.4504 149.409 56.4504Z" fill="black"/>
<path d="M7.57604 62.5994C8.63728 62.5767 9.67115 62.2584 10.5613 61.6802C11.4515 61.102 12.1627 60.2868 12.6148 59.3264C13.6654 57.4961 14.2063 55.4178 14.1814 53.3075V52.6375C14.1845 51.342 13.9311 50.0587 13.4359 48.8616C12.9505 47.684 12.2223 46.6219 11.2989 45.7445C10.7651 45.256 10.1515 44.8626 9.48487 44.5812C8.83181 44.2917 8.12649 44.1386 7.41215 44.1313C6.33712 44.1579 5.2914 44.4872 4.39521 45.0816C3.49902 45.6759 2.78874 46.5111 2.34605 47.4911C1.31479 49.3367 0.78466 51.4201 0.80838 53.5341C0.799832 55.656 1.41438 57.7338 2.57581 59.5096C3.06228 60.4202 3.78119 61.1858 4.65945 61.7285C5.53771 62.2712 6.544 62.5717 7.57604 62.5994ZM10.812 52.5813C10.8098 53.7746 10.7077 54.9656 10.5068 56.1419C10.3721 57.0691 10.1444 57.9805 9.82711 58.8621C9.60602 59.4225 9.27866 59.9348 8.86305 60.3708C8.70964 60.5801 8.5091 60.7502 8.27768 60.8675C8.04627 60.9847 7.79048 61.0458 7.53105 61.0458C7.27162 61.0458 7.01583 60.9847 6.78442 60.8675C6.553 60.7502 6.35246 60.5801 6.19905 60.3708C5.79747 59.9383 5.48564 59.4304 5.28159 58.8766V58.8621C4.93743 57.9946 4.69637 57.0897 4.56337 56.166C4.375 54.9788 4.28258 53.7784 4.28701 52.5765C4.2552 51.13 4.44927 49.6875 4.86223 48.3009C4.97739 47.7822 5.20004 47.2934 5.51583 46.8661C5.83161 46.4388 6.23349 46.0824 6.69554 45.8201C6.95942 45.7215 7.2398 45.6745 7.52141 45.6819C7.81814 45.6714 8.11417 45.7172 8.39388 45.8168C8.85842 46.0789 9.26259 46.4358 9.58011 46.8643C9.89763 47.2928 10.1214 47.7834 10.2368 48.3041C10.6496 49.6913 10.8437 51.1343 10.812 52.5813Z" fill="black"/>
<path d="M95.4097 60.6874C94.8168 60.8239 94.1371 61.0505 94.1371 61.5968C94.1181 61.7369 94.1479 61.8793 94.2217 61.9999C94.2955 62.1205 94.4086 62.212 94.5421 62.2588C94.7476 62.3116 94.9601 62.3322 95.1719 62.3198C95.264 62.3198 95.7075 62.3006 96.5023 62.262C97.2784 62.225 97.8247 62.2074 98.1187 62.2058L99.6612 62.3198C99.9178 62.3256 100.174 62.303 100.426 62.2524C100.58 62.2253 100.719 62.1442 100.819 62.0238C100.918 61.9034 100.971 61.7514 100.969 61.5952C100.969 61.2272 100.596 61.0264 99.9488 60.8031C99.8138 60.7597 99.4555 60.6424 99.4555 59.7297L99.184 46.6427C99.184 46.437 99.2418 46.1784 99.6997 46C100.299 45.7558 100.698 45.518 100.698 45.1372C100.7 44.9813 100.647 44.8296 100.548 44.7094C100.449 44.5892 100.31 44.5084 100.156 44.4816C99.9138 44.4333 99.6671 44.4112 99.4202 44.4157L97.8247 44.5266H96.9554C96.6293 44.51 96.3058 44.5917 96.0267 44.7612C95.7305 44.9951 95.5267 45.3264 95.4515 45.6963L92.5384 55.12C92.4798 54.9495 92.4363 54.7742 92.4083 54.5962L89.3811 45.1388C89.2205 44.5154 88.3914 44.5154 88.1198 44.5154H85.7354C85.4532 44.5187 85.1728 44.5597 84.9015 44.6375C84.4629 44.766 84.2411 44.9813 84.2411 45.2802C84.2411 45.7815 84.8356 46.0129 85.4173 46.1719C85.9989 46.331 86.0246 46.5768 86.0262 46.6877L85.5442 59.6221C85.5442 60.5267 85.1714 60.6167 85.03 60.652C84.7553 60.7163 83.9214 60.9187 83.9214 61.5357C83.9214 61.9117 84.1512 62.315 84.8115 62.315L87.1156 62.1977L87.9302 62.315C88.8943 62.315 88.9666 61.6723 88.9666 61.4795L88.9361 61.3317C88.9011 61.2147 88.8393 61.1074 88.7556 61.0184C88.672 60.9295 88.5687 60.8612 88.454 60.8191L87.5719 60.6151C87.4675 60.5701 87.347 60.2937 87.347 59.6832L87.5077 49.5606V49.4979L90.5348 59.9097C90.6955 60.4785 90.8561 60.9396 90.975 61.2835C91.0747 61.547 91.2594 62.0387 91.6627 62.0387C92.1335 62.0387 92.4549 61.5052 92.8453 60.08L95.9689 49.4369C95.9769 49.5333 95.9817 49.6313 95.9817 49.7293L96.0894 59.6912C96.0877 60.4319 95.7439 60.6103 95.4097 60.6874Z" fill="black"/>
<path d="M128.736 60.7502C128.206 60.9317 127.718 61.1583 127.718 61.5969C127.718 61.7705 127.795 62.079 128.315 62.222C128.594 62.2948 128.881 62.3273 129.169 62.3184L130.321 62.2075H131.674C131.738 62.2075 132.609 62.2257 134.288 62.2621C135.987 62.3007 137.17 62.32 137.839 62.32C138 62.3361 138.163 62.313 138.314 62.2526C138.465 62.1921 138.599 62.0962 138.705 61.9729C138.849 61.6631 138.907 61.3201 138.873 60.9799V57.4451C138.873 56.5662 138.289 56.4971 138.109 56.4971C137.615 56.4971 137.378 57.09 137.194 57.7359C137.104 58.0685 136.971 58.52 136.794 59.0936C136.72 59.3344 136.598 59.5579 136.436 59.751C136.274 59.9442 136.075 60.103 135.851 60.2183C135.352 60.5005 134.789 60.6479 134.215 60.6457C133.938 60.6638 133.661 60.5966 133.423 60.453C133.184 60.3094 132.996 60.0963 132.882 59.8424C132.626 59.2449 132.512 58.5967 132.548 57.948V53.6451C132.558 53.5496 132.563 53.4536 132.562 53.3575C132.787 53.3123 133.017 53.2939 133.247 53.3029C133.547 53.3042 133.847 53.3305 134.143 53.3816C134.344 53.4052 134.542 53.4554 134.73 53.531C135.017 53.7507 135.209 54.0721 135.266 54.4292C135.341 54.8542 135.505 55.2584 135.748 55.615C135.836 55.7244 135.946 55.8146 136.07 55.8801L136.161 55.9347H136.269C136.4 55.9296 136.526 55.8847 136.63 55.806C136.735 55.7273 136.813 55.6187 136.854 55.4945C136.946 55.2627 136.99 55.0144 136.982 54.765V50.2805C136.975 50.1618 136.95 50.0449 136.908 49.9335C136.872 49.807 136.795 49.696 136.69 49.6179C136.584 49.5397 136.455 49.4987 136.324 49.5013C135.842 49.5013 135.493 49.8805 135.3 50.626C135.122 51.3265 134.979 51.4663 134.963 51.4808C134.781 51.6036 134.571 51.6788 134.352 51.6993C133.95 51.7657 133.542 51.7969 133.134 51.7925C132.936 51.8015 132.738 51.7787 132.548 51.725V46.6991C132.548 46.4436 132.548 45.9102 133.783 45.9102C134.188 45.8735 134.595 45.9318 134.973 46.0805C135.351 46.2292 135.689 46.4641 135.96 46.7666C136.166 47.0871 136.341 47.4259 136.484 47.7788C137.101 49.1992 137.35 49.4402 137.676 49.4402C137.82 49.4478 137.962 49.4062 138.079 49.3224C138.196 49.2386 138.28 49.1175 138.319 48.9791C138.37 48.7835 138.393 48.5818 138.388 48.3798V44.4657H138.001C137.441 44.4657 136.59 44.485 135.448 44.5235C134.323 44.5605 133.475 44.5782 132.93 44.5782L128.973 44.4657C128.754 44.4657 128.597 44.4657 128.503 44.4818C128.387 44.4887 128.273 44.5176 128.168 44.5669C128.075 44.6206 127.994 44.6915 127.928 44.7758C127.828 44.8905 127.771 45.0366 127.768 45.1887C127.761 45.2782 127.773 45.3679 127.803 45.4527C127.832 45.5374 127.878 45.6155 127.938 45.6821C127.998 45.7488 128.07 45.8028 128.152 45.8408C128.233 45.8789 128.321 45.9003 128.41 45.9037C128.665 45.9302 128.913 46.0037 129.141 46.1207C129.224 46.3431 129.254 46.582 129.228 46.818V59.6833C129.23 60.5863 128.867 60.7052 128.736 60.7502Z" fill="black"/>
<path d="M115.358 60.6924C114.838 60.8611 114.308 61.0925 114.308 61.5407C114.303 61.7063 114.354 61.8687 114.452 62.0018C114.551 62.135 114.691 62.2312 114.851 62.275C115.51 62.4259 116.195 62.4303 116.856 62.2879C117.208 62.2381 117.41 62.2108 117.452 62.2075C117.773 62.2075 118.324 62.2349 119.072 62.2895C119.856 62.3473 120.421 62.3747 120.804 62.3747C122.278 62.3685 123.698 61.8161 124.788 60.8241C125.382 60.354 125.862 59.7567 126.194 59.0763C126.526 58.3958 126.702 57.6495 126.707 56.8924C126.725 56.1978 126.589 55.5079 126.309 54.872C126.029 54.2361 125.612 53.6701 125.087 53.2145C124.57 52.7692 123.979 52.4174 123.341 52.175C123.804 51.9294 124.232 51.623 124.613 51.2639C125.077 50.8342 125.428 50.2962 125.633 49.6979C125.839 49.0997 125.893 48.4599 125.791 47.8357C125.689 47.2114 125.434 46.6222 125.049 46.1205C124.664 45.6188 124.16 45.2203 123.583 44.9606C122.361 44.318 120.996 43.9937 119.615 44.0175C119.587 44.0175 119.504 44.0175 117.847 44.1589C117.638 44.1765 117.344 44.1862 116.92 44.1878C116.264 44.2399 115.613 44.3528 114.978 44.5252C114.423 44.7035 114.142 44.9847 114.142 45.3607C114.142 45.7849 114.624 45.9134 115.32 46.0484C115.871 46.156 115.871 46.4035 115.871 46.5304V59.6207C115.876 60.5269 115.5 60.6474 115.358 60.6924ZM121.517 50.7305C121.058 51.1141 120.483 51.3325 119.885 51.3507C119.704 51.346 119.523 51.3282 119.345 51.2977L119.136 51.2687V47.0912C119.117 46.6829 119.21 46.2771 119.406 45.9182C119.485 45.795 119.597 45.697 119.73 45.6358C119.863 45.5746 120.011 45.5527 120.156 45.5728C120.765 45.5727 121.35 45.8088 121.789 46.2316C122.075 46.4955 122.3 46.8198 122.446 47.181C122.592 47.5422 122.656 47.9313 122.634 48.3204C122.658 48.7831 122.569 49.2447 122.374 49.6652C122.18 50.0858 121.885 50.4525 121.517 50.7337V50.7305ZM119.452 60.0898C119.228 59.5556 119.119 58.9803 119.131 58.4011V53.2338C119.521 53.167 119.916 53.1342 120.312 53.1358C121.008 53.231 121.645 53.5807 122.099 54.1175C122.467 54.4453 122.762 54.8469 122.966 55.2961C123.169 55.7453 123.275 56.2323 123.278 56.7253C123.303 57.8433 122.941 58.9356 122.255 59.8183C122.054 60.1308 121.784 60.3934 121.466 60.586C121.149 60.7787 120.791 60.8964 120.421 60.9302C120.163 60.9302 119.777 60.845 119.452 60.0931V60.0898Z" fill="black"/>
<path d="M71.2743 45.9665C71.3016 45.9665 71.3514 45.9665 71.4237 45.9793C71.4942 45.9857 71.5641 45.9981 71.6326 46.0163C72.3379 46.1529 72.7862 46.7184 73.0047 47.7468C73.3373 49.3053 73.6089 49.8356 74.0845 49.8356C74.3159 49.8356 74.8509 49.7327 74.8509 48.7751C74.8509 48.3638 74.8863 47.6664 74.9586 46.704C75.0309 45.7415 75.0662 45.0442 75.0662 44.6313V44.2408C75.0722 44.1527 75.0595 44.0642 75.0288 43.9814C74.9982 43.8985 74.9503 43.8231 74.8883 43.76C74.8264 43.697 74.7518 43.6479 74.6694 43.6158C74.5871 43.5837 74.4989 43.5695 74.4107 43.574C74.2226 43.5544 74.0342 43.6085 73.8852 43.7251C73.6513 43.9294 73.4337 44.1519 73.2345 44.3903C72.9836 44.459 72.7229 44.4856 72.4633 44.469H66.732C66.4917 44.4784 66.2512 44.4557 66.017 44.4015C65.9409 44.379 65.8734 44.3003 65.8145 44.1653C65.7561 43.9948 65.6466 43.8463 65.5008 43.7403C65.355 43.6342 65.1801 43.5756 64.9999 43.5724C64.8778 43.5699 64.7574 43.6012 64.652 43.6627C64.5465 43.7242 64.4601 43.8136 64.4022 43.9211C64.1509 44.4775 64.0127 45.0783 63.9957 45.6885C63.8703 46.6349 63.7514 47.6166 63.6502 48.5807L63.5442 49.0306L63.5329 49.1205C63.5213 49.2127 63.5297 49.3062 63.5577 49.3948C63.5857 49.4833 63.6325 49.5647 63.6949 49.6335C63.7574 49.7022 63.834 49.7565 63.9195 49.7928C64.0049 49.8291 64.0973 49.8464 64.1901 49.8436C64.5114 49.8436 64.7878 49.5592 65.1814 48.7944C65.5663 47.9403 66.0454 47.1319 66.6099 46.3842C66.9095 46.1143 67.3008 45.9689 67.7041 45.9777H67.7972C67.8032 46.0165 67.8059 46.0558 67.8053 46.095V59.648C67.8053 60.4193 67.5096 60.6281 67.2879 60.7181C66.552 61.0186 66.2901 61.1809 66.2901 61.4958C66.2825 61.6414 66.3246 61.7854 66.4095 61.9039C66.4945 62.0225 66.6173 62.1086 66.7577 62.1481C66.9608 62.1999 67.17 62.2237 67.3795 62.2188H71.1104C71.4284 62.2277 71.7458 62.1881 72.0519 62.1015C72.5581 61.9409 72.632 61.6195 72.632 61.4412C72.632 60.8772 71.8897 60.7133 71.5731 60.6378C71.4494 60.6105 71.12 60.5382 71.12 59.6994V46.4244C71.12 46.1191 71.1714 45.9665 71.2743 45.9665Z" fill="black"/>
<path d="M103.05 60.7503C102.522 60.9318 102.032 61.1584 102.032 61.597C102.032 61.7706 102.11 62.0791 102.629 62.2221C102.907 62.3004 103.195 62.3329 103.483 62.3185L104.636 62.2076H105.988C106.052 62.2076 106.923 62.2258 108.602 62.2622C110.3 62.3008 111.483 62.3201 112.153 62.3201C112.314 62.3362 112.476 62.3134 112.626 62.2535C112.776 62.1937 112.91 62.0986 113.016 61.9762C113.163 61.6667 113.223 61.3228 113.189 60.9816V57.4468C113.189 56.7478 112.794 56.4988 112.423 56.4988C111.928 56.4988 111.692 57.0917 111.508 57.7392C111.42 58.0718 111.283 58.5233 111.107 59.0953C111.032 59.336 110.91 59.5595 110.748 59.7526C110.586 59.9457 110.388 60.1046 110.164 60.22C109.664 60.501 109.101 60.6477 108.528 60.6458C108.25 60.6642 107.973 60.597 107.735 60.4534C107.497 60.3098 107.308 60.0965 107.194 59.8424C106.938 59.2478 106.822 58.6026 106.854 57.9561V53.6452C106.854 53.4604 106.878 53.3736 106.865 53.3576C107.09 53.3124 107.319 53.294 107.548 53.3029C107.848 53.3043 108.148 53.3307 108.444 53.3817C108.646 53.4048 108.844 53.4551 109.032 53.5311C109.319 53.7508 109.511 54.0724 109.567 54.4293C109.641 54.8551 109.805 55.2601 110.049 55.6167C110.138 55.7257 110.247 55.8158 110.371 55.8818L110.461 55.9348H110.567C110.698 55.9297 110.824 55.8848 110.928 55.8061C111.033 55.7274 111.111 55.6187 111.152 55.4946C111.244 55.2628 111.287 55.0144 111.279 54.7651V50.2806C111.271 50.1625 111.246 50.046 111.205 49.9352C111.169 49.8088 111.092 49.6978 110.987 49.6194C110.881 49.541 110.753 49.4995 110.621 49.5014C110.139 49.5014 109.791 49.8822 109.598 50.6261C109.418 51.3282 109.277 51.4648 109.259 51.4793C109.077 51.6021 108.867 51.6772 108.648 51.6978C108.246 51.7642 107.838 51.7954 107.43 51.791C107.236 51.7905 107.043 51.7689 106.854 51.7267V46.6976C106.854 46.4421 106.854 45.9087 108.088 45.9087C108.492 45.8719 108.9 45.93 109.279 46.0784C109.657 46.2268 109.996 46.4613 110.268 46.7634C110.472 47.0851 110.646 47.4244 110.789 47.7773C111.407 49.1977 111.656 49.4371 111.981 49.4371C112.124 49.4456 112.265 49.4052 112.382 49.3225C112.499 49.2399 112.584 49.1199 112.623 48.9824C112.678 48.7859 112.703 48.5821 112.696 48.3782V44.4642H112.317C111.756 44.4642 110.905 44.4829 109.762 44.5204C108.637 44.5574 107.79 44.575 107.244 44.575L103.287 44.4642C103.131 44.4615 102.975 44.4668 102.819 44.4802C102.703 44.4867 102.59 44.5157 102.485 44.5654C102.391 44.6174 102.309 44.6886 102.244 44.7743C102.143 44.8881 102.086 45.0338 102.083 45.1856C102.073 45.276 102.082 45.3676 102.109 45.4543C102.137 45.541 102.182 45.6209 102.243 45.6887C102.304 45.7564 102.378 45.8105 102.462 45.8473C102.545 45.8841 102.635 45.9028 102.726 45.9022C102.981 45.9289 103.23 46.0024 103.459 46.1191C103.539 46.3416 103.568 46.5795 103.544 46.8149V59.6802C103.545 60.5864 103.189 60.7053 103.05 60.7503Z" fill="black"/>
<path d="M20.9875 54.0612C21.2651 54.3732 21.4742 54.7399 21.6013 55.1377L24.238 61.4234C24.4372 62.1175 24.8164 62.2814 25.1554 62.2589L25.7981 62.1528C25.8495 62.1528 26.1195 62.1721 26.6127 62.2075C27.1494 62.246 27.5109 62.2637 27.6957 62.2637C28.0315 62.2694 28.3656 62.215 28.6822 62.103C28.8062 62.0518 28.9124 61.9655 28.9881 61.8548C29.0637 61.7441 29.1054 61.6137 29.108 61.4796C29.0998 61.3336 29.0484 61.1933 28.9603 61.0765C28.8722 60.9598 28.7513 60.8719 28.6132 60.824C28.2607 60.7437 27.9311 60.5843 27.6491 60.3581C27.3795 60.0461 27.1718 59.6857 27.0369 59.296L24.9096 54.5191C24.7834 54.1481 24.5984 53.7998 24.3617 53.4876C24.2929 53.4027 24.2171 53.3237 24.1351 53.2514C24.6278 53.0302 25.1027 52.7712 25.5555 52.4769C26.0283 52.1923 26.4321 51.8062 26.7377 51.3467C27.0434 50.8871 27.2432 50.3655 27.3229 49.8194C27.3556 49.5281 27.3701 49.2351 27.3663 48.9421C27.3645 48.4078 27.2816 47.8769 27.1205 47.3674C26.9681 46.871 26.7246 46.4073 26.4023 46.0001C25.816 45.3433 25.04 44.8851 24.1817 44.689C23.1764 44.4517 22.1456 44.3394 21.1128 44.3548C20.9521 44.3548 20.3673 44.3741 19.3727 44.4126C18.3781 44.4512 17.7209 44.4673 17.3642 44.4673H16.5544C15.6048 44.4673 15.4056 44.8481 15.4056 45.1662L15.4683 45.4875L15.5197 45.6097C15.645 45.8121 15.9214 45.931 16.5368 46.0756C16.6508 46.1013 16.9192 46.1624 16.9192 46.8565V59.6383C16.9192 60.6023 16.54 60.7373 16.4179 60.7823C15.7045 61.041 15.4056 61.2016 15.4056 61.5326C15.3982 61.6778 15.4403 61.8212 15.5249 61.9394C15.6096 62.0576 15.7318 62.1436 15.8716 62.1834C16.0755 62.2363 16.286 62.2601 16.4966 62.254H21.0935L21.1899 62.2428C21.8182 62.0821 21.913 61.6933 21.913 61.4764C21.913 61.0088 21.5065 60.7517 20.7079 60.7132C20.5665 60.7132 20.2355 60.6891 20.2355 59.7941V53.8764C20.3668 53.8536 20.5014 53.8582 20.6309 53.89C20.7603 53.9218 20.8817 53.9801 20.9875 54.0612ZM23.208 46.8613C23.6116 47.4778 23.8148 48.204 23.7897 48.9405C23.826 49.7884 23.5913 50.6258 23.1197 51.3313C22.8928 51.6309 22.6039 51.8779 22.2728 52.0557C21.9417 52.2334 21.5762 52.3376 21.2012 52.3613H20.9312C20.5215 52.3613 20.3833 52.2745 20.3641 52.2391C20.2479 51.9185 20.2041 51.5761 20.2355 51.2365V46.7569C20.2017 46.477 20.2538 46.1934 20.385 45.9439C20.5412 45.8262 20.7373 45.7743 20.9312 45.7993H21.5274C21.8682 45.8422 22.1955 45.9596 22.4859 46.1432C22.7764 46.3267 23.0229 46.5719 23.208 46.8613Z" fill="black"/>
<path d="M38.8117 60.7501C38.2814 60.9317 37.793 61.1598 37.793 61.5969C37.793 61.7704 37.8701 62.0789 38.3891 62.2219C38.6679 62.2952 38.9558 62.3276 39.2439 62.3183L40.3959 62.2074H41.7472C41.8115 62.2074 42.6829 62.2256 44.3614 62.2621C46.0603 62.3006 47.2445 62.3199 47.9139 62.3199C48.0748 62.3359 48.2371 62.313 48.3873 62.2532C48.5374 62.1933 48.671 62.0983 48.7768 61.9761C48.9223 61.666 48.9812 61.3223 48.9471 60.9815V57.4466C48.9471 56.5677 48.3622 56.4986 48.1823 56.4986C47.6906 56.4986 47.4528 57.0915 47.268 57.739C47.1796 58.07 47.0447 58.5231 46.8663 59.0951C46.7921 59.3356 46.6707 59.5588 46.5093 59.7519C46.348 59.945 46.1498 60.1041 45.9264 60.2199C45.4267 60.5014 44.8626 60.6486 44.2891 60.6473C44.0115 60.6657 43.735 60.5986 43.4968 60.4549C43.2586 60.3113 43.0702 60.098 42.9571 59.8439C42.7009 59.2467 42.586 58.5984 42.6213 57.9495V53.645C42.6213 53.4618 42.6454 53.3735 42.6325 53.3574C42.8572 53.3122 43.0864 53.2939 43.3154 53.3028C43.6153 53.3049 43.9146 53.3312 44.2104 53.3815C44.4119 53.4061 44.6095 53.4564 44.7984 53.5309C45.0848 53.7516 45.2771 54.0725 45.3367 54.4291C45.411 54.8542 45.5754 55.2585 45.8187 55.6149C45.9064 55.7245 46.0158 55.8148 46.1401 55.88L46.2333 55.9346H46.3393C46.47 55.9295 46.596 55.8846 46.7005 55.8059C46.8051 55.7273 46.8831 55.6186 46.9242 55.4944C47.0166 55.2627 47.0598 55.0142 47.0511 54.7649V50.2805C47.0452 50.1633 47.0208 50.0478 46.9788 49.9382C46.9434 49.8113 46.867 49.6996 46.7615 49.6205C46.656 49.5415 46.5274 49.4995 46.3955 49.5012C45.9135 49.5012 45.5632 49.8804 45.372 50.6259C45.1905 51.3297 45.0507 51.4646 45.0314 51.4807C44.8499 51.6045 44.6397 51.6798 44.4208 51.6992C44.0183 51.7649 43.6108 51.7961 43.2029 51.7924C43.0059 51.7951 42.8093 51.7724 42.6181 51.7249V46.699C42.6181 46.4435 42.6181 45.9101 43.8537 45.9101C44.258 45.8735 44.6654 45.9317 45.0433 46.0801C45.4212 46.2284 45.7594 46.4629 46.0308 46.7649C46.2363 47.0857 46.4111 47.4252 46.553 47.7787C47.1732 49.1991 47.4223 49.4385 47.7452 49.4385C47.8882 49.4444 48.0291 49.4024 48.1455 49.3192C48.262 49.2359 48.3473 49.1162 48.3879 48.979C48.439 48.7835 48.4622 48.5817 48.457 48.3797V44.4656H48.0714C47.509 44.4656 46.6574 44.4844 45.5167 44.5219C44.3759 44.5593 43.5366 44.5775 42.9989 44.5765L39.0478 44.4656C38.8918 44.463 38.7358 44.4683 38.5803 44.4817C38.4619 44.4879 38.3461 44.5179 38.2397 44.5701C38.15 44.6211 38.0718 44.69 38.0099 44.7725C37.9309 44.8705 37.8802 44.9881 37.863 45.1127C37.8459 45.2373 37.863 45.3643 37.9125 45.4799C37.9621 45.5955 38.0422 45.6955 38.1443 45.769C38.2464 45.8425 38.3665 45.8869 38.4919 45.8972C38.7475 45.9235 38.9959 45.9971 39.2246 46.1141C39.3081 46.3359 39.3384 46.5742 39.313 46.8099V59.6752C39.3081 60.5862 38.9498 60.7035 38.8117 60.7501Z" fill="black"/>
<path d="M59.6148 61.764C59.6872 61.9568 59.8158 62.1235 59.9839 62.2424C60.1521 62.3613 60.3521 62.4269 60.558 62.4308C60.9677 62.4308 61.1284 61.9729 61.1814 61.8203C61.269 61.5873 61.3168 61.3412 61.3228 61.0924V46.9819C61.3142 46.7402 61.3418 46.4987 61.4047 46.2653C61.8086 46.215 62.2031 46.1068 62.576 45.9439C62.7029 45.8601 62.8041 45.7428 62.8682 45.6049C62.9323 45.467 62.9569 45.314 62.9392 45.163C62.9297 45.055 62.892 44.9514 62.8299 44.8626C62.7163 44.7348 62.5731 44.6367 62.413 44.5768C62.2528 44.5168 62.0805 44.4969 61.9108 44.5187H59.0524C58.7854 44.5117 58.5209 44.5713 58.2828 44.6922C58.1618 44.7421 58.0575 44.8254 57.9821 44.9324C57.9067 45.0394 57.8633 45.1656 57.857 45.2964C57.857 45.5374 57.9775 45.9584 58.7761 46.0692C58.91 46.0722 59.0419 46.1036 59.1628 46.1612C59.2838 46.2188 59.3912 46.3015 59.4779 46.4037C59.5646 46.5059 59.6286 46.6252 59.6658 46.754C59.703 46.8827 59.7124 47.0179 59.6935 47.1506L59.8542 55.4607C59.7084 55.2996 59.591 55.1149 59.5071 54.9144L54.5358 45.5181C54.4651 45.3735 54.3977 45.2209 54.327 45.0586C54.2648 44.8646 54.1464 44.6935 53.9867 44.5671C53.8271 44.4406 53.6334 44.3645 53.4304 44.3484H52.0245C51.6003 44.3484 51.242 44.358 50.9463 44.3773C50.6655 44.3707 50.3894 44.4509 50.1558 44.6071L49.9084 44.9557V45.0714C49.9156 45.1928 49.9517 45.3107 50.0137 45.4152C50.0758 45.5198 50.162 45.6079 50.2651 45.6724C50.4245 45.8115 50.6258 45.8935 50.8371 45.9053C51.2693 45.9053 51.4235 46.066 51.4235 46.5271V59.7443C51.4502 60.0133 51.3693 60.2819 51.1986 60.4915C51.0379 60.6329 50.6234 60.5397 50.1928 60.7968C50.0629 60.8588 49.9526 60.9552 49.8738 61.0757C49.7951 61.1961 49.7509 61.3358 49.7461 61.4796C49.7482 61.643 49.8073 61.8005 49.9132 61.9249C50.0191 62.0493 50.1652 62.1328 50.3261 62.1609C50.635 62.2337 50.9521 62.2661 51.2693 62.2573H53.2681C53.6086 62.2673 53.9488 62.2295 54.2788 62.1448C54.817 61.9842 54.8974 61.6628 54.8974 61.4796V61.1454L54.8379 61.0506C54.719 60.8594 54.4667 60.7068 53.5814 60.5381C53.297 60.485 53.0046 60.3292 53.0046 59.574L52.9018 49.3374C53.0002 49.4592 53.0818 49.5938 53.1444 49.7375L59.6148 61.764Z" fill="black"/>
<path d="M35.6742 45.9777C36.341 45.7624 36.7266 45.5647 36.7266 45.1888C36.7266 45.0024 36.6398 44.6698 36.0533 44.5203C35.4228 44.4052 34.7793 44.3782 34.1413 44.44C33.8826 44.4577 33.6416 44.485 33.4247 44.5219L31.262 44.4111C31.0872 44.4115 30.914 44.4441 30.751 44.5075C30.6295 44.5456 30.5232 44.6215 30.4475 44.724C30.3718 44.8265 30.3307 44.9505 30.3301 45.0779C30.3301 45.7206 31.1335 45.9021 31.3905 45.9632C31.6139 46.013 31.8436 46.14 31.8436 46.7039V59.6271C31.8436 60.5911 31.4644 60.7357 31.3359 60.7823C30.653 61.0426 30.3301 61.2017 30.3301 61.5407C30.3305 61.7053 30.3921 61.8638 30.5028 61.9856C30.6136 62.1073 30.7656 62.1836 30.9294 62.1995C31.0936 62.2364 31.2609 62.2579 31.4291 62.2638H35.1921C35.5037 62.2719 35.8151 62.2455 36.1208 62.185C36.6639 62.0581 36.7218 61.6918 36.7218 61.5423C36.7218 60.9109 35.8927 60.7631 35.6179 60.7148C35.4797 60.6891 35.1536 60.6329 35.1536 59.8054V46.585C35.16 46.3681 35.221 46.1239 35.6742 45.9777Z" fill="black"/>
<path d="M95.5574 24.3925C95.0294 24.6615 94.4395 24.7853 93.8479 24.7511C93.2564 24.7169 92.6846 24.5261 92.1912 24.198L91.4135 23.6662L91.5935 24.5917C91.6848 25.1777 91.9375 25.7268 92.3231 26.1774C92.7087 26.628 93.2122 26.9624 93.7771 27.1432C94.2744 27.2615 94.7942 27.2451 95.2831 27.0957C95.7719 26.9463 96.2121 26.6693 96.5584 26.2932C96.9335 27.2159 97.6542 27.9556 98.5668 28.3547C98.558 28.7156 98.4227 29.062 98.1844 29.3332C98.1024 29.4278 98.0023 29.5049 97.8899 29.5601C97.7776 29.6153 97.6554 29.6474 97.5304 29.6546C96.7562 29.5838 96.0055 29.3507 95.3273 28.9706C94.6491 28.5905 94.0585 28.0719 93.5939 27.4485C92.4709 26.2409 91.1145 25.2738 89.6068 24.6057C88.0991 23.9376 86.4715 23.5825 84.8226 23.5618C83.9967 23.6104 83.1896 23.8281 82.4514 24.2015C81.7132 24.5749 81.0595 25.096 80.531 25.7325C80.3323 25.3366 80.0221 25.0074 79.6387 24.7856C79.2553 24.5637 78.8153 24.4589 78.3731 24.484C78.031 24.4907 77.6947 24.5739 77.3889 24.7273C77.0831 24.8808 76.8155 25.1007 76.6056 25.371C76.3877 25.7145 76.2487 26.1021 76.1987 26.5058C76.1487 26.9095 76.1889 27.3193 76.3164 27.7056L76.5655 28.6953L77.0347 27.7907C77.0987 27.6372 77.1933 27.4982 77.3126 27.3822C77.4319 27.2662 77.5735 27.1756 77.7288 27.1159C78.016 27.651 78.1134 28.2677 78.0052 28.8653C77.8969 29.4629 77.5893 30.0062 77.1327 30.4065L76.8611 30.707L77.1825 30.9641C77.648 31.3786 77.9679 31.9317 78.0951 32.5419C76.3534 32.5355 74.6117 32.5355 72.8699 32.5419C72.9972 31.9332 73.3145 31.3807 73.7762 30.9641L74.0895 30.707L73.8179 30.4065C73.361 30.0064 73.0531 29.4632 72.9446 28.8656C72.836 28.268 72.9332 27.6512 73.2202 27.1159C73.3755 27.1753 73.517 27.2656 73.6364 27.3813C73.7557 27.497 73.8502 27.6358 73.9143 27.7891L74.3819 28.6937L74.6309 27.7072C74.7589 27.3211 74.7997 26.9115 74.7502 26.5078C74.7008 26.104 74.5623 25.7163 74.3449 25.3726C74.1343 25.101 73.8654 24.8801 73.5582 24.7261C73.251 24.572 72.9131 24.4888 72.5695 24.4824C72.1273 24.4578 71.6876 24.563 71.3045 24.7851C70.9213 25.0072 70.6115 25.3365 70.4132 25.7325C69.8844 25.0959 69.2305 24.5748 68.492 24.2013C67.7534 23.8279 66.9461 23.6102 66.1199 23.5618C64.4713 23.5831 62.8442 23.9385 61.3369 24.6066C59.8295 25.2746 58.4733 26.2414 57.3503 27.4485C56.8859 28.0721 56.2954 28.5909 55.6171 28.971C54.9388 29.3512 54.188 29.5841 53.4137 29.6546C53.2888 29.6474 53.1665 29.6153 53.0542 29.5601C52.9419 29.5049 52.8418 29.4278 52.7598 29.3332C52.5216 29.0618 52.3858 28.7157 52.3758 28.3547C53.2894 27.9567 54.011 27.2167 54.3858 26.2932C54.733 26.6679 55.1733 26.944 55.6618 27.0933C56.1504 27.2426 56.6697 27.2598 57.1671 27.1432C57.732 26.9626 58.2355 26.6285 58.6214 26.1782C59.0073 25.7279 59.2604 25.1792 59.3523 24.5933L59.5322 23.6662L58.7546 24.1996C58.2599 24.5284 57.6867 24.7196 57.0938 24.7538C56.5009 24.788 55.9095 24.6638 55.3804 24.3941C55.3639 23.8505 55.1473 23.3322 54.7722 22.9384C54.3972 22.5446 53.89 22.3032 53.3478 22.2603L52.2231 22.0996L53.012 22.903C53.4796 23.385 53.4555 23.6373 53.3221 23.8285C52.5984 23.8244 51.8878 24.0211 51.2692 24.3967C50.6505 24.7722 50.1481 25.3119 49.8178 25.9558C49.6105 26.5095 49.5505 27.1076 49.6437 27.6915C49.7369 28.2754 49.9802 28.825 50.3496 29.2866L49.6893 29.0842L49.9463 29.8088C50.1882 30.569 50.6284 31.2509 51.2215 31.7844C51.8145 32.3179 52.5391 32.6836 53.3205 32.844C36.9541 33.318 20.4688 34.3013 3.58496 35.8213L3.62031 36.5926H72.4763L72.7639 37.4843L72.7318 36.5926H78.1947L78.1626 37.4827L78.4502 36.5926H147.3L147.335 35.8213C130.453 34.3029 113.974 33.3196 97.6204 32.8456C98.3978 32.6807 99.1175 32.3128 99.7066 31.7794C100.296 31.246 100.733 30.5661 100.974 29.8088L101.232 29.0858L100.57 29.2866C100.94 28.8253 101.184 28.2755 101.277 27.6915C101.37 27.1074 101.309 26.5093 101.101 25.9558C100.771 25.3117 100.268 24.7718 99.6496 24.3962C99.0309 24.0206 98.3201 23.8241 97.5963 23.8285C97.4646 23.6357 97.4356 23.3818 97.908 22.903L98.6986 22.0996L97.5738 22.2603C97.035 22.3072 96.5321 22.5502 96.1604 22.9432C95.7888 23.3362 95.5742 23.8518 95.5574 24.3925ZM86.333 30.7311C86.0759 30.9946 85.5714 30.9689 84.9463 30.662L83.4038 29.9036L84.4739 31.2501C84.8504 31.7312 85.2646 32.1814 85.7127 32.5966C83.8521 32.5725 81.9915 32.5596 80.1309 32.5483C80.7035 31.6961 81.4485 30.9734 82.3178 30.4271C83.1871 29.8807 84.1614 29.5229 85.1777 29.3766C85.4052 29.309 85.6486 29.3183 85.8703 29.4031C86.092 29.4879 86.2794 29.6435 86.4036 29.8458C86.4832 29.9831 86.5191 30.1413 86.5064 30.2995C86.4938 30.4576 86.4333 30.6082 86.333 30.7311ZM66.4525 31.2501L67.5243 29.9036L65.9802 30.662C65.3551 30.9689 64.8554 30.993 64.5919 30.7311C64.4915 30.6079 64.4311 30.4569 64.4187 30.2984C64.4064 30.14 64.4427 29.9815 64.5228 29.8442C64.6469 29.6414 64.8347 29.4854 65.0567 29.4005C65.2788 29.3157 65.5227 29.3067 65.7504 29.375C66.7667 29.5217 67.741 29.8798 68.6103 30.4265C69.4797 30.9731 70.2247 31.6959 70.7972 32.5483C68.9366 32.5596 67.0776 32.5708 65.2186 32.5949C65.6647 32.1799 66.0774 31.7302 66.4525 31.2501ZM60.4722 30.1446C60.3378 30.9924 60.4077 31.86 60.6763 32.6753C59.4375 32.6994 58.197 32.7187 56.9566 32.7492C58.3477 32.2245 59.5651 31.3226 60.4722 30.1446ZM90.2486 32.6753C90.5172 31.86 90.5872 30.9924 90.4527 30.1446C91.3599 31.3231 92.578 32.2251 93.9699 32.7492C92.7295 32.7187 91.489 32.6994 90.2486 32.6753Z" fill="black"/>
<path d="M147.299 69.5616H78.4739L78.1638 68.5975L78.1992 69.5616H72.7362L72.7732 68.5975L72.4614 69.5616H3.62959L3.59424 70.3328C20.4073 71.848 36.8252 72.8281 53.1241 73.3037C52.3874 73.4895 51.71 73.8594 51.1554 74.3788C50.6009 74.8982 50.1875 75.55 49.954 76.273L49.6969 76.9961L50.3589 76.7952C49.989 77.2566 49.7455 77.8063 49.6522 78.3902C49.559 78.9742 49.6193 79.5724 49.8271 80.126C50.1565 80.7708 50.6586 81.3114 51.2774 81.6873C51.8962 82.0632 52.6074 82.2598 53.3314 82.255C53.4632 82.4478 53.4921 82.7016 53.0197 83.1837L52.2308 83.9871L53.3555 83.8264C53.8945 83.7795 54.3976 83.5365 54.7695 83.1436C55.1414 82.7507 55.3564 82.235 55.3736 81.6942C55.9014 81.4248 56.4914 81.3009 57.083 81.335C57.6746 81.3692 58.2464 81.5603 58.7397 81.8886L59.519 82.4221L59.3391 81.495C59.2477 80.9085 58.9949 80.3591 58.6089 79.9082C58.223 79.4573 57.7192 79.1227 57.1539 78.9418C56.6564 78.8255 56.1369 78.8429 55.6484 78.9925C55.1598 79.1421 54.7196 79.4184 54.3726 79.7934C53.9978 78.8705 53.277 78.1306 52.3641 77.7319C52.3741 77.3717 52.5093 77.0263 52.7465 76.755C52.829 76.6607 52.9295 76.5837 53.042 76.5285C53.1546 76.4733 53.277 76.4411 53.4021 76.4337C54.1765 76.5045 54.9273 76.7377 55.6056 77.1181C56.2839 77.4985 56.8744 78.0175 57.3386 78.6414C58.4608 79.8495 59.8168 80.8169 61.3244 81.4848C62.832 82.1526 64.4596 82.5071 66.1083 82.5265C66.9342 82.4779 67.7413 82.2601 68.4795 81.8867C69.2178 81.5133 69.8714 80.9922 70.4 80.3558C70.5974 80.7524 70.9071 81.0822 71.2904 81.3042C71.6738 81.5261 72.114 81.6305 72.5562 81.6042C72.8985 81.5973 73.2348 81.514 73.5406 81.3602C73.8465 81.2065 74.114 80.9863 74.3237 80.7157C74.5415 80.3721 74.6802 79.9844 74.7296 79.5806C74.7791 79.1768 74.7381 78.7671 74.6097 78.3811L74.3606 77.3945L73.8931 78.2991C73.8294 78.4529 73.735 78.5921 73.6156 78.7082C73.4963 78.8242 73.3545 78.9147 73.199 78.974C72.9121 78.4384 72.815 77.8214 72.9236 77.2236C73.0321 76.6258 73.3398 76.0823 73.7967 75.6817L74.0682 75.3829L73.7469 75.1242C73.3011 74.7268 72.99 74.2007 72.8567 73.6186C73.7147 73.6186 74.5727 73.6331 75.4275 73.6331C76.2823 73.6331 77.1741 73.6203 78.0465 73.617C77.9138 74.2009 77.6007 74.7282 77.1516 75.1242L76.8302 75.3813L77.1018 75.6817C77.5587 76.082 77.8663 76.6254 77.9743 77.2231C78.0823 77.8209 77.9843 78.4376 77.6963 78.9724C77.5411 78.9128 77.3996 78.8222 77.2806 78.7062C77.1615 78.5902 77.0673 78.4511 77.0038 78.2975L76.5346 77.3929L76.2855 78.3827C76.1583 78.769 76.1183 79.1788 76.1683 79.5824C76.2183 79.9861 76.3571 80.3737 76.5747 80.7173C76.7847 80.9874 77.0524 81.2072 77.3582 81.3606C77.6639 81.5141 78.0001 81.5973 78.3422 81.6042C78.7846 81.6302 79.2249 81.5257 79.6084 81.3038C79.992 81.0819 80.302 80.7522 80.5001 80.3558C81.0286 80.9922 81.6823 81.5133 82.4205 81.8867C83.1587 82.2601 83.9658 82.4779 84.7917 82.5265C86.4403 82.5046 88.0674 82.1491 89.5748 81.4813C91.0823 80.8136 92.439 79.8476 93.563 78.6414C94.0273 78.0175 94.6178 77.4985 95.296 77.1181C95.9743 76.7377 96.7251 76.5045 97.4995 76.4337C97.6255 76.4391 97.7491 76.4704 97.8624 76.5257C97.9758 76.581 98.0765 76.6591 98.1583 76.755C98.3957 77.0261 98.5304 77.3718 98.5391 77.7319C97.6268 78.1315 96.9063 78.871 96.5307 79.7934C96.1835 79.4182 95.743 79.1417 95.2541 78.9921C94.7653 78.8425 94.2455 78.8252 93.7478 78.9418C93.1857 79.1277 92.6863 79.4661 92.3053 79.9191C91.9243 80.3722 91.6766 80.9222 91.5899 81.5078L91.4115 82.4333L92.1892 81.9015C92.6823 81.5734 93.2539 81.3825 93.8451 81.3484C94.4364 81.3142 95.0261 81.438 95.5538 81.7071C95.571 82.2481 95.7862 82.764 96.1584 83.1569C96.5307 83.5499 97.0342 83.7927 97.5735 83.8392L98.6982 83.9999L97.9077 83.1885C97.4401 82.7065 97.4642 82.4542 97.5976 82.2614C98.3215 82.2657 99.0324 82.0689 99.6511 81.693C100.27 81.3171 100.772 80.7769 101.102 80.1324C101.31 79.5789 101.37 78.9806 101.277 78.3966C101.184 77.8126 100.94 77.2629 100.57 76.8016L101.232 77.0041L100.975 76.281C100.742 75.5575 100.328 74.9051 99.7733 74.3854C99.2185 73.8657 98.5405 73.4956 97.8032 73.3102C114.097 72.8281 130.515 71.8528 147.335 70.3393L147.299 69.5616ZM84.4752 74.8446L83.4067 76.1927L84.9492 75.4327C85.5742 75.1258 86.0739 75.1001 86.3358 75.362C86.4367 75.4847 86.4975 75.6354 86.5098 75.7938C86.5222 75.9521 86.4856 76.1105 86.4049 76.2473C86.2807 76.4495 86.0932 76.6051 85.8715 76.69C85.6499 76.7748 85.4064 76.7841 85.1789 76.7165C84.1776 76.5725 83.2169 76.2232 82.357 75.6904C81.4971 75.1576 80.7566 74.4528 80.1819 73.6203C81.9976 73.609 83.8132 73.5978 85.6304 73.5737C85.215 73.9715 84.8284 74.3983 84.4736 74.851L84.4752 74.8446ZM64.5964 75.3684C64.8518 75.1065 65.358 75.1306 65.983 75.4391L67.5271 76.1991L66.4554 74.851C66.102 74.3981 65.7159 73.9717 65.3001 73.5753C67.1174 73.5994 68.933 73.6106 70.7486 73.6219C70.1744 74.4549 69.4343 75.1603 68.5747 75.694C67.7151 76.2276 66.7546 76.5779 65.7532 76.7229C65.5258 76.7908 65.2822 76.7816 65.0605 76.6968C64.8388 76.6119 64.6513 76.4562 64.5273 76.2537C64.4466 76.1169 64.41 75.9585 64.4223 75.8002C64.4347 75.6418 64.4955 75.4911 64.5964 75.3684ZM60.6582 73.4933C60.4086 74.2888 60.3459 75.1312 60.475 75.9549C59.6077 74.8408 58.4669 73.9701 57.1635 73.4274C58.33 73.4548 59.4917 73.4724 60.6566 73.4933H60.6582ZM90.4555 75.9549C90.5855 75.1312 90.5228 74.2887 90.2724 73.4933C91.4389 73.4708 92.6038 73.4532 93.7703 73.4258C92.4652 73.9687 91.3227 74.8399 90.4539 75.9549H90.4555Z" fill="black"/>
</g>
</svg>
