<svg width="200" height="78" viewBox="0 0 200 78" fill="none" xmlns="http://www.w3.org/2000/svg">
<g opacity="0.7">
<path d="M10.8463 67.1152L4.77455 58.8103H0.942383V77.9488H4.93908V65.5497L10.2105 72.8291H11.0763L16.295 65.489V77.9488H20.2646V58.8103H16.6353L10.8463 67.1152Z" fill="black"/>
<path d="M37.8126 74.1613H30.1499V70.1806H36.7615V66.3932H30.1499V62.5961H37.5491V58.8103H26.1548V77.9488H37.8126V74.1613Z" fill="black"/>
<path d="M46.4845 77.9488H50.4812V62.5961H56.438V58.8103H40.5278V62.5961H46.4845V77.9488Z" fill="black"/>
<path d="M59.9552 77.9473L61.8721 73.2509H69.2026L71.1195 77.9473H75.3941L67.3001 58.7577H63.9551L55.8643 77.9473H59.9552ZM63.42 69.4635L65.5461 64.3246L67.6531 69.4635H63.42Z" fill="black"/>
<path d="M78.75 58.8103V77.9488H91.0133V74.1613H82.7451V58.8103H78.75Z" fill="black"/>
<path d="M99.0641 58.8103H95.0674V77.9488H99.0641V58.8103Z" fill="black"/>
<path d="M109.138 65.9379L118.672 77.9472H121.812V58.8103H118.026V70.8675L108.495 58.8103H105.353V77.9472H109.138V65.9379Z" fill="black"/>
<path d="M129.16 58.8103H124.89L132.762 77.9999H135.722L143.376 58.8103H139.316L134.351 71.762L129.16 58.8103Z" fill="black"/>
<path d="M158.145 74.1613H150.482V70.1806H157.094V66.3932H150.482V62.5961H157.883V58.8103H146.485V77.9488H158.145V74.1613Z" fill="black"/>
<path d="M175.818 70.8691L166.285 58.8103H163.143V77.9472H166.93V65.9379L176.462 77.9472H179.604V58.8103H175.818V70.8691Z" fill="black"/>
<path d="M183.21 62.5961H189.167V77.9488H193.163V62.5961H199.12V58.8103H183.21V62.5961Z" fill="black"/>
<path d="M99.6752 33.0443L117.087 43.2948L135.269 32.5923V11.2126L117.09 0.51001L99.6784 10.7605L82.2667 0.51001L64.0835 11.2126V32.5923L82.2667 43.2948L99.6752 33.0443ZM117.858 2.74637L133.735 12.0992V30.7568L117.858 20.591V2.74637ZM133.034 32.1258L117.09 41.5121L101.143 32.1258L117.09 21.9168L133.034 32.1258ZM100.078 12.3068L116.322 2.74637V20.583L99.2727 31.498L83.0303 41.0585V23.2219L100.078 12.3068ZM82.2619 2.29271L98.2072 11.6791L82.2619 21.8897L66.3151 11.6791L82.2619 2.29271ZM81.4936 41.0601L65.617 31.7137V13.0576L81.4936 23.2235V41.0601Z" fill="black"/>
</g>
</svg>
