<svg width="181" height="77" viewBox="0 0 181 77" fill="none" xmlns="http://www.w3.org/2000/svg">
<g opacity="0.7">
<path d="M17.3078 36.7302C17.304 35.7993 17.231 34.8699 17.0893 33.9497C16.819 31.964 15.8495 30.1398 14.3549 28.8048C12.8603 27.4697 10.9387 26.7114 8.93521 26.666C7.73705 26.6515 5.87425 26.6515 4.24452 26.6551C3.74203 26.6625 3.24592 26.7688 2.78455 26.968C2.32318 27.1672 1.9056 27.4555 1.5557 27.8162C1.2058 28.1769 0.930434 28.6031 0.745349 29.0703C0.560264 29.5375 0.46909 30.0366 0.477041 30.5391V51.0955H0.915883C1.7881 51.0955 2.65486 51.1119 3.51798 51.1283C4.38109 51.1447 5.2169 51.1629 6.06727 51.1629C7.12886 51.1629 8.19774 51.1355 9.25023 51.0536C11.3437 50.8445 13.294 49.8958 14.7508 48.3779C16.2077 46.86 17.0755 44.8724 17.1985 42.7721C17.3351 40.7891 17.3242 39.8313 17.3114 38.3782C17.3133 37.9047 17.3078 37.3749 17.3078 36.7302ZM6.05816 49.4767C5.75225 49.4767 5.44451 49.4621 5.13313 49.4585V28.303H6.06727C6.93038 28.303 7.7935 28.303 8.65479 28.3358C9.17768 28.3298 9.69614 28.4321 10.1776 28.6363C10.659 28.8405 11.0929 29.1421 11.4521 29.5221C11.8113 29.9021 12.0879 30.3524 12.2646 30.8446C12.4413 31.3368 12.5142 31.8602 12.4787 32.3819C12.4951 35.37 12.4951 37.384 12.4951 39.8477V42.8504C12.4951 43.6455 12.4915 44.4412 12.4842 45.2376C12.5112 46.2554 12.1609 47.2473 11.5007 48.0225C10.8405 48.7976 9.91706 49.3013 8.9079 49.4366C7.95972 49.5087 7.00799 49.5221 6.05816 49.4767Z" fill="black"/>
<path d="M56.2884 40.403C57.1139 39.8419 57.8069 39.1073 58.319 38.2506C58.831 37.3938 59.1497 36.4356 59.2529 35.4428C59.4863 34.3212 59.4784 33.1628 59.2298 32.0446C58.9811 30.9263 58.4974 29.8737 57.8107 28.9567C57.1475 28.2044 56.3246 27.6096 55.4022 27.2158C54.4798 26.8221 53.4812 26.6392 52.4791 26.6805C51.128 26.6805 48.9902 26.6805 47.1784 26.6805C46.167 26.694 45.2022 27.1075 44.4951 27.8307C43.788 28.5538 43.3962 29.5277 43.4054 30.5391V51.1155H48.0524L48.0652 28.3813C48.4294 28.3813 48.7808 28.3704 49.1377 28.3631C50.2504 28.3158 51.365 28.3346 52.4754 28.4195C53.0256 28.4778 53.5383 28.726 53.9252 29.1215C54.3121 29.517 54.5489 30.0351 54.595 30.5864C54.7772 32.2667 54.8502 33.957 54.8135 35.6467V35.9199C54.8243 36.6059 54.7184 37.2888 54.5003 37.9393C54.3463 38.4441 54.0383 38.8881 53.6193 39.2091C53.2004 39.53 52.6915 39.7119 52.1641 39.7292C51.758 39.7511 51.3974 39.7638 51.0424 39.7675H49.0594L55.2505 51.1173H60.2945L54.7953 41.0294C55.3075 40.857 55.8065 40.6476 56.2884 40.403Z" fill="black"/>
<path d="M94.1994 26.2946C91.9023 26.2599 89.6812 27.1174 88.0032 28.6867C86.3253 30.2559 85.3212 32.4147 85.2023 34.7091C85.0566 36.8942 85.0711 38.1797 85.0894 39.8076C85.0894 40.4705 85.1057 41.197 85.1039 42.0747C85.1025 43.3452 85.3397 44.6046 85.8032 45.7875C86.4046 47.4679 87.5107 48.9213 88.97 49.9488C90.4294 50.9762 92.1707 51.5275 93.9554 51.5271C94.6443 51.526 95.3311 51.4509 96.004 51.3031C97.8773 50.8489 99.5558 49.8064 100.793 48.3284C102.031 46.8504 102.762 45.0148 102.88 43.0908C103.077 39.9341 103.004 36.7663 102.663 33.622C102.32 31.609 101.289 29.7776 99.7448 28.4411C98.2009 27.1045 96.2408 26.3458 94.1994 26.2946ZM89.8602 32.8044V32.5877C89.802 31.7074 89.9986 30.8291 90.4265 30.0576C90.8544 29.2862 91.4954 28.6543 92.2729 28.2375C92.8314 27.9325 93.4574 27.7723 94.0938 27.7714C94.7879 27.7757 95.4684 27.9643 96.0659 28.3176C96.6919 28.6796 97.2132 29.1981 97.5787 29.8221C97.9442 30.4461 98.1413 31.1544 98.1508 31.8775C98.1854 33.6311 98.1781 34.5852 98.1708 35.798C98.1708 36.4207 98.1599 37.1109 98.1599 38.0086V40.3903C98.1599 42.1767 98.169 43.9648 98.1508 45.7511C98.161 46.8491 97.7424 47.9077 96.9841 48.7018C96.2257 49.4959 95.1875 49.9627 94.0902 50.003H94.072C93.5429 50.02 93.0158 49.9313 92.5214 49.7422C92.0271 49.5531 91.5754 49.2674 91.1927 48.9017C90.81 48.536 90.5041 48.0977 90.2928 47.6124C90.0816 47.1271 89.9691 46.6045 89.9621 46.0752C89.8583 41.0404 89.8602 37.7627 89.8602 32.8044Z" fill="black"/>
<path d="M38.8309 36.184C38.8026 35.0325 38.6295 33.889 38.3156 32.7807C37.8267 30.9387 36.7475 29.3076 35.2432 28.1375C33.7389 26.9673 31.8925 26.3225 29.9867 26.3019H29.9631C25.6584 26.3128 21.0132 29.3355 21.0132 34.1992V40.8128C20.9314 42.2467 21.0683 43.6847 21.4193 45.0774C21.762 46.2978 22.3604 47.4313 23.1747 48.4027C23.9891 49.374 25.0009 50.161 26.1428 50.7113C27.2941 51.2547 28.5516 51.5359 29.8247 51.5344C30.9888 51.5342 32.1413 51.3027 33.2152 50.8533C34.8977 50.138 36.3288 48.9374 37.3258 47.4049C38.3228 45.8724 38.8405 44.0775 38.8127 42.2495C38.9205 40.6032 38.9381 38.9521 38.8655 37.3039L38.8309 36.184ZM25.7513 32.0906C25.7841 31.3908 25.9718 30.7071 26.3009 30.0886C26.6299 29.4702 27.0921 28.9325 27.6541 28.5143C28.3006 28.0364 29.0827 27.7774 29.8866 27.775C30.9122 27.7739 31.9011 28.1566 32.6589 28.8477C33.4168 29.5388 33.8886 30.4883 33.9818 31.5097C34.031 31.9255 34.0541 32.3439 34.051 32.7625V35.7889C34.051 39.0265 34.051 41.6632 34.0401 45.3979C34.0914 46.388 33.8084 47.3666 33.2363 48.1764C32.6643 48.9862 31.8366 49.5802 30.8863 49.8628C30.2944 50.0193 29.6743 50.0374 29.0743 49.9155C28.4743 49.7936 27.9104 49.535 27.4265 49.1599C26.9143 48.7737 26.4981 48.2746 26.2101 47.7014C25.9221 47.1282 25.7701 46.4964 25.7658 45.8549C25.7367 43.404 25.7094 34.7273 25.7513 32.0906Z" fill="black"/>
<path d="M77.1239 40.403C77.9489 39.8416 78.6414 39.1068 79.1531 38.2501C79.6648 37.3934 79.9833 36.4354 80.0865 35.4428C80.3199 34.3212 80.3121 33.1628 80.0634 32.0446C79.8148 30.9263 79.331 29.8737 78.6444 28.9567C77.9811 28.2044 77.1583 27.6096 76.2359 27.2158C75.3135 26.8221 74.3148 26.6392 73.3127 26.6805C71.9634 26.6805 69.822 26.6805 68.012 26.6805C67.001 26.6945 66.0366 27.1082 65.3299 27.8313C64.6232 28.5544 64.2316 29.528 64.2409 30.5391V51.1155H68.886L68.8988 28.3813C69.263 28.3813 69.6144 28.3704 69.9713 28.3631C71.0852 28.3159 72.2009 28.3341 73.3127 28.4177C73.8637 28.4739 74.3775 28.7215 74.7648 29.1174C75.1521 29.5133 75.3883 30.0325 75.4323 30.5846C75.6146 32.2594 75.6875 33.9443 75.6508 35.6285V35.9162C75.6621 36.6022 75.5568 37.285 75.3394 37.9356C75.185 38.4404 74.8769 38.8843 74.4581 39.2055C74.0393 39.5267 73.5306 39.7092 73.0031 39.7274C72.5953 39.7493 72.2365 39.762 71.8815 39.7638H69.893L76.0841 51.1136H81.1263L75.6289 41.0257C76.1419 40.8552 76.6415 40.647 77.1239 40.403Z" fill="black"/>
<path d="M176.635 16.2122L152.113 1.75774C151.115 1.15932 149.975 0.839148 148.811 0.830502C147.647 0.821856 146.502 1.12505 145.496 1.70857C144.351 2.38828 143.407 3.35783 142.757 4.51936C142.107 5.68088 141.776 6.99326 141.796 8.32397V10.5655L126.864 1.76502C125.866 1.16752 124.726 0.847892 123.562 0.839247C122.399 0.830603 121.254 1.13326 120.247 1.71586C119.104 2.39494 118.16 3.36335 117.51 4.52348C116.86 5.68362 116.528 6.99448 116.547 8.32397V69.516C116.529 70.8454 116.861 72.1561 117.511 73.3162C118.16 74.4763 119.104 75.4447 120.247 76.1241C121.254 76.7064 122.399 77.0088 123.562 76.9998C124.726 76.9908 125.866 76.6709 126.864 76.0731L141.796 67.2708V69.5069C141.777 70.8366 142.109 72.1477 142.759 73.3081C143.409 74.4686 144.352 75.4373 145.496 76.1168C146.503 76.6991 147.648 77.0015 148.811 76.9925C149.975 76.9836 151.115 76.6636 152.113 76.0658L176.635 61.6114C177.753 60.9246 178.674 59.9596 179.307 58.8106C179.941 57.6617 180.266 56.368 180.25 55.0561V22.7693C180.266 21.457 179.942 20.163 179.308 19.0136C178.674 17.8643 177.753 16.899 176.635 16.2122ZM154.125 22.7675V55.0615C154.142 56.2216 153.858 57.3663 153.3 58.3836C152.742 59.4008 151.93 60.2558 150.942 60.8648L142.671 65.7394V12.0933L150.942 16.9679C151.929 17.577 152.742 18.432 153.3 19.4492C153.858 20.4665 154.142 21.6111 154.125 22.7712V22.7675Z" fill="black"/>
</g>
</svg>
