<svg width="215" height="47" viewBox="0 0 215 47" fill="none" xmlns="http://www.w3.org/2000/svg">
<path d="M196.166 31.5079L180.305 27.9367L196.164 24.3643V13.8448L175.684 9.38082L175.623 9.36755L155.082 13.8316V42.3953L175.409 46.6952L175.623 46.7423L196.167 42.3989V31.5079H196.166ZM157.139 22.5799V15.4977L175.623 11.4765L190.655 14.7461L157.139 22.5799ZM157.139 31.0458V24.6924L194.108 16.0515V22.7186L157.139 31.0458ZM190.69 32.385L157.14 40.1379V33.1487L175.625 28.9863L190.69 32.385ZM194.108 33.7122V40.7327L175.623 44.643L160.578 41.4615L194.108 33.7122Z" fill="#4B4B4B"/>
<path d="M20.5653 31.2979C20.5653 28.3058 19.2828 26.0629 17.0194 25.0458C17.8872 24.5553 18.5997 23.8311 19.076 22.9555C19.5523 22.0799 19.7732 21.0882 19.7135 20.0932C19.7135 15.8705 16.7685 13.3501 11.8364 13.3501H0.658203V38.7504H11.9051C17.2463 38.7516 20.5653 35.8946 20.5653 31.2979ZM6.30941 23.1722V18.7528H11.1607C13.2214 18.7528 14.0249 19.3681 14.0249 20.945C14.0249 22.4845 13.1804 23.1722 11.3031 23.1722H6.30941ZM14.8417 30.8732C14.8417 32.1593 14.4725 33.3489 11.799 33.3489H6.30941V28.4023H11.7579C14.3374 28.3963 14.8417 29.3048 14.8417 30.8732Z" fill="#4B4B4B"/>
<path d="M30.6105 18.6696H24.9604V38.7516H30.6105V18.6696Z" fill="#4B4B4B"/>
<path d="M27.8039 16.2348C28.2494 16.2574 28.6949 16.1892 29.1132 16.0342C29.5315 15.8793 29.914 15.6409 30.2373 15.3336C30.5607 15.0262 30.8181 14.6563 30.994 14.2464C31.1699 13.8364 31.2607 13.395 31.2607 12.9489C31.2607 12.5028 31.1699 12.0614 30.994 11.6514C30.8181 11.2415 30.5607 10.8716 30.2373 10.5643C29.914 10.2569 29.5315 10.0185 29.1132 9.86362C28.6949 9.70868 28.2494 9.64044 27.8039 9.66304C27.3584 9.64044 26.9129 9.70868 26.4946 9.86362C26.0763 10.0185 25.6938 10.2569 25.3705 10.5643C25.0472 10.8716 24.7897 11.2415 24.6138 11.6514C24.4379 12.0614 24.3472 12.5028 24.3472 12.9489C24.3472 13.395 24.4379 13.8364 24.6138 14.2464C24.7897 14.6563 25.0472 15.0262 25.3705 15.3336C25.6938 15.6409 26.0763 15.8793 26.4946 16.0342C26.9129 16.1892 27.3584 16.2574 27.8039 16.2348Z" fill="#4B4B4B"/>
<path d="M47.143 18.2449C46.0519 18.2027 44.9654 18.4088 43.9656 18.8477C42.9658 19.2866 42.0786 19.9468 41.3712 20.7785V18.6708H35.7188V38.7517H41.3712V28.2129C41.3712 25.1834 42.7514 23.6464 45.4732 23.6464C47.8307 23.6464 48.8369 24.7467 48.8369 27.3262V38.7517H54.487V26.2283C54.4894 21.3034 51.6746 18.2449 47.143 18.2449Z" fill="#4B4B4B"/>
<path d="M68.6272 18.2448C67.251 18.2322 65.8862 18.4945 64.6128 19.0164C63.3393 19.5383 62.1829 20.3092 61.2114 21.284C60.2399 22.2588 59.4728 23.4178 58.9552 24.6929C58.4376 25.9681 58.1799 27.3338 58.1971 28.71C58.1971 31.481 59.2979 34.1385 61.2573 36.098C63.2167 38.0574 65.8743 39.1582 68.6453 39.1582C71.4164 39.1582 74.0739 38.0574 76.0333 36.098C77.9928 34.1385 79.0936 31.481 79.0936 28.71C79.1249 27.327 78.8756 25.952 78.3607 24.6681C77.8458 23.3841 77.076 22.2179 76.0977 21.2398C75.1195 20.2617 73.9532 19.492 72.6692 18.9773C71.3852 18.4625 70.0102 18.2133 68.6272 18.2448ZM73.3724 28.7088C73.4151 29.358 73.3241 30.0092 73.105 30.6219C72.8859 31.2346 72.5433 31.7958 72.0986 32.2708C71.6538 32.7458 71.1163 33.1244 70.5193 33.3832C69.9223 33.6421 69.2785 33.7757 68.6278 33.7757C67.9771 33.7757 67.3334 33.6421 66.7364 33.3832C66.1394 33.1244 65.6018 32.7458 65.1571 32.2708C64.7123 31.7958 64.3698 31.2346 64.1507 30.6219C63.9316 30.0092 63.8406 29.358 63.8833 28.7088C63.8406 28.0595 63.9316 27.4083 64.1507 26.7956C64.3698 26.1829 64.7123 25.6217 65.1571 25.1467C65.6018 24.6717 66.1394 24.2931 66.7364 24.0343C67.3334 23.7754 67.9771 23.6418 68.6278 23.6418C69.2785 23.6418 69.9223 23.7754 70.5193 24.0343C71.1163 24.2931 71.6538 24.6717 72.0986 25.1467C72.5433 25.6217 72.8859 26.1829 73.105 26.7956C73.3241 27.4083 73.4151 28.0595 73.3724 28.7088Z" fill="#4B4B4B"/>
<path d="M88.7708 30.6863L96.3331 38.7517H103.614L93.8441 28.2528L103.024 18.6696H95.7637L88.7708 26.3296V10.8684H83.1196V38.7517H88.7708V30.6863Z" fill="#4B4B4B"/>
<path d="M114.007 18.2449C112.63 18.2318 111.265 18.4937 109.991 19.0154C108.717 19.537 107.56 20.3079 106.588 21.2827C105.616 22.2575 104.849 23.4166 104.331 24.692C103.813 25.9675 103.555 27.3335 103.572 28.71C103.557 30.0916 103.817 31.4624 104.335 32.7432C104.853 34.0239 105.621 35.1891 106.592 36.1713C107.564 37.1536 108.721 37.9333 109.996 38.4655C111.271 38.9977 112.639 39.2717 114.021 39.2717C115.403 39.2717 116.771 38.9977 118.046 38.4655C119.321 37.9333 120.478 37.1536 121.449 36.1713C122.421 35.1891 123.188 34.0239 123.707 32.7432C124.225 31.4624 124.485 30.0916 124.47 28.71C124.501 27.3273 124.252 25.9527 123.737 24.669C123.222 23.3853 122.453 22.2192 121.475 21.2412C120.497 20.2631 119.331 19.4934 118.048 18.9784C116.764 18.4634 115.39 18.2139 114.007 18.2449ZM118.751 28.7088C118.794 29.3581 118.703 30.0092 118.484 30.6219C118.264 31.2346 117.922 31.7959 117.477 32.2708C117.032 32.7458 116.495 33.1244 115.898 33.3833C115.301 33.6421 114.657 33.7757 114.006 33.7757C113.356 33.7757 112.712 33.6421 112.115 33.3833C111.518 33.1244 110.98 32.7458 110.536 32.2708C110.091 31.7959 109.748 31.2346 109.529 30.6219C109.31 30.0092 109.219 29.3581 109.262 28.7088C109.219 28.0595 109.31 27.4083 109.529 26.7956C109.748 26.1829 110.091 25.6217 110.536 25.1468C110.98 24.6718 111.518 24.2931 112.115 24.0343C112.712 23.7754 113.356 23.6419 114.006 23.6419C114.657 23.6419 115.301 23.7754 115.898 24.0343C116.495 24.2931 117.032 24.6718 117.477 25.1468C117.922 25.6217 118.264 26.1829 118.484 26.7956C118.703 27.4083 118.794 28.0595 118.751 28.7088Z" fill="#4B4B4B"/>
<path d="M139.781 18.2436C138.635 18.1943 137.496 18.4456 136.477 18.9726C135.458 19.4996 134.595 20.284 133.973 21.2478V18.6707H128.322V38.7516H133.975V29.7705C133.975 25.964 135.894 24.0336 139.677 24.0336C140.032 24.0325 140.387 24.051 140.74 24.0891L141.208 24.1325V18.3414L140.95 18.3124C140.562 18.2677 140.172 18.2447 139.781 18.2436Z" fill="#4B4B4B"/>
<path d="M204.697 6.45258C205.62 6.45258 206.72 6.05685 206.72 4.17472V0.0533447H205.4V4.1144C205.4 5.16043 205.069 5.24247 204.637 5.24247C204.462 5.24384 204.287 5.21317 204.122 5.15198L203.794 5.02409L203.578 6.20525L203.796 6.29453C204.085 6.39848 204.39 6.45194 204.697 6.45258Z" fill="#4B4B4B"/>
<path d="M209.658 6.41043C210.437 6.48721 211.217 6.26656 211.84 5.79271C212.024 5.61868 212.17 5.40839 212.268 5.17517C212.366 4.94194 212.415 4.69086 212.411 4.43782C212.416 4.14003 212.342 3.84626 212.195 3.58672C212.049 3.32718 211.837 3.11123 211.58 2.96107C211.771 2.81727 211.926 2.63112 212.034 2.4172C212.141 2.20327 212.198 1.96739 212.199 1.72804C212.208 1.49023 212.16 1.25364 212.059 1.03835C211.957 0.823057 211.805 0.635424 211.616 0.491381C211.106 0.128869 210.485 -0.0420436 209.862 0.00878399C209.389 0.00456505 208.916 0.0449608 208.451 0.129434L208.221 0.177693V6.29702L208.47 6.33201C208.864 6.38503 209.261 6.41123 209.658 6.41043ZM209.537 3.61499H209.858C210.302 3.61499 211.045 3.71996 211.045 4.42817C211.045 5.10863 210.404 5.251 209.866 5.251C209.737 5.251 209.625 5.251 209.537 5.24496V3.61499ZM210.864 1.80525C210.864 2.21787 210.502 2.47485 209.913 2.47485H209.533V1.17667C209.637 1.16702 209.759 1.1634 209.895 1.1634C210.871 1.15978 210.871 1.6279 210.871 1.80405L210.864 1.80525Z" fill="#4B4B4B"/>
<path d="M214.994 0.0533447H213.674V6.35968H214.994V0.0533447Z" fill="#4B4B4B"/>
</svg>
