<svg width="224" height="41" viewBox="0 0 224 41" fill="none" xmlns="http://www.w3.org/2000/svg">
<g opacity="0.7">
<path d="M223.104 21.261C223.218 21.2547 223.325 21.2069 223.405 21.1266C223.485 21.0463 223.533 20.9393 223.539 20.8259V19.6904C223.547 19.6315 223.541 19.5717 223.521 19.5155C223.502 19.4594 223.47 19.4083 223.428 19.3664C223.386 19.3244 223.335 19.2926 223.279 19.2733C223.223 19.2541 223.163 19.248 223.104 19.2554H1.20556C1.09221 19.2616 0.98515 19.3095 0.904877 19.3898C0.824605 19.47 0.776761 19.5771 0.770508 19.6904L0.770508 20.8259C0.781329 20.9336 0.8319 21.0334 0.912345 21.1058C0.992791 21.1782 1.09733 21.218 1.20556 21.2175L223.113 21.2566L223.104 21.261Z" fill="black"/>
<path d="M40.8276 33.1618C40.7964 34.1579 40.9738 35.1494 41.3484 36.0728C41.723 36.9962 42.2866 37.8311 43.0029 38.5239C43.7007 39.2224 44.53 39.7759 45.4428 40.1522C46.3557 40.5286 47.334 40.7204 48.3214 40.7165C50.0451 40.7318 51.7434 40.3001 53.2506 39.4636C53.3901 39.4097 53.5081 39.3116 53.5866 39.1844C53.6652 39.0571 53.7 38.9076 53.6856 38.7588V33.8666C53.6704 33.7608 53.6185 33.6636 53.539 33.592C53.4595 33.5205 53.3575 33.4791 53.2506 33.4751H49.4439C49.343 33.4827 49.2482 33.5266 49.1771 33.5985C49.106 33.6704 49.0632 33.7657 49.0567 33.8666V35.1196C49.0567 35.4306 49.1328 35.5546 49.4439 35.5546H51.5017V37.8256C50.5624 38.3352 49.502 38.5788 48.4345 38.5304C47.0257 38.5021 45.6841 37.9225 44.6978 36.9162C43.7114 35.9098 43.159 34.5568 43.159 33.1477C43.159 31.7386 43.7114 30.3856 44.6978 29.3792C45.6841 28.3729 47.0257 27.7933 48.4345 27.765C49.6955 27.7673 50.9065 28.2585 51.8127 29.1354C52.1216 29.4487 52.3174 29.3312 52.5501 29.1354L53.3637 28.2653C53.4304 28.1974 53.4677 28.106 53.4677 28.0108C53.4677 27.9156 53.4304 27.8242 53.3637 27.7563C51.9932 26.4847 50.1888 25.7844 48.3192 25.7986C46.3334 25.7953 44.4249 26.5681 43.0007 27.9521C42.2685 28.5996 41.6925 29.4044 41.3157 30.3063C40.939 31.2082 40.7714 32.1837 40.8255 33.1597L40.8276 33.1618ZM112.015 38.4456V33.9841H117.525C117.584 33.9915 117.644 33.9854 117.7 33.9661C117.756 33.9469 117.807 33.9151 117.849 33.8731C117.891 33.8311 117.923 33.7801 117.942 33.7239C117.962 33.6678 117.968 33.6079 117.96 33.549V32.4135C117.95 32.3059 117.899 32.2061 117.818 32.1337C117.738 32.0613 117.634 32.0215 117.525 32.022H112.015V27.7563H118.574C118.675 27.7492 118.77 27.7055 118.842 27.6336C118.913 27.5616 118.957 27.4661 118.963 27.3648V26.1118C118.971 26.0567 118.967 26.0005 118.951 25.9472C118.935 25.8939 118.907 25.8448 118.87 25.8033C118.833 25.7619 118.787 25.729 118.736 25.7072C118.685 25.6853 118.629 25.6749 118.574 25.6768H110.345C110.034 25.6768 109.958 25.9117 109.958 26.1118V39.8943C109.964 39.9952 110.007 40.0905 110.078 40.1624C110.149 40.2343 110.244 40.2782 110.345 40.2858H118.574C118.675 40.2787 118.77 40.2351 118.842 40.1631C118.913 40.0911 118.957 39.9956 118.963 39.8943V38.6326C118.958 38.5263 118.917 38.4249 118.846 38.3456C118.775 38.2663 118.679 38.214 118.574 38.1976H112.015V38.4456ZM132.004 38.4456V33.9841H137.555C137.614 33.9915 137.674 33.9854 137.73 33.9661C137.786 33.9469 137.837 33.9151 137.879 33.8731C137.921 33.8311 137.953 33.7801 137.972 33.7239C137.991 33.6678 137.998 33.6079 137.99 33.549V32.4135C137.979 32.3059 137.929 32.2061 137.848 32.1337C137.768 32.0613 137.663 32.0215 137.555 32.022H132.004V27.7563H138.604C138.704 27.7487 138.799 27.7048 138.87 27.6329C138.941 27.5609 138.984 27.4657 138.991 27.3648V26.1118C138.999 26.0568 138.995 26.0007 138.979 25.9474C138.964 25.8941 138.936 25.8449 138.899 25.8034C138.862 25.7619 138.817 25.729 138.766 25.7071C138.714 25.6852 138.659 25.6748 138.604 25.6768H130.257C130.202 25.678 130.149 25.6905 130.099 25.7134C130.05 25.7364 130.005 25.7693 129.969 25.8101C129.933 25.8509 129.905 25.8987 129.888 25.9506C129.871 26.0026 129.865 26.0574 129.87 26.1118V39.8943C129.876 39.9952 129.919 40.0905 129.99 40.1624C130.061 40.2343 130.156 40.2782 130.257 40.2858H138.604C138.704 40.2782 138.799 40.2343 138.87 40.1624C138.941 40.0905 138.984 39.9952 138.991 39.8943V38.6326C138.987 38.5265 138.946 38.4252 138.875 38.3458C138.804 38.2665 138.708 38.2141 138.604 38.1976H132.004V38.4456ZM86.5125 39.9682C86.5188 40.0816 86.5666 40.1887 86.6469 40.2689C86.7272 40.3492 86.8342 40.397 86.9476 40.4033H88.268C88.3269 40.4107 88.3867 40.4046 88.4429 40.3854C88.499 40.3661 88.5501 40.3343 88.592 40.2923C88.634 40.2503 88.6659 40.1993 88.6851 40.1431C88.7043 40.087 88.7105 40.0271 88.703 39.9682V29.8337L97.4367 40.4033C97.4831 40.4975 97.555 40.5768 97.6442 40.6321C97.7334 40.6875 97.8364 40.7168 97.9414 40.7165H98.135C98.1939 40.724 98.2537 40.7178 98.3099 40.6986C98.366 40.6794 98.4171 40.6475 98.459 40.6055C98.501 40.5636 98.5329 40.5125 98.5521 40.4564C98.5713 40.4002 98.5775 40.3404 98.57 40.2815V26.2336C98.5775 26.1747 98.5713 26.1149 98.5521 26.0587C98.5329 26.0026 98.501 25.9515 98.459 25.9096C98.4171 25.8676 98.366 25.8357 98.3099 25.8165C98.2537 25.7973 98.1939 25.7911 98.135 25.7986H96.8168C96.7579 25.7911 96.698 25.7973 96.6419 25.8165C96.5857 25.8357 96.5347 25.8676 96.4927 25.9096C96.4507 25.9515 96.4189 26.0026 96.3997 26.0587C96.3804 26.1149 96.3743 26.1747 96.3817 26.2336V36.0593H96.3056L87.6393 25.7986C87.4436 25.6028 87.3674 25.4853 87.1347 25.4853H86.9389C86.8255 25.4916 86.7185 25.5394 86.6382 25.6197C86.5579 25.7 86.5101 25.807 86.5038 25.9204V39.9748L86.5125 39.9682ZM190.964 39.9682C190.964 40.0836 191.01 40.1943 191.092 40.2759C191.173 40.3575 191.284 40.4033 191.399 40.4033H192.72C192.779 40.4107 192.839 40.4046 192.895 40.3854C192.951 40.3661 193.002 40.3343 193.044 40.2923C193.086 40.2503 193.118 40.1993 193.137 40.1431C193.156 40.087 193.162 40.0271 193.155 39.9682V29.8337L201.967 40.2858C202.015 40.3872 202.093 40.4716 202.19 40.5276C202.287 40.5835 202.399 40.6085 202.511 40.5991H202.704C202.757 40.6055 202.811 40.5998 202.861 40.5823C202.911 40.5649 202.957 40.5361 202.994 40.4983C203.031 40.4605 203.06 40.4146 203.076 40.3642C203.093 40.3138 203.099 40.2602 203.091 40.2075V26.2336C203.1 26.1787 203.096 26.1225 203.08 26.0692C203.064 26.0159 203.037 25.9667 203 25.9252C202.963 25.8837 202.917 25.8508 202.866 25.8289C202.815 25.807 202.76 25.7967 202.704 25.7986H201.329C201.021 25.7986 200.942 25.9943 200.942 26.2336V36.0593H200.825L192.091 25.9204C191.898 25.6855 191.782 25.6071 191.587 25.6071H191.393C191.285 25.6066 191.18 25.6464 191.1 25.7188C191.019 25.7912 190.969 25.891 190.958 25.9987V39.9748L190.964 39.9682ZM72.7714 40.4033C72.8787 40.392 72.9779 40.3412 73.0499 40.2608C73.1218 40.1804 73.1614 40.0761 73.1608 39.9682V38.7544C73.1691 38.6993 73.1652 38.643 73.1493 38.5895C73.1334 38.536 73.1058 38.4867 73.0686 38.4452C73.0314 38.4036 72.9855 38.3708 72.9341 38.349C72.8827 38.3273 72.8271 38.3172 72.7714 38.3194H70.2111V27.7563H72.7714C72.8727 27.7492 72.9679 27.7055 73.0395 27.6336C73.1111 27.5616 73.1542 27.4661 73.1608 27.3648V26.1118C73.1691 26.0567 73.1652 26.0003 73.1493 25.9469C73.1334 25.8934 73.1058 25.8441 73.0686 25.8025C73.0314 25.761 72.9855 25.7281 72.9341 25.7064C72.8827 25.6846 72.8271 25.6745 72.7714 25.6768H65.4756C65.3648 25.6901 65.2617 25.7402 65.1828 25.8191C65.104 25.898 65.0538 26.0011 65.0405 26.1118V27.3648C65.0561 27.4705 65.1081 27.5674 65.1875 27.6389C65.2669 27.7104 65.3688 27.7519 65.4756 27.7563H68.0358V38.4434H65.4756C65.3688 38.4478 65.2669 38.4893 65.1875 38.5608C65.1081 38.6323 65.0561 38.7292 65.0405 38.8349V40.0879C65.0538 40.1986 65.104 40.3017 65.1828 40.3806C65.2617 40.4595 65.3648 40.5096 65.4756 40.5229H72.7714V40.4033ZM179.048 40.4033C179.164 40.4033 179.274 40.3575 179.356 40.2759C179.438 40.1943 179.483 40.0836 179.483 39.9682V38.7544C179.491 38.6955 179.485 38.6357 179.465 38.5795C179.446 38.5234 179.414 38.4724 179.372 38.4304C179.33 38.3884 179.279 38.3566 179.223 38.3373C179.167 38.3181 179.107 38.312 179.048 38.3194H176.486V27.7563H179.048C179.157 27.7569 179.261 27.717 179.342 27.6446C179.422 27.5722 179.473 27.4724 179.483 27.3648V26.1118C179.491 26.0529 179.485 25.9931 179.465 25.9369C179.446 25.8807 179.414 25.8297 179.372 25.7877C179.33 25.7457 179.279 25.7139 179.223 25.6947C179.167 25.6755 179.107 25.6693 179.048 25.6768H171.746C171.641 25.6933 171.545 25.7457 171.474 25.825C171.404 25.9043 171.363 26.0057 171.359 26.1118V27.3648C171.365 27.4657 171.408 27.5609 171.479 27.6329C171.55 27.7048 171.645 27.7487 171.746 27.7563H174.356V38.4434H171.746C171.645 38.451 171.55 38.4949 171.479 38.5668C171.408 38.6387 171.365 38.734 171.359 38.8349V40.0879C171.363 40.194 171.404 40.2954 171.474 40.3747C171.545 40.454 171.641 40.5064 171.746 40.5229H179.044L179.048 40.4033ZM151.451 32.8486V27.7563H155.214C155.548 27.7563 155.879 27.8221 156.188 27.95C156.497 28.0779 156.777 28.2654 157.014 28.5017C157.25 28.7381 157.437 29.0186 157.565 29.3274C157.693 29.6362 157.759 29.9671 157.759 30.3014C157.759 30.6356 157.693 30.9665 157.565 31.2753C157.437 31.5841 157.25 31.8647 157.014 32.101C156.777 32.3373 156.497 32.5248 156.188 32.6527C155.879 32.7806 155.548 32.8464 155.214 32.8464L151.451 32.8486ZM149.393 40.0901C149.397 40.1965 149.438 40.2981 149.51 40.3775C149.581 40.4568 149.677 40.509 149.782 40.5251H151.024C151.083 40.5293 151.141 40.5209 151.196 40.5006C151.25 40.4802 151.3 40.4483 151.341 40.407C151.383 40.3658 151.415 40.3161 151.435 40.2614C151.455 40.2067 151.464 40.1483 151.459 40.0901V34.8063H154.835L157.204 39.9726C157.28 40.2858 157.398 40.4076 157.824 40.4076H159.129C159.203 40.4089 159.275 40.3894 159.337 40.3513C159.4 40.3133 159.45 40.2583 159.483 40.1927C159.515 40.1271 159.529 40.0536 159.521 39.9808C159.514 39.908 159.486 39.8387 159.44 39.7812L156.954 34.4996C157.868 34.201 158.663 33.6176 159.221 32.8347C159.78 32.0518 160.073 31.1107 160.058 30.1491C160.061 29.5557 159.945 28.9678 159.717 28.42C159.489 27.8722 159.153 27.3756 158.73 26.9596C158.307 26.5436 157.805 26.2165 157.253 25.9977C156.702 25.7788 156.112 25.6727 155.518 25.6855H149.898C149.839 25.6812 149.781 25.6896 149.726 25.71C149.672 25.7304 149.622 25.7623 149.581 25.8035C149.539 25.8448 149.507 25.8945 149.487 25.9492C149.467 26.0039 149.458 26.0623 149.463 26.1205V40.0901H149.393ZM210.798 33.1618C210.769 34.1542 210.943 35.1421 211.31 36.0644C211.678 36.9867 212.231 37.8238 212.935 38.5239C213.638 39.2266 214.475 39.7823 215.395 40.1588C216.316 40.5352 217.302 40.7248 218.297 40.7165C220.02 40.7321 221.719 40.3004 223.226 39.4636C223.365 39.4097 223.483 39.3116 223.562 39.1844C223.64 39.0571 223.675 38.9076 223.661 38.7588V33.8666C223.646 33.7608 223.594 33.6636 223.514 33.592C223.435 33.5205 223.333 33.4791 223.226 33.4751H219.423C219.322 33.4822 219.227 33.5258 219.155 33.5978C219.084 33.6698 219.041 33.7653 219.034 33.8666V35.1196C219.034 35.4306 219.112 35.5546 219.423 35.5546H221.479V37.8256C220.54 38.3348 219.481 38.5784 218.414 38.5304C217.005 38.5021 215.664 37.9225 214.677 36.9162C213.691 35.9098 213.138 34.5568 213.138 33.1477C213.138 31.7386 213.691 30.3856 214.677 29.3792C215.664 28.3729 217.005 27.7933 218.414 27.765C219.04 27.7552 219.661 27.8714 220.241 28.1069C220.821 28.3423 221.348 28.6921 221.79 29.1354C222.101 29.4487 222.295 29.3312 222.488 29.1354L223.343 28.2653C223.409 28.1969 223.446 28.1057 223.446 28.0108C223.446 27.9159 223.409 27.8248 223.343 27.7563C221.972 26.4849 220.167 25.7847 218.297 25.7986C216.298 25.7877 214.376 26.5609 212.941 27.9521C212.221 28.6075 211.656 29.4148 211.287 30.3154C210.917 31.2161 210.753 32.1876 210.805 33.1597L210.798 33.1618ZM2.94542 38.4456H9.50384C9.61072 38.4496 9.71281 38.4909 9.79231 38.5625C9.87181 38.634 9.92369 38.7312 9.93889 38.8371V40.0901C9.92593 40.201 9.87593 40.3042 9.79698 40.3832C9.71803 40.4622 9.61474 40.5122 9.50384 40.5251H1.20521C1.14699 40.5293 1.08856 40.5209 1.03386 40.5006C0.979172 40.4802 0.929505 40.4483 0.888235 40.407C0.846965 40.3658 0.81506 40.3161 0.794685 40.2614C0.77431 40.2067 0.765944 40.1483 0.770153 40.0901V26.2336C0.762721 26.1747 0.768857 26.1149 0.788092 26.0587C0.807328 26.0026 0.839153 25.9515 0.881134 25.9096C0.923116 25.8676 0.974142 25.8357 1.03031 25.8165C1.08648 25.7973 1.1463 25.7911 1.20521 25.7986H9.50384C9.61719 25.8048 9.72425 25.8527 9.80452 25.9329C9.8848 26.0132 9.93264 26.1203 9.93889 26.2336V27.4474C9.93264 27.5608 9.8848 27.6678 9.80452 27.7481C9.72425 27.8284 9.61719 27.8762 9.50384 27.8825H2.94542V32.1068H8.49452C8.59942 32.1234 8.69535 32.1758 8.76596 32.2551C8.83656 32.3344 8.87747 32.4358 8.88171 32.5419V33.6774C8.89005 33.7324 8.88618 33.7885 8.87037 33.8418C8.85456 33.8951 8.8272 33.9443 8.79023 33.9858C8.75327 34.0273 8.70761 34.0602 8.6565 34.0821C8.60539 34.104 8.55008 34.1143 8.49452 34.1124H2.94542V38.463V38.4456ZM19.4774 39.9682V25.9182C19.4768 25.8107 19.516 25.7067 19.5875 25.6263C19.659 25.546 19.7577 25.495 19.8646 25.4832H20.0974C20.2013 25.4875 20.3024 25.5187 20.3908 25.5735C20.4792 25.6284 20.552 25.7052 20.602 25.7964L29.3357 35.9353H29.414V26.114C29.414 25.8007 29.5293 25.6789 29.8491 25.6789H31.1695C31.2828 25.6852 31.3899 25.733 31.4702 25.8133C31.5504 25.8936 31.5983 26.0006 31.6045 26.114V40.2075C31.5937 40.3152 31.5431 40.415 31.4627 40.4874C31.3822 40.5598 31.2777 40.5996 31.1695 40.5991H30.9759C30.8692 40.6083 30.7624 40.5828 30.6715 40.5264C30.5805 40.4699 30.5103 40.3855 30.4712 40.2858L21.6201 29.8446V39.9835C21.6207 40.091 21.5815 40.195 21.51 40.2753C21.4385 40.3557 21.3398 40.4067 21.2329 40.4185H19.8668C19.5557 40.4185 19.4796 40.3011 19.4796 39.9835L19.4774 39.9682Z" fill="black"/>
<path d="M2.94577 12.7666V8.3813H5.69966C6.32861 8.33786 6.94948 8.54304 7.4287 8.95269C7.90792 9.36234 8.20718 9.94374 8.26212 10.5718C8.27476 10.8681 8.22472 11.1638 8.11524 11.4395C8.00577 11.7152 7.83934 11.9647 7.62684 12.1717C7.41433 12.3786 7.16054 12.5384 6.88205 12.6406C6.60356 12.7427 6.30664 12.7849 6.01072 12.7645L2.94577 12.7666ZM2.94577 6.54102V2.19049H5.69966C5.99019 2.16343 6.28313 2.20036 6.55786 2.2987C6.83258 2.39704 7.08242 2.55439 7.28978 2.75968C7.49714 2.96497 7.657 3.21322 7.75809 3.48694C7.85919 3.76066 7.89907 4.05321 7.87492 4.344C7.89978 4.63662 7.8607 4.93115 7.7604 5.20717C7.66009 5.48318 7.50095 5.73408 7.29402 5.94246C7.08708 6.15084 6.83731 6.31172 6.562 6.41395C6.28669 6.51618 5.99244 6.55731 5.69966 6.53449L2.94577 6.54102ZM0.770508 14.4111C0.781329 14.5188 0.8319 14.6186 0.912345 14.691C0.992791 14.7634 1.09733 14.8032 1.20556 14.8027H6.01072C6.57894 14.8722 7.15545 14.8194 7.70159 14.6478C8.24774 14.4763 8.75089 14.19 9.17732 13.808C9.60374 13.4261 9.94357 12.9574 10.174 12.4334C10.4045 11.9094 10.5202 11.3421 10.5135 10.7697C10.4793 10.0096 10.216 9.27752 9.75836 8.66962C9.30068 8.06171 8.66994 7.60635 7.94888 7.36327C8.55805 7.09425 9.08243 6.66436 9.46568 6.11976C9.84893 5.57516 10.0766 4.93645 10.1241 4.27222C10.1448 3.7116 10.0457 3.15301 9.83326 2.63376C9.62086 2.11452 9.30013 1.64656 8.89247 1.26115C8.48482 0.87573 7.99963 0.581723 7.4693 0.398755C6.93897 0.215787 6.37571 0.14807 5.81712 0.200126H1.20556C1.09221 0.20638 0.98515 0.254223 0.904877 0.334496C0.824605 0.414768 0.776761 0.521827 0.770508 0.635177L0.770508 14.4155V14.4111ZM44.0104 7.1675V2.19702H47.815C48.1482 2.17634 48.4821 2.22532 48.7954 2.34083C49.1087 2.45634 49.3944 2.63586 49.6345 2.86793C49.8746 3.10001 50.0636 3.37955 50.1897 3.68875C50.3157 3.99794 50.3759 4.33001 50.3665 4.66377C50.3962 5.00495 50.3499 5.34847 50.2309 5.66961C50.1119 5.99074 49.9232 6.2815 49.6783 6.52094C49.4335 6.76039 49.1386 6.94257 48.8149 7.05437C48.4912 7.16616 48.1467 7.2048 47.8062 7.1675H44.0104ZM41.8351 14.4111C41.8504 14.517 41.9022 14.6142 41.9817 14.6857C42.0612 14.7573 42.1633 14.7987 42.2702 14.8027H43.5123C43.5652 14.8095 43.619 14.804 43.6695 14.7867C43.72 14.7694 43.7659 14.7407 43.8035 14.7029C43.8411 14.665 43.8696 14.619 43.8866 14.5685C43.9036 14.5179 43.9088 14.464 43.9016 14.4111V9.12523H47.3212L49.6879 14.2937C49.7662 14.6069 49.8815 14.7287 50.2708 14.7287H51.6282C51.7014 14.73 51.7735 14.7105 51.8361 14.6724C51.8986 14.6344 51.9491 14.5794 51.9817 14.5138C52.0143 14.4482 52.0275 14.3747 52.02 14.3019C52.0125 14.229 51.9845 14.1598 51.9393 14.1022L49.379 8.81635C50.2823 8.54494 51.0715 7.98435 51.6253 7.22074C52.179 6.45713 52.4666 5.53279 52.4439 4.58981C52.4505 3.99777 52.3378 3.41047 52.1126 2.86289C51.8874 2.31532 51.5543 1.81867 51.1331 1.40256C50.712 0.986442 50.2113 0.659373 49.661 0.440834C49.1108 0.222295 48.5222 0.116761 47.9302 0.130519H42.2637C42.2083 0.122094 42.1518 0.126051 42.0982 0.142107C42.0445 0.158163 41.9951 0.185917 41.9535 0.223369C41.9119 0.260821 41.8791 0.307037 41.8575 0.358688C41.8359 0.410339 41.8261 0.466137 41.8286 0.522063V14.4198L41.8351 14.4111ZM63.5334 7.55904C63.5211 6.12987 64.0733 4.75357 65.07 3.7292C66.0667 2.70483 67.4273 2.11514 68.8563 2.08826C69.5701 2.08837 70.2768 2.23108 70.9347 2.50802C71.5927 2.78496 72.1887 3.19054 72.6878 3.70096C73.1869 4.21138 73.5789 4.81635 73.841 5.48036C74.1031 6.14438 74.2299 6.85406 74.214 7.56774C74.2311 8.27783 74.1045 8.98404 73.8418 9.64396C73.5791 10.3039 73.1857 10.9039 72.6853 11.408C72.1849 11.9121 71.5877 12.3098 70.9297 12.5773C70.2717 12.8448 69.5665 12.9765 68.8563 12.9646C68.1513 12.9626 67.4538 12.8209 66.8039 12.5476C66.1541 12.2743 65.565 11.8748 65.0706 11.3723C64.5761 10.8698 64.1863 10.2742 63.9236 9.62005C63.6608 8.96588 63.5304 8.26611 63.5399 7.56122L63.5334 7.55904ZM61.4756 7.55904C61.442 8.55786 61.6141 9.55291 61.9812 10.4824C62.3483 11.4119 62.9025 12.2561 63.6095 12.9624C65.0447 14.3539 66.9683 15.1271 68.9672 15.1159C69.9437 15.1515 70.9166 14.9777 71.8204 14.6063C72.7242 14.2349 73.5381 13.6744 74.2074 12.9624C75.5783 11.5054 76.3417 9.58026 76.3417 7.57971C76.3417 5.57916 75.5783 3.654 74.2074 2.19702C73.5356 1.48572 72.7222 0.923097 71.8197 0.545434C70.9171 0.167771 69.9454 -0.0165492 68.9672 0.00435229C67.9744 -0.00872725 66.9892 0.178219 66.0702 0.554047C65.1512 0.929876 64.3173 1.48689 63.6182 2.19189C62.9191 2.89689 62.3691 3.73543 62.001 4.65753C61.6329 5.57963 61.4542 6.56641 61.4756 7.55904ZM86.3171 14.4111C86.3279 14.5188 86.3785 14.6186 86.459 14.691C86.5394 14.7634 86.644 14.8032 86.7522 14.8027H88.0726C88.1795 14.7987 88.2815 14.7573 88.361 14.6857C88.4405 14.6142 88.4924 14.517 88.5076 14.4111V8.30299H96.3103V14.4111C96.3168 14.5121 96.3596 14.6073 96.4307 14.6793C96.5019 14.7512 96.5966 14.795 96.6975 14.8027H98.057C98.1579 14.795 98.2526 14.7512 98.3238 14.6793C98.3949 14.6073 98.4377 14.5121 98.4442 14.4111V0.630829C98.44 0.524714 98.3991 0.423352 98.3285 0.344022C98.2579 0.264691 98.1619 0.212299 98.057 0.195774H96.6975C96.3864 0.195774 96.3103 0.430704 96.3103 0.630829V6.42356H88.4924V0.630829C88.4794 0.519926 88.4294 0.416639 88.3505 0.337686C88.2715 0.258733 88.1682 0.208732 88.0573 0.195774H86.737C86.6236 0.202028 86.5165 0.249871 86.4363 0.330143C86.356 0.410416 86.3082 0.517478 86.3019 0.630829V14.4111H86.3171ZM111.585 9.83002L114.03 4.15475H114.147L116.712 9.83002H111.585ZM110.771 11.592H117.515L118.874 14.5286C118.897 14.612 118.948 14.6849 119.019 14.7348C119.09 14.7848 119.175 14.8088 119.262 14.8027H120.628C120.939 14.8027 121.132 14.6069 120.939 14.2937L114.77 0.435055C114.654 0.121816 114.461 0 114.265 0H114.15C113.956 0 113.839 0.117466 113.76 0.435055L107.358 14.2937C107.282 14.6069 107.358 14.8027 107.794 14.8027H109.099C109.207 14.8207 109.318 14.8038 109.415 14.7545C109.513 14.7052 109.593 14.6261 109.642 14.5286L110.769 11.592H110.771ZM131.808 7.48074V2.19702H135.302C135.641 2.19496 135.977 2.26055 136.29 2.38996C136.603 2.51937 136.888 2.71 137.126 2.95067C137.365 3.19134 137.553 3.47721 137.68 3.79154C137.807 4.10587 137.869 4.44234 137.864 4.78123C137.881 5.12864 137.827 5.47585 137.706 5.80191C137.585 6.12796 137.399 6.42611 137.16 6.67837C136.92 6.93063 136.632 7.13178 136.313 7.26968C135.994 7.40758 135.65 7.47938 135.302 7.48074H131.808ZM131.808 9.55594H135.506C136.722 9.51886 137.876 9.00987 138.722 8.13684C139.569 7.26381 140.043 6.09536 140.043 4.87912C140.043 3.66287 139.569 2.49443 138.722 1.6214C137.876 0.748373 136.722 0.239383 135.506 0.2023H130.179C130.068 0.215258 129.965 0.265259 129.886 0.344212C129.807 0.423166 129.757 0.526453 129.744 0.637355V14.5351C129.759 14.641 129.811 14.7382 129.891 14.8097C129.97 14.8813 130.072 14.9227 130.179 14.9267H131.504C131.559 14.9351 131.616 14.9311 131.669 14.9151C131.723 14.899 131.772 14.8713 131.814 14.8338C131.856 14.7964 131.888 14.7501 131.91 14.6985C131.932 14.6468 131.942 14.591 131.939 14.5351V9.55594H131.808ZM194.262 12.7666V0.630829C194.256 0.51764 194.208 0.410843 194.128 0.330666C194.047 0.250489 193.941 0.202495 193.827 0.195774H192.509C192.451 0.191929 192.393 0.200546 192.338 0.22105C192.284 0.241553 192.234 0.273472 192.193 0.314663C192.152 0.355855 192.12 0.405372 192.099 0.459899C192.079 0.514425 192.07 0.572702 192.074 0.630829V14.5286C192.089 14.6345 192.141 14.7316 192.221 14.8032C192.3 14.8747 192.402 14.9161 192.509 14.9201H201.243C201.344 14.9125 201.438 14.8687 201.51 14.7967C201.581 14.7248 201.624 14.6296 201.63 14.5286V13.2756C201.631 13.1681 201.592 13.0641 201.52 12.9838C201.448 12.9034 201.35 12.8524 201.243 12.8406H194.265L194.262 12.7666ZM213.359 12.7666V2.19702H216.122C216.823 2.1626 217.523 2.27606 218.177 2.53001C218.832 2.78396 219.425 3.17272 219.919 3.67103C220.414 4.16935 220.797 4.76607 221.046 5.42242C221.294 6.07877 221.402 6.78006 221.362 7.48074C221.407 8.18275 221.303 8.88641 221.057 9.54524C220.81 10.2041 220.426 10.8031 219.931 11.3027C219.436 11.8022 218.84 12.1911 218.183 12.4434C217.527 12.6958 216.824 12.8059 216.122 12.7666H213.359ZM211.301 14.4111C211.312 14.5188 211.363 14.6186 211.443 14.691C211.524 14.7634 211.628 14.8032 211.736 14.8027H216.435C217.402 14.8261 218.363 14.6525 219.26 14.2925C220.158 13.9324 220.973 13.3935 221.655 12.7085C222.338 12.0236 222.874 11.2068 223.231 10.3081C223.587 9.40932 223.758 8.44735 223.731 7.48074C223.752 6.51295 223.574 5.55112 223.207 4.65543C222.84 3.75974 222.292 2.94948 221.597 2.27533C220.922 1.59227 220.118 1.05013 219.232 0.680434C218.346 0.310738 217.395 0.120851 216.435 0.121814H211.736C211.628 0.121272 211.524 0.161092 211.443 0.233493C211.363 0.305893 211.312 0.405677 211.301 0.513363V14.4111ZM151.218 7.48074V2.19702H154.712C155.051 2.19495 155.386 2.26056 155.7 2.39C156.013 2.51943 156.297 2.71009 156.535 2.95079C156.774 3.19149 156.962 3.47739 157.088 3.79171C157.215 4.10603 157.277 4.44244 157.272 4.78123C157.289 5.12853 157.236 5.47569 157.115 5.80174C156.994 6.12779 156.808 6.42596 156.569 6.67826C156.33 6.93056 156.042 7.13174 155.723 7.26967C155.403 7.40759 155.06 7.47939 154.712 7.48074H151.218ZM151.218 9.55594H154.916C156.132 9.51886 157.285 9.00987 158.132 8.13684C158.979 7.26381 159.453 6.09536 159.453 4.87912C159.453 3.66287 158.979 2.49443 158.132 1.6214C157.285 0.748373 156.132 0.239383 154.916 0.2023H149.587C149.476 0.215258 149.373 0.265259 149.294 0.344212C149.215 0.423166 149.165 0.526453 149.152 0.637355V14.5351C149.167 14.641 149.219 14.7382 149.298 14.8097C149.378 14.8813 149.48 14.9227 149.587 14.9267H150.907C150.963 14.9351 151.019 14.9311 151.073 14.9151C151.126 14.899 151.176 14.8713 151.217 14.8338C151.259 14.7964 151.292 14.7501 151.313 14.6985C151.335 14.6468 151.345 14.591 151.342 14.5351V9.55594H151.218ZM169.926 7.55904C169.913 6.1306 170.465 4.75495 171.461 3.7307C172.456 2.70645 173.816 2.11627 175.244 2.08826C175.958 2.08837 176.665 2.23108 177.323 2.50802C177.981 2.78496 178.577 3.19054 179.076 3.70096C179.575 4.21138 179.967 4.81635 180.229 5.48036C180.491 6.14438 180.618 6.85406 180.602 7.56774C180.616 8.27768 180.489 8.98334 180.227 9.6434C179.965 10.3035 179.574 10.9047 179.077 11.4118C178.58 11.919 177.987 12.3218 177.332 12.5969C176.678 12.8719 175.975 13.0136 175.265 13.0136C174.555 13.0136 173.852 12.8719 173.197 12.5969C172.542 12.3218 171.949 11.919 171.452 11.4118C170.955 10.9047 170.564 10.3035 170.303 9.6434C170.041 8.98334 169.913 8.27768 169.928 7.56774L169.926 7.55904ZM167.75 7.55904C167.724 8.56064 167.903 9.55703 168.277 10.4865C168.651 11.4159 169.212 12.2587 169.926 12.9624C171.349 14.3459 173.257 15.1186 175.242 15.1159C176.219 15.1586 177.194 14.988 178.099 14.6162C179.004 14.2443 179.817 13.68 180.482 12.9624C181.876 11.5173 182.655 9.58767 182.655 7.57971C182.655 5.57175 181.876 3.64211 180.482 2.19702C179.813 1.48244 179 0.917627 178.097 0.539713C177.194 0.161799 176.221 -0.020653 175.242 0.00435229C174.252 -0.017167 173.269 0.166555 172.354 0.543936C171.439 0.921318 170.612 1.48417 169.926 2.19702C168.523 3.62842 167.741 5.55507 167.75 7.55904ZM19.8672 0.200126C19.7622 0.216651 19.6663 0.269043 19.5957 0.348374C19.5251 0.427705 19.4842 0.529062 19.48 0.635177V8.93381C19.4277 9.73505 19.5441 10.5383 19.8217 11.2917C20.0994 12.0452 20.532 12.7319 21.0918 13.3076C21.6515 13.8833 22.3258 14.3351 23.0711 14.6339C23.8163 14.9326 24.616 15.0717 25.4184 15.042C26.2283 15.0804 27.0372 14.9483 27.7927 14.6542C28.5482 14.3601 29.2336 13.9106 29.8043 13.3348C30.375 12.7589 30.8184 12.0696 31.1057 11.3115C31.393 10.5533 31.5179 9.74328 31.4722 8.93381V0.630829C31.4679 0.524714 31.427 0.423352 31.3564 0.344022C31.2858 0.264691 31.1899 0.212299 31.085 0.195774H29.7276C29.6223 0.211841 29.5259 0.264034 29.4548 0.343408C29.3838 0.422781 29.3426 0.524395 29.3383 0.630829V8.812C29.3953 9.35095 29.3352 9.89588 29.1619 10.4094C28.9886 10.9229 28.7064 11.3929 28.3345 11.7871C27.9625 12.1814 27.5098 12.4905 27.0072 12.6934C26.5046 12.8962 25.9641 12.988 25.4228 12.9624C24.8744 12.9804 24.3287 12.8791 23.8233 12.6654C23.3179 12.4518 22.865 12.131 22.4957 11.7252C22.1265 11.3193 21.8498 10.8381 21.6848 10.3149C21.5198 9.79162 21.4703 9.23877 21.5399 8.69453V0.513363C21.5247 0.40749 21.4729 0.310313 21.3934 0.238762C21.3139 0.16721 21.2118 0.125821 21.1049 0.121814H19.8672V0.200126Z" fill="black"/>
</g>
</svg>
