<svg width="179" height="65" viewBox="0 0 179 65" fill="none" xmlns="http://www.w3.org/2000/svg">
<g opacity="0.7">
<path d="M108.723 26.4392C108.729 26.8582 108.665 27.2753 108.535 27.6738C108.419 28.0267 108.244 28.3573 108.017 28.6518C107.795 28.9369 107.527 29.1842 107.226 29.3842C106.91 29.5932 106.57 29.7624 106.213 29.8881C105.83 30.0231 105.435 30.1206 105.033 30.1791C104.57 30.2448 104.102 30.2762 103.634 30.273H100.235C100.035 30.2793 99.84 30.2106 99.6878 30.0805C99.6068 29.999 99.5448 29.9007 99.5061 29.7925C99.4674 29.6843 99.4531 29.569 99.464 29.4546V18.3067C99.4531 18.1923 99.4674 18.077 99.5061 17.9688C99.5448 17.8606 99.6068 17.7623 99.6878 17.6808C99.84 17.5507 100.035 17.482 100.235 17.4883H103.447C104.116 17.4764 104.784 17.5426 105.439 17.6855C105.93 17.7949 106.396 17.9978 106.811 18.2832C107.177 18.5428 107.471 18.8912 107.665 19.2957C107.873 19.7477 107.975 20.2412 107.963 20.7385C107.965 21.0342 107.925 21.3288 107.844 21.6132C107.695 22.1458 107.378 22.6157 106.939 22.9527C106.71 23.1286 106.455 23.2684 106.183 23.3674C106.534 23.4292 106.872 23.5459 107.186 23.7132C107.49 23.8751 107.762 24.0909 107.988 24.3501C108.221 24.6205 108.403 24.9306 108.526 25.2655C108.662 25.6416 108.729 26.0393 108.723 26.4392ZM105.363 21.053C105.367 20.817 105.327 20.5825 105.245 20.3613C105.171 20.1645 105.049 19.9895 104.889 19.8528C104.714 19.7084 104.51 19.6019 104.292 19.5398C103.977 19.4589 103.652 19.4226 103.328 19.4318H102.013V22.7524H103.467C103.772 22.7634 104.077 22.7177 104.365 22.6178C104.576 22.5384 104.766 22.414 104.924 22.2532C105.072 22.0977 105.185 21.912 105.255 21.7087C105.328 21.4977 105.365 21.2761 105.363 21.053ZM106.025 26.5299C106.03 26.2572 105.98 25.9864 105.878 25.7334C105.783 25.5056 105.633 25.3043 105.443 25.1466C105.227 24.9756 104.978 24.851 104.711 24.7804C104.334 24.685 103.945 24.6418 103.556 24.6521H102.013V28.2888H103.891C104.2 28.2961 104.508 28.2576 104.805 28.1746C105.039 28.1059 105.258 27.9916 105.448 27.8381C105.63 27.6894 105.775 27.5003 105.872 27.2857C105.978 27.0477 106.031 26.7891 106.025 26.5284V26.5299Z" fill="black"/>
<path d="M119.02 29.9368C119.021 29.9982 119.004 30.0586 118.971 30.1104C118.926 30.1672 118.866 30.2101 118.798 30.2341C118.692 30.2716 118.583 30.2963 118.472 30.3076C118.303 30.3263 118.132 30.3346 117.962 30.3327C117.785 30.3349 117.609 30.3266 117.433 30.3076C117.326 30.2963 117.221 30.2716 117.12 30.2341C117.053 30.2102 116.994 30.1672 116.951 30.1104C116.918 30.0587 116.9 29.9983 116.901 29.9368V28.9196C116.477 29.3969 115.974 29.7981 115.414 30.1058C114.933 30.3629 114.396 30.4982 113.85 30.5001C113.325 30.5165 112.804 30.4154 112.324 30.2043C111.929 30.0213 111.586 29.7427 111.325 29.3938C111.066 29.0374 110.881 28.6324 110.781 28.2029C110.664 27.649 110.612 27.0835 110.624 26.5176V21.1236C110.624 21.0613 110.643 21.0004 110.679 20.9499C110.731 20.8902 110.8 20.8472 110.876 20.8263C111.002 20.7871 111.132 20.7625 111.263 20.7527C111.662 20.7193 112.064 20.7193 112.463 20.7527C112.592 20.7629 112.72 20.7875 112.843 20.8263C112.921 20.8482 112.991 20.8909 113.045 20.9499C113.085 20.9989 113.106 21.0605 113.105 21.1236V26.1029C113.095 26.4577 113.125 26.8126 113.194 27.1607C113.245 27.3844 113.337 27.5967 113.466 27.7867C113.586 27.9595 113.747 28.099 113.936 28.192C114.14 28.2907 114.365 28.3396 114.591 28.3344C114.938 28.3246 115.273 28.2033 115.546 27.9885C115.928 27.6973 116.271 27.3587 116.568 26.9808V21.1236C116.567 21.0613 116.586 21.0004 116.622 20.9499C116.675 20.8909 116.744 20.848 116.82 20.8263C116.943 20.7875 117.071 20.7629 117.2 20.7527C117.601 20.7193 118.005 20.7193 118.406 20.7527C118.534 20.7625 118.66 20.7871 118.782 20.8263C118.858 20.8489 118.926 20.8916 118.979 20.9499C119.018 20.9993 119.039 21.0606 119.039 21.1236L119.02 29.9368Z" fill="black"/>
<path d="M124.198 18.1395C124.218 18.3246 124.2 18.5118 124.147 18.69C124.093 18.8683 124.004 19.0339 123.885 19.177C123.536 19.3635 123.147 19.4618 122.752 19.4634C122.357 19.465 121.967 19.3699 121.617 19.1864C121.505 19.0474 121.422 18.8876 121.372 18.7163C121.322 18.545 121.307 18.3654 121.326 18.1881C121.286 17.8147 121.394 17.4403 121.627 17.1459C121.974 16.9565 122.363 16.8565 122.759 16.8549C123.155 16.8532 123.545 16.95 123.894 17.1365C124.009 17.275 124.095 17.4351 124.147 17.6074C124.199 17.7796 124.217 17.9606 124.198 18.1395ZM124.01 29.9368C124.011 29.9998 123.99 30.0612 123.95 30.1105C123.896 30.1695 123.826 30.2123 123.749 30.2342C123.624 30.2723 123.496 30.297 123.367 30.3077C122.966 30.3411 122.563 30.3411 122.162 30.3077C122.033 30.2968 121.905 30.2722 121.782 30.2342C121.704 30.2123 121.634 30.1695 121.58 30.1105C121.541 30.0612 121.52 29.9998 121.52 29.9368V21.1487C121.519 21.0862 121.54 21.0253 121.58 20.9766C121.634 20.9165 121.704 20.8722 121.782 20.8483C121.905 20.8052 122.032 20.7768 122.162 20.7638C122.563 20.7241 122.966 20.7241 123.367 20.7638C123.497 20.7767 123.625 20.805 123.749 20.8483C123.826 20.8722 123.896 20.9165 123.95 20.9766C123.99 21.0253 124.011 21.0862 124.01 21.1487V29.9368Z" fill="black"/>
<path d="M128.98 29.9367C128.981 29.9997 128.96 30.061 128.92 30.1104C128.866 30.1691 128.796 30.2118 128.719 30.2341C128.594 30.2722 128.466 30.2968 128.337 30.3076C127.936 30.341 127.533 30.341 127.132 30.3076C127.003 30.2967 126.875 30.2721 126.752 30.2341C126.674 30.2121 126.604 30.1694 126.55 30.1104C126.51 30.0614 126.489 29.9999 126.49 29.9367V16.9486C126.489 16.8841 126.51 16.8211 126.55 16.7702C126.603 16.7075 126.673 16.6614 126.752 16.6372C126.875 16.5948 127.002 16.5665 127.132 16.5527C127.533 16.513 127.936 16.513 128.337 16.5527C128.467 16.5663 128.595 16.5947 128.719 16.6372C128.797 16.6619 128.867 16.7079 128.92 16.7702C128.96 16.8214 128.98 16.8842 128.98 16.9486V29.9367Z" fill="black"/>
<path d="M139.819 29.9367C139.821 30.0012 139.805 30.065 139.77 30.1198C139.727 30.1767 139.669 30.2197 139.601 30.2434C139.501 30.2812 139.396 30.3044 139.288 30.3123C139.123 30.3274 138.956 30.3342 138.789 30.3326C138.618 30.3345 138.447 30.3278 138.276 30.3123C138.166 30.3044 138.057 30.2813 137.954 30.2434C137.884 30.2196 137.823 30.1768 137.777 30.1198C137.739 30.0663 137.72 30.0021 137.722 29.9367V28.9587C137.312 29.4127 136.829 29.7965 136.295 30.0948C135.786 30.3679 135.217 30.5074 134.639 30.5001C134.047 30.519 133.46 30.3848 132.935 30.1104C132.477 29.8562 132.087 29.4949 131.799 29.0573C131.493 28.5856 131.277 28.0615 131.161 27.5112C131.027 26.8996 130.961 26.2751 130.964 25.6491C130.954 24.9359 131.039 24.2245 131.215 23.5334C131.36 22.9586 131.609 22.4157 131.953 21.9326C132.265 21.5003 132.679 21.1511 133.157 20.9154C133.676 20.6706 134.244 20.549 134.818 20.5602C135.283 20.554 135.742 20.6569 136.16 20.8607C136.603 21.0917 137.007 21.3899 137.357 21.7448V16.972C137.357 16.9091 137.376 16.8475 137.411 16.7952C137.462 16.7326 137.531 16.6863 137.608 16.6622C137.731 16.619 137.859 16.5906 137.99 16.5777C138.39 16.5381 138.794 16.5381 139.195 16.5777C139.323 16.5903 139.449 16.6187 139.57 16.6622C139.647 16.6872 139.715 16.7333 139.767 16.7952C139.807 16.8456 139.828 16.908 139.827 16.972L139.819 29.9367ZM137.35 24.0482C137.055 23.6619 136.711 23.3162 136.326 23.0201C136.033 22.7938 135.673 22.6691 135.303 22.6649C135.007 22.6569 134.715 22.7411 134.469 22.9059C134.23 23.0721 134.037 23.2946 133.905 23.5538C133.759 23.839 133.654 24.1435 133.592 24.4582C133.523 24.7944 133.489 25.1368 133.489 25.4801C133.489 25.8413 133.518 26.2019 133.577 26.5582C133.628 26.8837 133.726 27.2 133.868 27.4971C133.992 27.7566 134.177 27.9821 134.408 28.1544C134.656 28.3273 134.955 28.4141 135.257 28.4016C135.427 28.4018 135.595 28.377 135.757 28.3281C135.932 28.2714 136.099 28.1897 136.251 28.0855C136.438 27.9572 136.612 27.8098 136.769 27.6458C136.947 27.4643 137.142 27.2421 137.353 26.9792L137.35 24.0482Z" fill="black"/>
<path d="M144.997 18.1395C145.017 18.3246 145 18.5118 144.946 18.69C144.892 18.8683 144.803 19.0339 144.684 19.177C144.336 19.3635 143.947 19.4618 143.552 19.4634C143.156 19.465 142.767 19.3699 142.417 19.1864C142.305 19.0474 142.221 18.8876 142.171 18.7163C142.121 18.545 142.106 18.3654 142.126 18.1881C142.085 17.8147 142.193 17.4403 142.426 17.1459C142.774 16.9565 143.163 16.8565 143.559 16.8549C143.954 16.8532 144.344 16.95 144.693 17.1365C144.808 17.275 144.894 17.4351 144.947 17.6074C144.999 17.7796 145.016 17.9606 144.997 18.1395ZM144.817 29.9368C144.818 29.9998 144.797 30.0612 144.758 30.1105C144.703 30.1695 144.633 30.2123 144.556 30.2342C144.431 30.2723 144.303 30.297 144.174 30.3077C143.773 30.3411 143.37 30.3411 142.969 30.3077C142.84 30.2968 142.713 30.2722 142.589 30.2342C142.511 30.2123 142.442 30.1695 142.387 30.1105C142.348 30.0612 142.327 29.9998 142.327 29.9368V21.1487C142.327 21.0862 142.348 21.0253 142.387 20.9766C142.441 20.9165 142.511 20.8722 142.589 20.8483C142.712 20.8052 142.839 20.7768 142.969 20.7638C143.37 20.7241 143.773 20.7241 144.174 20.7638C144.304 20.7767 144.432 20.805 144.556 20.8483C144.633 20.8722 144.703 20.9165 144.758 20.9766C144.797 21.0253 144.818 21.0862 144.817 21.1487V29.9368Z" fill="black"/>
<path d="M155.709 29.9368C155.71 29.9999 155.689 30.0615 155.649 30.1105C155.596 30.1688 155.528 30.2115 155.452 30.2341C155.329 30.2728 155.201 30.2974 155.072 30.3077C154.873 30.3263 154.674 30.3346 154.474 30.3327C154.272 30.3348 154.069 30.3265 153.867 30.3077C153.737 30.2976 153.609 30.2729 153.485 30.2341C153.41 30.2111 153.342 30.1685 153.288 30.1105C153.249 30.0611 153.228 29.9998 153.229 29.9368V24.9043C153.238 24.5659 153.206 24.2275 153.135 23.8966C153.081 23.6741 152.989 23.4624 152.864 23.2706C152.748 23.0986 152.589 22.9591 152.404 22.8653C152.199 22.7664 151.974 22.7175 151.747 22.7229C151.398 22.7335 151.062 22.8546 150.788 23.0688C150.407 23.3565 150.067 23.6956 149.78 24.0765V29.9353C149.781 29.9984 149.76 30.06 149.72 30.109C149.666 30.1679 149.596 30.2107 149.518 30.2326C149.395 30.2706 149.267 30.2952 149.138 30.3061C148.737 30.3395 148.333 30.3395 147.932 30.3061C147.803 30.2953 147.676 30.2706 147.553 30.2326C147.475 30.211 147.405 30.1682 147.35 30.109C147.31 30.0596 147.289 29.9983 147.29 29.9353V21.1237C147.289 21.0623 147.306 21.0019 147.339 20.95C147.385 20.8924 147.447 20.8495 147.517 20.8263C147.624 20.7883 147.736 20.7636 147.849 20.7528C148.018 20.734 148.187 20.7257 148.357 20.7278C148.532 20.7257 148.707 20.734 148.882 20.7528C148.991 20.7619 149.099 20.7867 149.202 20.8263C149.265 20.8525 149.319 20.8952 149.359 20.95C149.392 21.0017 149.41 21.0621 149.409 21.1237V22.1408C149.833 21.6635 150.336 21.2624 150.895 20.9547C151.381 20.6965 151.922 20.5611 152.471 20.5603C152.993 20.5445 153.512 20.6456 153.989 20.8561C154.382 21.0394 154.724 21.3161 154.986 21.662C155.247 22.018 155.434 22.423 155.535 22.8528C155.656 23.3909 155.712 23.9414 155.703 24.4928L155.709 29.9368Z" fill="black"/>
<path d="M166.099 21.7354C166.113 21.9747 166.076 22.2142 165.99 22.438C165.918 22.5945 165.833 22.6649 165.724 22.6649H164.686C164.83 22.8188 164.937 23.0027 164.999 23.2033C165.062 23.4059 165.094 23.617 165.093 23.8292C165.102 24.2978 165.014 24.7632 164.837 25.1969C164.672 25.5856 164.42 25.931 164.1 26.2062C163.761 26.4916 163.367 26.7046 162.943 26.8321C162.455 26.9797 161.947 27.0515 161.436 27.0449C161.163 27.0462 160.89 27.0115 160.626 26.9416C160.417 26.8927 160.217 26.8108 160.034 26.6991C159.95 26.7934 159.878 26.8987 159.821 27.0121C159.758 27.1337 159.726 27.2692 159.727 27.4064C159.727 27.4995 159.749 27.5913 159.793 27.6733C159.838 27.7553 159.901 27.825 159.979 27.8759C160.19 28.0106 160.435 28.0813 160.685 28.0793L162.829 28.1575C163.283 28.1699 163.733 28.2415 164.168 28.3703C164.528 28.4753 164.864 28.6496 165.157 28.8836C165.419 29.0992 165.629 29.3716 165.769 29.6801C165.916 30.0126 165.989 30.373 165.982 30.7364C165.984 31.1636 165.886 31.5853 165.696 31.9679C165.494 32.366 165.199 32.7096 164.837 32.9694C164.401 33.2779 163.914 33.5058 163.399 33.6423C162.739 33.8173 162.059 33.9005 161.377 33.8895C160.732 33.8997 160.087 33.8399 159.455 33.7111C158.996 33.6202 158.556 33.453 158.152 33.2166C157.841 33.0364 157.584 32.7752 157.41 32.4608C157.254 32.1641 157.175 31.8335 157.178 31.4985C157.177 31.287 157.204 31.0762 157.261 30.8725C157.319 30.6733 157.402 30.4823 157.509 30.3045C157.622 30.1169 157.757 29.9426 157.909 29.785C158.077 29.614 158.259 29.457 158.452 29.3155C158.182 29.1763 157.956 28.9649 157.799 28.705C157.642 28.445 157.561 28.1466 157.563 27.843C157.559 27.4716 157.651 27.1055 157.831 26.7805C158.012 26.4564 158.245 26.1645 158.521 25.9167C158.285 25.678 158.097 25.3958 157.969 25.0857C157.819 24.7021 157.749 24.2923 157.76 23.8808C157.752 23.4072 157.845 22.9372 158.033 22.5022C158.205 22.108 158.463 21.7573 158.789 21.4757C159.127 21.1863 159.52 20.9676 159.945 20.8325C160.424 20.6794 160.924 20.6043 161.427 20.6103C161.693 20.6094 161.958 20.6256 162.222 20.6588C162.46 20.6897 162.697 20.7362 162.929 20.7981H165.725C165.837 20.7981 165.927 20.8701 165.996 21.0156C166.079 21.2461 166.114 21.491 166.099 21.7354ZM163.486 30.8506C163.492 30.7156 163.462 30.5814 163.399 30.4617C163.337 30.3419 163.244 30.2407 163.129 30.1683C162.834 29.9934 162.495 29.9045 162.151 29.9117L160.383 29.8616C160.234 29.9668 160.096 30.088 159.973 30.2231C159.881 30.3252 159.798 30.4358 159.726 30.5533C159.667 30.6495 159.625 30.7554 159.602 30.8663C159.581 30.9693 159.572 31.0742 159.573 31.1792C159.572 31.3397 159.619 31.4968 159.708 31.6304C159.797 31.7641 159.924 31.8685 160.072 31.9303C160.515 32.1233 160.997 32.2111 161.48 32.187C161.8 32.1935 162.119 32.155 162.428 32.0727C162.654 32.013 162.867 31.9111 163.054 31.7723C163.199 31.662 163.314 31.5173 163.389 31.3514C163.456 31.193 163.489 31.0224 163.486 30.8506ZM162.903 23.8088C162.915 23.6072 162.886 23.4052 162.818 23.2151C162.75 23.0249 162.644 22.8505 162.507 22.7025C162.357 22.565 162.181 22.4593 161.989 22.3915C161.797 22.3237 161.594 22.2954 161.391 22.3082C161.171 22.3031 160.952 22.3453 160.749 22.4318C160.573 22.5072 160.415 22.6217 160.289 22.7667C160.166 22.9113 160.073 23.0795 160.017 23.2611C159.957 23.4515 159.927 23.65 159.928 23.8495C159.918 24.0443 159.948 24.239 160.016 24.4217C160.084 24.6044 160.189 24.7713 160.324 24.9121C160.471 25.0469 160.644 25.1508 160.832 25.2178C161.02 25.2847 161.22 25.3132 161.419 25.3017C161.642 25.307 161.864 25.2666 162.072 25.1828C162.247 25.1104 162.404 24.9991 162.53 24.8573C162.653 24.7172 162.747 24.5545 162.807 24.3784C162.869 24.1987 162.902 24.01 162.903 23.8198V23.8088Z" fill="black"/>
<path d="M107.044 41.878C107.057 42.4885 106.929 43.0938 106.669 43.6462C106.429 44.141 106.081 44.5753 105.65 44.9169C105.204 45.2661 104.694 45.526 104.149 45.6821C103.552 45.8575 102.933 45.9445 102.31 45.9403C101.898 45.9424 101.486 45.9057 101.081 45.8307C100.74 45.7686 100.405 45.6813 100.077 45.5694C99.8262 45.4842 99.5831 45.3763 99.3514 45.2471C99.1991 45.1667 99.0577 45.0673 98.9304 44.9513C98.8365 44.8471 98.7736 44.7186 98.7489 44.5804C98.706 44.3509 98.6876 44.1175 98.6942 43.8841C98.6942 43.6807 98.6942 43.5085 98.7129 43.3708C98.7221 43.2566 98.7441 43.1437 98.7787 43.0344C98.7981 42.9627 98.839 42.8988 98.896 42.8513C98.9466 42.8149 99.0074 42.7957 99.0697 42.7965C99.2118 42.8159 99.3463 42.8726 99.4594 42.9608C99.6686 43.0924 99.8849 43.2126 100.107 43.3207C100.409 43.4677 100.723 43.5886 101.046 43.6822C101.46 43.7946 101.887 43.8473 102.315 43.8387C102.603 43.8429 102.889 43.8044 103.165 43.7245C103.395 43.661 103.612 43.5548 103.803 43.4115C103.976 43.275 104.113 43.0989 104.202 42.8982C104.297 42.6834 104.345 42.4507 104.342 42.216C104.348 41.9475 104.264 41.6847 104.104 41.4695C103.932 41.2504 103.723 41.0629 103.487 40.9156C103.21 40.7433 102.921 40.5916 102.622 40.4618C102.3 40.3194 101.966 40.1707 101.624 40.0127C101.28 39.854 100.948 39.6742 100.627 39.4744C100.306 39.2754 100.014 39.032 99.7614 38.7514C99.4965 38.4597 99.2847 38.124 99.1354 37.7593C98.7874 36.7862 98.825 35.7168 99.2403 34.7705C99.4556 34.3208 99.7696 33.9255 100.159 33.6141C100.564 33.2978 101.027 33.0644 101.522 32.9271C102.063 32.773 102.624 32.6966 103.187 32.7002C103.491 32.7005 103.795 32.7235 104.096 32.769C104.383 32.8116 104.667 32.8743 104.946 32.9568C105.186 33.0273 105.421 33.1162 105.648 33.2228C105.794 33.2863 105.93 33.3695 106.054 33.4701C106.106 33.5197 106.151 33.5766 106.187 33.6391C106.213 33.6977 106.233 33.7591 106.246 33.8222C106.264 33.9168 106.275 34.0124 106.28 34.1085C106.28 34.2228 106.29 34.3667 106.29 34.5373C106.29 34.7079 106.29 34.891 106.274 35.0224C106.268 35.1322 106.252 35.2412 106.226 35.3479C106.211 35.4183 106.177 35.4833 106.127 35.5357C106.079 35.5769 106.017 35.5982 105.953 35.5951C105.829 35.5763 105.711 35.5292 105.608 35.4574C105.451 35.3651 105.256 35.2634 105.025 35.1554C104.766 35.0363 104.499 34.9374 104.224 34.8597C103.9 34.7671 103.563 34.7218 103.226 34.7251C102.975 34.7203 102.725 34.7557 102.486 34.8299C102.292 34.8894 102.112 34.9867 101.957 35.1163C101.818 35.2351 101.711 35.386 101.644 35.556C101.575 35.7286 101.54 35.913 101.541 36.099C101.534 36.3631 101.616 36.6217 101.772 36.8345C101.944 37.057 102.156 37.245 102.398 37.3884C102.681 37.5618 102.977 37.714 103.282 37.8438C103.612 37.9846 103.947 38.1349 104.29 38.2929C104.636 38.4528 104.972 38.6326 105.298 38.8312C105.623 39.0291 105.92 39.2719 106.177 39.5526C106.442 39.843 106.654 40.1778 106.803 40.5416C106.971 40.9667 107.053 41.421 107.044 41.878Z" fill="black"/>
<path d="M117.023 40.7091C117.043 40.9503 116.971 41.1902 116.821 41.3804C116.749 41.4545 116.661 41.5123 116.565 41.5498C116.469 41.5873 116.365 41.6037 116.262 41.5979H110.896C110.892 41.9437 110.938 42.2882 111.031 42.6213C111.11 42.9112 111.255 43.179 111.455 43.4037C111.661 43.6261 111.919 43.7938 112.206 43.892C112.558 44.0116 112.929 44.0688 113.301 44.061C113.686 44.0652 114.07 44.0338 114.448 43.9671C114.737 43.9138 115.022 43.8443 115.303 43.7589C115.542 43.6838 115.742 43.615 115.901 43.5524C116.022 43.4971 116.152 43.4647 116.285 43.4569C116.337 43.4552 116.389 43.4677 116.434 43.4929C116.479 43.5224 116.513 43.565 116.533 43.615C116.564 43.6962 116.582 43.7817 116.587 43.8685C116.597 43.9765 116.602 44.1126 116.602 44.2785C116.602 44.4443 116.602 44.5461 116.592 44.6478C116.587 44.7359 116.577 44.8236 116.562 44.9107C116.554 44.973 116.536 45.0337 116.509 45.0906C116.481 45.1422 116.446 45.19 116.406 45.233C116.3 45.3153 116.181 45.3788 116.054 45.4208C115.816 45.5157 115.572 45.5932 115.323 45.6524C114.988 45.7366 114.648 45.8029 114.306 45.8511C113.9 45.9091 113.491 45.9374 113.081 45.9356C112.382 45.9478 111.686 45.8474 111.02 45.6383C110.463 45.4603 109.956 45.1518 109.543 44.7385C109.131 44.309 108.828 43.7876 108.658 43.2175C108.452 42.5183 108.354 41.7916 108.367 41.0627C108.359 40.3444 108.465 39.6293 108.68 38.9439C108.862 38.3544 109.165 37.8092 109.569 37.3431C109.958 36.904 110.443 36.5608 110.987 36.34C112.203 35.8863 113.541 35.8791 114.761 36.3197C115.256 36.5164 115.697 36.8261 116.051 37.2242C116.394 37.6217 116.647 38.0888 116.792 38.5934C116.955 39.1526 117.034 39.7325 117.029 40.3147L117.023 40.7091ZM114.613 39.9971C114.664 39.4169 114.515 38.8367 114.192 38.3524C114.026 38.1476 113.813 37.9861 113.572 37.8819C113.33 37.7778 113.066 37.7341 112.804 37.7547C112.519 37.7478 112.236 37.8089 111.979 37.933C111.751 38.0462 111.551 38.21 111.395 38.4119C111.234 38.6256 111.114 38.8669 111.04 39.1239C110.956 39.4078 110.907 39.7011 110.896 39.9971H114.613Z" fill="black"/>
<path d="M124.731 37.3822C124.731 37.6185 124.731 37.8141 124.711 37.9643C124.704 38.085 124.684 38.2046 124.652 38.3211C124.635 38.3894 124.599 38.4514 124.548 38.4995C124.503 38.5322 124.448 38.5492 124.392 38.548C124.331 38.5468 124.271 38.5352 124.213 38.5136C124.148 38.4901 124.073 38.4651 123.991 38.44C123.91 38.415 123.818 38.3884 123.719 38.3649C123.612 38.3416 123.503 38.33 123.393 38.3305C123.251 38.3312 123.11 38.3599 122.979 38.415C122.823 38.4808 122.679 38.5688 122.548 38.6763C122.376 38.8161 122.219 38.9734 122.079 39.1458C121.892 39.3794 121.719 39.6239 121.561 39.8781V45.3707C121.562 45.4337 121.541 45.4951 121.502 45.5444C121.447 45.6038 121.376 45.6467 121.298 45.668C121.175 45.7068 121.047 45.7314 120.918 45.7416C120.517 45.7749 120.114 45.7749 119.713 45.7416C119.584 45.7314 119.456 45.7068 119.333 45.668C119.255 45.6467 119.184 45.6038 119.129 45.5444C119.09 45.4951 119.069 45.4337 119.07 45.3707V36.5622C119.069 36.5007 119.087 36.4402 119.12 36.3885C119.166 36.3308 119.228 36.2883 119.298 36.2665C119.405 36.2278 119.516 36.2026 119.629 36.1914C119.797 36.1735 119.967 36.1651 120.137 36.1663C120.312 36.165 120.487 36.1734 120.661 36.1914C120.769 36.2016 120.874 36.2269 120.974 36.2665C121.039 36.2911 121.096 36.3334 121.139 36.3885C121.171 36.4404 121.188 36.5008 121.187 36.5622V37.6576C121.384 37.3696 121.602 37.0971 121.84 36.8423C122.015 36.6521 122.211 36.4816 122.423 36.3338C122.591 36.2158 122.778 36.1269 122.976 36.0709C123.156 36.0226 123.343 35.9979 123.53 35.9973C123.614 35.9973 123.706 35.9973 123.805 36.0114C123.91 36.0223 124.015 36.039 124.118 36.0615C124.212 36.0816 124.305 36.1083 124.395 36.1413C124.458 36.1614 124.517 36.1927 124.569 36.2336C124.602 36.2645 124.628 36.3018 124.647 36.3431C124.666 36.394 124.682 36.4463 124.692 36.4996C124.708 36.6033 124.718 36.7078 124.72 36.8126C124.728 36.9534 124.731 37.1443 124.731 37.3822Z" fill="black"/>
<path d="M134.552 36.5513C134.552 36.5858 134.552 36.6249 134.552 36.6703C134.549 36.7228 134.542 36.7751 134.532 36.8267C134.522 36.8831 134.51 36.9472 134.492 37.0192C134.475 37.0912 134.455 37.1757 134.428 37.2665L131.781 45.2471C131.754 45.3457 131.709 45.4382 131.648 45.5194C131.572 45.5973 131.476 45.6517 131.371 45.6759C131.199 45.7218 131.024 45.7486 130.846 45.7557C130.625 45.7682 130.337 45.7745 129.983 45.7745C129.632 45.7745 129.347 45.7667 129.127 45.7494C128.951 45.741 128.778 45.7132 128.609 45.6665C128.505 45.6415 128.41 45.5872 128.336 45.51C128.276 45.4321 128.231 45.3434 128.203 45.2487L125.551 37.2665C125.51 37.135 125.481 37.0161 125.457 36.9112C125.439 36.8366 125.426 36.7608 125.418 36.6843C125.418 36.6374 125.418 36.5951 125.418 36.5545C125.417 36.4927 125.437 36.4324 125.473 36.3823C125.523 36.3229 125.59 36.2798 125.665 36.2587C125.786 36.2192 125.912 36.195 126.039 36.1867C126.196 36.1742 126.404 36.1664 126.648 36.1664C126.917 36.1664 127.135 36.1758 127.299 36.1914C127.431 36.202 127.562 36.2251 127.69 36.2603C127.77 36.28 127.84 36.325 127.892 36.3886C127.936 36.4506 127.969 36.5193 127.991 36.592L129.998 43.0642L130.056 43.3114L130.116 43.0642L132.092 36.592C132.109 36.5186 132.141 36.4495 132.186 36.3886C132.239 36.3267 132.309 36.282 132.388 36.2603C132.509 36.2255 132.633 36.2025 132.759 36.1914C132.915 36.1758 133.117 36.1664 133.367 36.1664C133.618 36.1664 133.81 36.1742 133.965 36.1867C134.088 36.1933 134.209 36.2165 134.325 36.2556C134.396 36.2773 134.458 36.3205 134.503 36.3792C134.536 36.4306 134.553 36.4905 134.552 36.5513Z" fill="black"/>
<path d="M138.692 33.5781C138.713 33.7626 138.697 33.9494 138.644 34.1275C138.592 34.3057 138.505 34.4716 138.387 34.6155C138.039 34.802 137.649 34.9003 137.254 34.9019C136.858 34.9036 136.469 34.8085 136.118 34.6249C136.006 34.4859 135.923 34.3262 135.873 34.1548C135.823 33.9835 135.808 33.804 135.827 33.6266C135.787 33.2529 135.895 32.8784 136.129 32.5844C136.477 32.3937 136.867 32.2927 137.264 32.2906C137.66 32.2884 138.051 32.3851 138.401 32.5719C138.514 32.712 138.598 32.8731 138.648 33.0458C138.698 33.2185 138.713 33.3994 138.692 33.5781ZM138.505 45.3754C138.506 45.4385 138.485 45.5002 138.445 45.5491C138.391 45.6085 138.321 45.6514 138.243 45.6727C138.12 45.7114 137.992 45.7361 137.863 45.7462C137.462 45.7796 137.059 45.7796 136.658 45.7462C136.529 45.7363 136.401 45.7116 136.278 45.6727C136.2 45.6514 136.129 45.6085 136.074 45.5491C136.035 45.4998 136.014 45.4384 136.015 45.3754V36.5825C136.014 36.5195 136.035 36.4581 136.074 36.4088C136.13 36.3488 136.2 36.3045 136.278 36.2805C136.401 36.2381 136.529 36.2097 136.658 36.196C137.059 36.1564 137.462 36.1564 137.863 36.196C137.993 36.2099 138.12 36.2382 138.243 36.2805C138.321 36.3045 138.391 36.3488 138.445 36.4088C138.485 36.4577 138.506 36.5194 138.505 36.5825V45.3754Z" fill="black"/>
<path d="M147.657 43.9734C147.657 44.1439 147.657 44.2863 147.643 44.4037C147.635 44.5014 147.621 44.5986 147.602 44.6948C147.59 44.761 147.57 44.8256 147.543 44.8872C147.502 44.9584 147.449 45.0219 147.386 45.075C147.262 45.1824 147.126 45.2753 146.981 45.352C146.773 45.4679 146.555 45.5653 146.33 45.643C146.07 45.7331 145.804 45.8027 145.533 45.8512C145.242 45.9036 144.946 45.9298 144.649 45.9294C144.034 45.9419 143.422 45.8357 142.847 45.6164C142.337 45.4148 141.885 45.0926 141.527 44.6775C141.156 44.2371 140.882 43.7238 140.721 43.1706C140.531 42.5096 140.44 41.8241 140.451 41.1363C140.435 40.3613 140.546 39.5889 140.781 38.8501C140.972 38.2586 141.287 37.7145 141.704 37.254C142.095 36.8367 142.577 36.5154 143.113 36.315C143.682 36.1037 144.285 35.9977 144.892 36.0021C145.154 36.0017 145.416 36.0247 145.674 36.0709C145.916 36.1147 146.153 36.1781 146.385 36.2603C146.59 36.3318 146.788 36.4208 146.978 36.5263C147.111 36.5967 147.236 36.6829 147.349 36.7829C147.408 36.8376 147.46 36.899 147.505 36.966C147.538 37.0264 147.561 37.0913 147.574 37.1585C147.593 37.2546 147.606 37.3518 147.613 37.4496C147.624 37.5654 147.629 37.7062 147.629 37.8705C147.643 38.1423 147.61 38.4146 147.53 38.6748C147.464 38.8313 147.374 38.908 147.272 38.908C147.142 38.9007 147.017 38.8519 146.917 38.7687C146.791 38.6764 146.643 38.5747 146.472 38.4557C146.28 38.3306 146.075 38.2257 145.86 38.1428C145.588 38.0447 145.299 37.998 145.009 38.0051C144.719 37.9912 144.43 38.0525 144.17 38.183C143.911 38.3135 143.689 38.5088 143.527 38.7499C143.142 39.413 142.964 40.1757 143.014 40.9407C143.009 41.3615 143.052 41.7816 143.142 42.1926C143.211 42.5168 143.34 42.8252 143.523 43.1018C143.679 43.3364 143.895 43.5254 144.148 43.6494C144.426 43.7764 144.728 43.839 145.033 43.8325C145.335 43.8387 145.635 43.7855 145.917 43.676C146.144 43.5848 146.361 43.4705 146.565 43.3349C146.749 43.2113 146.904 43.0971 147.034 42.9938C147.118 42.9088 147.228 42.8538 147.347 42.8373C147.401 42.8353 147.453 42.8525 147.496 42.8858C147.544 42.9362 147.577 42.9999 147.59 43.0689C147.616 43.1811 147.634 43.2951 147.643 43.41C147.651 43.5775 147.657 43.7559 147.657 43.9734Z" fill="black"/>
<path d="M157.597 40.7091C157.617 40.9504 157.545 41.1903 157.395 41.3804C157.322 41.4543 157.235 41.5119 157.139 41.5494C157.043 41.5869 156.939 41.6035 156.836 41.5979H151.47C151.467 41.9436 151.512 42.2881 151.603 42.6214C151.683 42.9114 151.829 43.1791 152.029 43.4038C152.235 43.6261 152.493 43.7938 152.78 43.892C153.133 44.0117 153.503 44.0689 153.875 44.061C154.26 44.0653 154.644 44.0338 155.022 43.9671C155.311 43.9139 155.596 43.8444 155.877 43.759C156.116 43.6839 156.317 43.615 156.475 43.5524C156.596 43.4971 156.727 43.4648 156.86 43.457C156.911 43.4555 156.963 43.4679 157.008 43.493C157.053 43.5224 157.087 43.5651 157.107 43.615C157.137 43.6965 157.156 43.7818 157.162 43.8685C157.171 43.9765 157.176 44.1126 157.176 44.2785C157.176 44.4444 157.176 44.5461 157.166 44.6478C157.157 44.7495 157.149 44.8387 157.137 44.9107C157.125 44.9741 157.105 45.0357 157.077 45.0938C157.049 45.1457 157.013 45.1936 156.972 45.2362C156.867 45.3186 156.749 45.3821 156.622 45.424C156.384 45.5185 156.14 45.5959 155.891 45.6556C155.556 45.7397 155.216 45.8061 154.874 45.8543C154.467 45.9123 154.057 45.9406 153.647 45.9388C152.949 45.9509 152.254 45.8505 151.588 45.6415C151.03 45.4638 150.524 45.1553 150.11 44.7417C149.699 44.3126 149.395 43.791 149.226 43.2207C149.02 42.5214 148.922 41.7948 148.935 41.0659C148.926 40.348 149.029 39.6331 149.24 38.9471C149.423 38.3575 149.726 37.8123 150.131 37.3463C150.52 36.9072 151.005 36.5639 151.549 36.3432C152.765 35.8894 154.102 35.8822 155.323 36.3229C155.817 36.5196 156.259 36.8293 156.612 37.2274C156.956 37.6249 157.209 38.092 157.354 38.5966C157.516 39.1557 157.596 39.7357 157.59 40.3179L157.597 40.7091ZM155.185 39.9971C155.237 39.4171 155.089 38.8369 154.766 38.3525C154.6 38.1477 154.388 37.9863 154.146 37.8821C153.904 37.778 153.64 37.7343 153.378 37.7547C153.092 37.748 152.809 37.8091 152.552 37.9331C152.324 38.0467 152.125 38.2104 151.969 38.4119C151.808 38.6252 151.687 38.8666 151.614 39.1239C151.53 39.4078 151.482 39.7012 151.47 39.9971H155.185Z" fill="black"/>
<path d="M165.847 42.8857C165.857 43.3428 165.76 43.7959 165.566 44.2096C165.381 44.5885 165.109 44.9176 164.771 45.1688C164.405 45.4363 163.993 45.6322 163.555 45.7463C162.75 45.9556 161.91 45.9961 161.089 45.8652C160.816 45.8228 160.547 45.7601 160.284 45.6774C160.081 45.615 159.883 45.5376 159.691 45.4458C159.566 45.3881 159.45 45.3133 159.345 45.2236C159.261 45.1315 159.203 45.0186 159.178 44.8965C159.132 44.6807 159.112 44.46 159.118 44.2393C159.116 44.0862 159.123 43.9331 159.139 43.7808C159.147 43.6865 159.167 43.5936 159.197 43.5038C159.213 43.4482 159.248 43.3996 159.295 43.3661C159.341 43.3411 159.392 43.3287 159.444 43.3301C159.559 43.3457 159.669 43.388 159.765 43.4538C159.907 43.5367 160.078 43.6275 160.294 43.726C160.533 43.8351 160.779 43.9277 161.031 44.003C161.34 44.0929 161.661 44.1362 161.984 44.1313C162.185 44.1338 162.386 44.1107 162.581 44.0625C162.743 44.0215 162.897 43.9543 163.037 43.8638C163.161 43.7832 163.262 43.6708 163.328 43.5383C163.396 43.3968 163.43 43.2414 163.426 43.0845C163.431 42.8976 163.365 42.7159 163.243 42.5743C163.106 42.422 162.942 42.2962 162.76 42.2035C162.539 42.0903 162.311 41.9915 162.078 41.9077C161.824 41.8149 161.563 41.7105 161.295 41.5947C161.027 41.4829 160.765 41.3544 160.513 41.2098C160.261 41.0667 160.031 40.8868 159.832 40.6762C159.624 40.4552 159.46 40.1973 159.347 39.9157C159.218 39.5751 159.156 39.2126 159.165 38.8485C159.161 38.448 159.244 38.0515 159.411 37.6873C159.576 37.335 159.819 37.0255 160.123 36.7829C160.46 36.5187 160.844 36.3206 161.254 36.1992C161.74 36.0556 162.245 35.986 162.752 35.9926C163.021 35.9924 163.29 36.0123 163.556 36.0521C163.795 36.0871 164.031 36.1362 164.264 36.1992C164.447 36.249 164.625 36.3139 164.797 36.3932C164.907 36.4419 165.012 36.5011 165.11 36.57C165.165 36.6124 165.21 36.6657 165.243 36.7265C165.272 36.7828 165.292 36.8429 165.303 36.9049C165.315 36.9738 165.328 37.0614 165.337 37.1616C165.347 37.2617 165.351 37.39 165.351 37.5418C165.351 37.7202 165.351 37.8642 165.337 37.9768C165.331 38.0671 165.315 38.1563 165.289 38.2429C165.274 38.2976 165.24 38.3452 165.193 38.3774C165.151 38.4007 165.104 38.4125 165.055 38.4119C164.956 38.3983 164.862 38.3624 164.778 38.307C164.653 38.2382 164.497 38.1646 164.309 38.0848C164.096 37.9975 163.878 37.9233 163.656 37.8626C163.381 37.7901 163.097 37.7553 162.811 37.7593C162.615 37.7563 162.419 37.7795 162.229 37.8282C162.082 37.8661 161.944 37.9337 161.824 38.0269C161.722 38.1071 161.641 38.21 161.586 38.3274C161.534 38.444 161.507 38.5705 161.508 38.6982C161.502 38.8871 161.57 39.0708 161.696 39.2115C161.837 39.3628 162.004 39.4869 162.19 39.5777C162.415 39.6919 162.648 39.7907 162.887 39.8734C163.146 39.9657 163.411 40.0675 163.669 40.1754C163.94 40.2856 164.204 40.4126 164.459 40.5557C164.717 40.6983 164.952 40.8781 165.157 41.0893C165.366 41.3091 165.533 41.5652 165.65 41.8451C165.785 42.1751 165.852 42.5291 165.847 42.8857Z" fill="black"/>
<path d="M107.044 60.1335C107.045 60.294 107.037 60.4544 107.019 60.6139C107.008 60.721 106.983 60.8261 106.946 60.9269C106.92 60.9946 106.878 61.0544 106.822 61.1006C106.777 61.1344 106.722 61.1535 106.665 61.1553H100.25C100.049 61.1616 99.8542 61.093 99.7019 60.9629C99.6215 60.881 99.5598 60.7826 99.5212 60.6745C99.4825 60.5664 99.4679 60.4512 99.4782 60.3369V49.1859C99.4672 49.0715 99.4816 48.9562 99.5203 48.848C99.5589 48.7398 99.621 48.6415 99.7019 48.56C99.854 48.4294 100.049 48.3602 100.25 48.3659H106.633C106.689 48.3656 106.744 48.3831 106.789 48.416C106.845 48.4613 106.886 48.5216 106.908 48.5897C106.946 48.6905 106.97 48.7957 106.982 48.9027C107 49.0647 107.009 49.2278 107.007 49.3909C107.008 49.5478 107 49.7046 106.982 49.8603C106.971 49.9675 106.946 50.0728 106.908 50.1733C106.884 50.2406 106.843 50.3005 106.789 50.347C106.745 50.3822 106.689 50.401 106.633 50.4002H102.054V53.5299H105.917C105.974 53.5309 106.029 53.5495 106.074 53.5831C106.129 53.6282 106.171 53.6863 106.198 53.7521C106.237 53.8524 106.262 53.9578 106.271 54.0651C106.304 54.3772 106.304 54.6919 106.271 55.004C106.261 55.1071 106.236 55.2082 106.198 55.3044C106.172 55.3671 106.129 55.4214 106.074 55.4609C106.028 55.4924 105.973 55.5097 105.917 55.511H102.054V59.1101H106.658C106.714 59.1112 106.769 59.1304 106.814 59.1649C106.869 59.2107 106.912 59.27 106.938 59.337C106.975 59.4378 107 59.543 107.011 59.65C107.032 59.8103 107.043 59.9718 107.044 60.1335Z" fill="black"/>
<path d="M117.606 60.8156C117.607 60.8782 117.586 60.9391 117.547 60.9878C117.494 61.0466 117.426 61.0894 117.35 61.1114C117.227 61.1514 117.099 61.1766 116.97 61.1865C116.813 61.2022 116.608 61.2115 116.372 61.2115C116.136 61.2115 115.924 61.2022 115.763 61.1865C115.634 61.1766 115.506 61.1514 115.383 61.1114C115.307 61.0894 115.239 61.0466 115.186 60.9878C115.146 60.9391 115.125 60.8782 115.126 60.8156V55.7863C115.135 55.4478 115.104 55.1094 115.032 54.7785C114.979 54.5559 114.887 54.3442 114.762 54.1526C114.646 53.9802 114.487 53.8406 114.302 53.7473C114.097 53.6478 113.872 53.5984 113.644 53.6033C113.296 53.6148 112.96 53.7358 112.685 53.9491C112.305 54.2373 111.966 54.5764 111.677 54.9569V60.8172C111.679 60.8799 111.658 60.941 111.618 60.9893C111.564 61.0488 111.494 61.0917 111.416 61.113C111.292 61.1523 111.165 61.1775 111.036 61.1881C110.879 61.2037 110.676 61.2131 110.433 61.2131C110.191 61.2131 109.989 61.2037 109.829 61.1881C109.7 61.1775 109.572 61.1523 109.449 61.113C109.371 61.0917 109.301 61.0488 109.247 60.9893C109.208 60.9407 109.187 60.8798 109.188 60.8172V52.0009C109.186 51.9397 109.203 51.8794 109.238 51.8288C109.282 51.7701 109.344 51.7268 109.415 51.7052C109.522 51.6671 109.633 51.6424 109.746 51.6316C109.915 51.6128 110.085 51.6045 110.255 51.6066C110.43 51.6045 110.605 51.6129 110.779 51.6316C110.886 51.6417 110.992 51.6664 111.092 51.7052C111.155 51.7308 111.209 51.7737 111.249 51.8288C111.282 51.8797 111.3 51.9398 111.299 52.0009V53.0196C111.722 52.5419 112.225 52.1406 112.785 51.8335C113.27 51.5748 113.811 51.4389 114.361 51.4376C114.883 51.4215 115.402 51.5231 115.879 51.7349C116.272 51.9183 116.614 52.1949 116.876 52.5408C117.137 52.8962 117.324 53.3007 117.425 53.7301C117.545 54.2687 117.601 54.8197 117.592 55.3716L117.606 60.8156Z" fill="black"/>
<path d="M127.992 52.6144C128.005 52.853 127.968 53.0918 127.884 53.3155C127.81 53.4719 127.727 53.5424 127.616 53.5424H126.579C126.722 53.6969 126.829 53.8813 126.892 54.0822C126.955 54.2849 126.986 54.496 126.986 54.7082C126.994 55.1773 126.907 55.6432 126.729 56.0774C126.565 56.4659 126.312 56.8109 125.992 57.0851C125.654 57.3711 125.26 57.5841 124.836 57.7111C124.347 57.8587 123.839 57.9305 123.329 57.9239C123.055 57.9254 122.783 57.8902 122.52 57.8191C122.31 57.7708 122.11 57.6894 121.926 57.5781C121.842 57.6724 121.77 57.7777 121.714 57.891C121.65 58.0127 121.618 58.1482 121.62 58.2854C121.619 58.3784 121.642 58.4701 121.686 58.5521C121.73 58.634 121.794 58.7037 121.872 58.7548C122.082 58.8897 122.328 58.9599 122.577 58.9567L124.723 59.0365C125.176 59.049 125.626 59.1206 126.061 59.2493C126.421 59.3542 126.757 59.5286 127.05 59.7626C127.312 59.9775 127.521 60.2494 127.662 60.5575C127.809 60.8905 127.881 61.2515 127.874 61.6154C127.876 62.0421 127.778 62.4633 127.588 62.8453C127.387 63.2439 127.092 63.588 126.729 63.8484C126.293 64.1563 125.806 64.3841 125.291 64.5213C124.632 64.6963 123.951 64.7795 123.269 64.7685C122.623 64.7758 121.977 64.7129 121.344 64.5807C120.885 64.4898 120.445 64.3226 120.041 64.0862C119.738 63.9145 119.487 63.6636 119.316 63.3604C119.144 63.0572 119.059 62.7131 119.068 62.3649C119.065 62.1533 119.094 61.9424 119.152 61.739C119.208 61.5389 119.291 61.3474 119.398 61.1694C119.512 60.9826 119.646 60.8089 119.798 60.6514C119.966 60.4804 120.148 60.3234 120.341 60.182C120.071 60.0427 119.846 59.8314 119.689 59.5714C119.532 59.3115 119.45 59.0131 119.452 58.7094C119.448 58.3381 119.54 57.9719 119.72 57.6469C119.901 57.3228 120.134 57.0309 120.41 56.7831C120.175 56.5439 119.987 56.2619 119.858 55.9522C119.708 55.5685 119.638 55.1588 119.65 54.7473C119.641 54.2736 119.734 53.8036 119.922 53.3687C120.095 52.9746 120.353 52.6235 120.678 52.3406C121.016 52.0511 121.409 51.8329 121.834 51.699C122.313 51.5458 122.813 51.4708 123.316 51.4768C123.582 51.4758 123.847 51.492 124.111 51.5253C124.35 51.5554 124.586 51.602 124.818 51.6645H127.615C127.726 51.6645 127.817 51.7365 127.885 51.8821C127.971 52.1162 128.007 52.3656 127.992 52.6144ZM125.383 61.7343C125.389 61.5997 125.359 61.4659 125.297 61.3465C125.234 61.227 125.142 61.126 125.028 61.0536C124.731 60.8789 124.392 60.7896 124.048 60.7954L122.28 60.7469C122.131 60.852 121.994 60.9727 121.87 61.1068C121.778 61.2094 121.695 61.3205 121.623 61.4385C121.564 61.5349 121.522 61.6408 121.499 61.7515C121.478 61.8545 121.469 61.9594 121.47 62.0645C121.469 62.2251 121.516 62.3823 121.605 62.516C121.694 62.6498 121.82 62.7541 121.969 62.8156C122.412 63.0088 122.894 63.0966 123.377 63.0722C123.697 63.0792 124.016 63.0412 124.325 62.9595C124.551 62.8993 124.764 62.7969 124.951 62.6575C125.097 62.5479 125.212 62.4037 125.288 62.2382C125.354 62.0787 125.387 61.9071 125.383 61.7343ZM124.8 54.6925C124.812 54.491 124.783 54.2892 124.715 54.099C124.648 53.9089 124.542 53.7344 124.405 53.5862C124.255 53.4485 124.079 53.3425 123.887 53.2745C123.695 53.2065 123.491 53.1778 123.288 53.1903C123.068 53.1861 122.849 53.2283 122.646 53.3139C122.47 53.3909 122.313 53.5058 122.186 53.6503C122.063 53.7949 121.97 53.9632 121.914 54.1448C121.855 54.3354 121.826 54.5338 121.826 54.7332C121.816 54.9276 121.846 55.1221 121.914 55.3045C121.981 55.487 122.086 55.6537 122.221 55.7942C122.368 55.9294 122.54 56.0338 122.729 56.101C122.917 56.1682 123.117 56.1969 123.316 56.1854C123.539 56.1907 123.762 56.1502 123.969 56.0664C124.144 55.9941 124.301 55.8828 124.427 55.7409C124.55 55.6005 124.644 55.4373 124.704 55.2605C124.767 55.0799 124.799 54.89 124.8 54.6988V54.6925Z" fill="black"/>
<path d="M132.319 49.0168C132.339 49.2019 132.321 49.389 132.267 49.5671C132.213 49.7453 132.125 49.9109 132.006 50.0543C131.658 50.2415 131.268 50.3404 130.873 50.3423C130.477 50.3442 130.087 50.2491 129.737 50.0653C129.625 49.9262 129.542 49.7664 129.492 49.5951C129.442 49.4238 129.426 49.2443 129.446 49.0669C129.405 48.6932 129.514 48.3186 129.748 48.0247C130.095 47.8346 130.484 47.734 130.88 47.7321C131.276 47.7302 131.666 47.827 132.015 48.0138C132.13 48.1526 132.216 48.3127 132.268 48.4849C132.32 48.657 132.337 48.8379 132.319 49.0168ZM132.131 60.8157C132.133 60.8784 132.112 60.9395 132.072 60.9878C132.018 61.0473 131.948 61.0902 131.87 61.1114C131.746 61.1508 131.619 61.176 131.49 61.1866C131.333 61.2022 131.13 61.2116 130.887 61.2116C130.645 61.2116 130.443 61.2022 130.283 61.1866C130.154 61.176 130.027 61.1508 129.904 61.1114C129.826 61.0905 129.756 61.0476 129.701 60.9878C129.662 60.9392 129.641 60.8783 129.642 60.8157V52.0213C129.641 51.9583 129.662 51.897 129.701 51.8476C129.757 51.7882 129.827 51.7441 129.904 51.7193C130.027 51.6768 130.154 51.649 130.283 51.6364C130.684 51.5967 131.088 51.5967 131.49 51.6364C131.619 51.649 131.747 51.6768 131.87 51.7193C131.947 51.7444 132.016 51.7886 132.072 51.8476C132.112 51.8966 132.133 51.9582 132.131 52.0213V60.8157Z" fill="black"/>
<path d="M143.032 60.8156C143.033 60.8782 143.012 60.9391 142.973 60.9878C142.919 61.0462 142.85 61.089 142.774 61.1114C142.651 61.1516 142.523 61.1768 142.394 61.1865C142.237 61.2022 142.034 61.2115 141.796 61.2115C141.558 61.2115 141.35 61.2022 141.189 61.1865C141.06 61.1766 140.932 61.1514 140.809 61.1114C140.732 61.089 140.664 61.0462 140.61 60.9878C140.571 60.939 140.551 60.878 140.552 60.8156V55.7863C140.56 55.4478 140.529 55.1096 140.458 54.7785C140.405 54.5556 140.312 54.3438 140.186 54.1526C140.07 53.9802 139.911 53.8406 139.726 53.7473C139.521 53.6478 139.296 53.5984 139.069 53.6033C138.721 53.6146 138.386 53.7357 138.111 53.9491C137.73 54.2369 137.391 54.576 137.103 54.9569V60.8172C137.104 60.8798 137.083 60.9407 137.044 60.9893C136.989 61.0485 136.919 61.0913 136.842 61.113C136.718 61.1522 136.59 61.1774 136.46 61.1881C136.303 61.2037 136.102 61.2131 135.857 61.2131C135.613 61.2131 135.413 61.2037 135.255 61.1881C135.126 61.1775 134.998 61.1523 134.875 61.113C134.797 61.0916 134.726 61.0488 134.671 60.9893C134.632 60.9407 134.611 60.8798 134.612 60.8172V52.0009C134.611 51.9398 134.628 51.8797 134.662 51.8288C134.707 51.7701 134.769 51.7268 134.84 51.7052C134.947 51.6671 135.058 51.6424 135.171 51.6316C135.339 51.6129 135.509 51.6046 135.679 51.6066C135.854 51.6045 136.029 51.6128 136.203 51.6316C136.314 51.6408 136.422 51.6655 136.526 51.7052C136.588 51.7308 136.643 51.7737 136.682 51.8288C136.715 51.8799 136.732 51.9399 136.731 52.0009V53.0196C137.154 52.5419 137.657 52.1406 138.217 51.8335C138.703 51.5748 139.244 51.4389 139.795 51.4376C140.316 51.4214 140.834 51.5231 141.311 51.7349C141.705 51.9177 142.048 52.1945 142.309 52.5408C142.571 52.8959 142.757 53.3005 142.857 53.7301C142.979 54.2685 143.035 54.8196 143.026 55.3716L143.032 60.8156Z" fill="black"/>
<path d="M153.614 56.1524C153.633 56.3936 153.561 56.6333 153.412 56.8237C153.34 56.8978 153.253 56.9556 153.156 56.9931C153.06 57.0306 152.957 57.047 152.853 57.0412H147.488C147.484 57.3865 147.529 57.7306 147.622 58.0631C147.701 58.3532 147.846 58.6211 148.046 58.8455C148.253 59.0678 148.511 59.236 148.797 59.3353C149.15 59.4536 149.521 59.5103 149.893 59.5027C150.277 59.507 150.661 59.4755 151.04 59.4088C151.328 59.356 151.613 59.2871 151.894 59.2023C152.134 59.1256 152.334 59.0567 152.492 58.9941C152.614 58.94 152.744 58.9082 152.877 58.9002C152.929 58.8983 152.98 58.9102 153.026 58.9347C153.07 58.9648 153.105 59.0079 153.124 59.0583C153.155 59.139 153.173 59.224 153.179 59.3102C153.188 59.4182 153.193 59.5559 153.193 59.7202C153.193 59.8845 153.193 59.9894 153.184 60.0911C153.178 60.1787 153.169 60.2659 153.154 60.3524C153.144 60.4162 153.124 60.4781 153.094 60.5355C153.066 60.5875 153.031 60.6359 152.991 60.6795C152.886 60.7596 152.768 60.822 152.642 60.8641C152.405 60.9597 152.16 61.0376 151.911 61.0973C151.576 61.1801 151.236 61.2459 150.894 61.2944C150.488 61.3525 150.079 61.3807 149.669 61.3789C148.971 61.3916 148.275 61.2918 147.608 61.0832C147.051 60.9045 146.545 60.5961 146.131 60.1834C145.719 59.7537 145.416 59.2316 145.247 58.6608C145.042 57.964 144.945 57.24 144.959 56.5139C144.951 55.795 145.056 55.0794 145.272 54.3935C145.453 53.8037 145.756 53.2584 146.161 52.7927C146.55 52.3541 147.035 52.0109 147.578 51.7896C148.794 51.335 150.132 51.3283 151.353 51.7708C151.848 51.967 152.289 52.2768 152.642 52.6753C152.985 53.0723 153.238 53.5389 153.384 54.043C153.546 54.6022 153.626 55.1821 153.62 55.7643L153.614 56.1524ZM151.204 55.4404C151.255 54.8602 151.107 54.28 150.783 53.7957C150.618 53.5907 150.405 53.429 150.163 53.3246C149.921 53.2201 149.658 53.1762 149.395 53.1964C149.11 53.1895 148.827 53.2506 148.57 53.3748C148.342 53.4885 148.143 53.6522 147.987 53.8536C147.825 54.0671 147.705 54.3084 147.632 54.5656C147.547 54.8501 147.499 55.1439 147.488 55.4404H151.204Z" fill="black"/>
<path d="M163.803 56.1523C163.822 56.3938 163.75 56.6338 163.599 56.8236C163.527 56.8976 163.44 56.9553 163.344 56.9928C163.248 57.0303 163.145 57.0468 163.042 57.0411H157.676C157.673 57.3863 157.717 57.7302 157.809 58.0629C157.889 58.353 158.035 58.6207 158.235 58.8454C158.441 59.0677 158.699 59.2359 158.986 59.3352C159.339 59.4535 159.709 59.5101 160.081 59.5026C160.465 59.5069 160.849 59.4755 161.227 59.4087C161.515 59.3561 161.801 59.2871 162.081 59.2022C162.322 59.1255 162.521 59.0566 162.681 58.994C162.802 58.9396 162.933 58.9078 163.066 58.9001C163.117 58.8983 163.169 58.9102 163.214 58.9346C163.259 58.9647 163.293 59.0078 163.313 59.0582C163.343 59.139 163.361 59.224 163.366 59.3101C163.377 59.4181 163.382 59.5558 163.382 59.7201C163.382 59.8844 163.382 59.9893 163.371 60.091C163.366 60.1785 163.357 60.2658 163.343 60.3523C163.331 60.4158 163.311 60.4774 163.283 60.5354C163.255 60.5878 163.219 60.6362 163.178 60.6794C163.073 60.7605 162.954 60.8234 162.828 60.8656C162.59 60.9607 162.346 61.0386 162.097 61.0987C161.761 61.1814 161.422 61.2472 161.08 61.2959C160.673 61.3539 160.263 61.3821 159.853 61.3804C159.155 61.3931 158.46 61.2932 157.794 61.0846C157.237 60.9067 156.73 60.5982 156.316 60.1849C155.904 59.7551 155.601 59.2331 155.432 58.6623C155.228 57.9648 155.132 57.2403 155.146 56.5138C155.138 55.7949 155.244 55.0793 155.459 54.3934C155.641 53.8038 155.945 53.2586 156.349 52.7926C156.739 52.354 157.224 52.0108 157.767 51.7895C158.364 51.5516 159.002 51.4341 159.645 51.4437C160.291 51.4275 160.935 51.5386 161.538 51.7707C162.033 51.9676 162.474 52.2774 162.828 52.6752C163.17 53.073 163.423 53.5393 163.569 54.0429C163.731 54.6022 163.811 55.182 163.806 55.7642L163.803 56.1523ZM161.391 55.4403C161.443 54.8603 161.295 54.2801 160.972 53.7956C160.806 53.5907 160.594 53.429 160.352 53.3246C160.11 53.2202 159.846 53.1762 159.584 53.1963C159.298 53.1896 159.015 53.2507 158.758 53.3747C158.53 53.4889 158.331 53.6525 158.175 53.8535C158.014 54.0669 157.894 54.3083 157.82 54.5655C157.735 54.8498 157.687 55.1438 157.676 55.4403H161.391Z" fill="black"/>
<path d="M171.509 52.821C171.509 53.0589 171.509 53.2529 171.49 53.4047C171.482 53.5248 171.462 53.6438 171.431 53.7599C171.415 53.8288 171.378 53.8911 171.326 53.9383C171.28 53.9716 171.226 53.9892 171.169 53.9884C171.108 53.9862 171.048 53.9746 170.991 53.954L170.769 53.8789C170.687 53.8523 170.597 53.8288 170.498 53.8053C170.391 53.7814 170.282 53.7698 170.172 53.7709C170.03 53.772 169.888 53.8001 169.756 53.8538C169.601 53.9206 169.456 54.0091 169.326 54.1167C169.153 54.2561 168.996 54.4134 168.856 54.5862C168.669 54.8196 168.496 55.0636 168.337 55.317V60.8111C168.339 60.8738 168.317 60.9349 168.277 60.9832C168.223 61.0427 168.153 61.0856 168.076 61.1069C167.952 61.1462 167.825 61.1714 167.695 61.182C167.539 61.1976 167.335 61.207 167.093 61.207C166.85 61.207 166.647 61.1976 166.489 61.182C166.36 61.1714 166.232 61.1462 166.109 61.1069C166.031 61.0856 165.961 61.0427 165.907 60.9832C165.867 60.9346 165.846 60.8737 165.847 60.8111V52.0011C165.846 51.9401 165.863 51.8801 165.896 51.8289C165.941 51.7702 166.003 51.727 166.074 51.7053C166.181 51.6673 166.293 51.6426 166.406 51.6318C166.575 51.613 166.745 51.6046 166.914 51.6067C167.09 51.6047 167.265 51.613 167.439 51.6318C167.546 51.6418 167.651 51.6666 167.752 51.7053C167.814 51.731 167.869 51.7738 167.908 51.8289C167.942 51.8799 167.959 51.9399 167.958 52.0011V53.0965C168.155 52.8092 168.373 52.5367 168.609 52.2812C168.786 52.0921 168.981 51.9217 169.193 51.7726C169.361 51.655 169.548 51.5667 169.745 51.5113C169.926 51.4617 170.112 51.4365 170.299 51.4362C170.385 51.4362 170.478 51.4362 170.576 51.4518C170.681 51.4622 170.786 51.4784 170.889 51.5003C170.983 51.5206 171.076 51.5473 171.166 51.5801C171.229 51.6009 171.287 51.6327 171.338 51.674C171.372 51.7036 171.399 51.7405 171.417 51.782C171.437 51.8324 171.452 51.8848 171.462 51.9385C171.478 52.042 171.488 52.1466 171.492 52.2514C171.506 52.397 171.509 52.5847 171.509 52.821Z" fill="black"/>
<path d="M179 58.3261C179.009 58.7832 178.913 59.2363 178.718 59.6499C178.533 60.0278 178.26 60.3561 177.923 60.6076C177.558 60.8754 177.145 61.0718 176.707 61.1866C176.211 61.3186 175.698 61.3834 175.185 61.3791C174.592 61.381 174.003 61.2928 173.437 61.1178C173.233 61.0552 173.035 60.9772 172.844 60.8846C172.718 60.8275 172.602 60.7526 172.498 60.6624C172.414 60.5707 172.355 60.4584 172.329 60.3369C172.283 60.1209 172.264 59.9003 172.271 59.6797C172.269 59.5261 172.276 59.3725 172.29 59.2196C172.299 59.1253 172.319 59.0324 172.349 58.9426C172.366 58.8872 172.401 58.8388 172.448 58.8049C172.493 58.7804 172.545 58.7685 172.596 58.7705C172.709 58.7867 172.816 58.829 172.909 58.8941C173.052 58.9755 173.222 59.0662 173.438 59.1664C173.677 59.2756 173.923 59.3676 174.175 59.4418C174.485 59.5317 174.806 59.5749 175.128 59.5701C175.33 59.5733 175.531 59.5501 175.726 59.5013C175.887 59.4614 176.041 59.3948 176.18 59.3041C176.305 59.223 176.406 59.1101 176.472 58.9771C176.541 58.8356 176.574 58.6802 176.571 58.5233C176.575 58.3369 176.51 58.1557 176.388 58.0147C176.252 57.8614 176.088 57.7355 175.904 57.6438C175.684 57.5306 175.456 57.4318 175.222 57.3481C174.969 57.2557 174.707 57.1525 174.44 57.0351C174.172 56.922 173.911 56.7935 173.657 56.6501C173.406 56.5059 173.176 56.3256 172.977 56.115C172.768 55.8945 172.604 55.6364 172.492 55.3545C172.362 55.014 172.299 54.6515 172.308 54.2872C172.304 53.8867 172.389 53.4902 172.556 53.1261C172.72 52.7743 172.964 52.4653 173.268 52.2232C173.604 51.9581 173.988 51.76 174.399 51.6395C174.885 51.4954 175.39 51.4252 175.897 51.4314C176.166 51.4312 176.435 51.451 176.701 51.4909C176.94 51.5256 177.176 51.5752 177.408 51.6395C177.591 51.6888 177.769 51.7532 177.94 51.832C178.05 51.8806 178.155 51.9404 178.253 52.0104C178.307 52.0499 178.352 52.0999 178.386 52.1575C178.414 52.2138 178.435 52.2739 178.446 52.3359C178.458 52.4047 178.469 52.4924 178.48 52.5925C178.491 52.6927 178.494 52.8225 178.494 52.9728C178.494 53.1512 178.494 53.2967 178.48 53.4078C178.474 53.4986 178.457 53.5885 178.43 53.6754C178.416 53.7295 178.382 53.7767 178.336 53.8084C178.294 53.8322 178.247 53.8441 178.199 53.8428C178.1 53.8292 178.005 53.794 177.922 53.7395C177.769 53.6572 177.612 53.583 177.452 53.5173C177.24 53.4293 177.022 53.3551 176.8 53.2951C176.524 53.2214 176.24 53.1861 175.955 53.1903C175.758 53.1868 175.562 53.2105 175.372 53.2607C175.225 53.2976 175.087 53.3648 174.967 53.4579C174.866 53.5383 174.784 53.6411 174.729 53.7583C174.677 53.875 174.651 54.0014 174.651 54.1292C174.645 54.3185 174.713 54.5028 174.839 54.644C174.98 54.7942 175.148 54.9177 175.333 55.0086C175.558 55.1241 175.791 55.2234 176.03 55.3059C176.289 55.3988 176.55 55.4989 176.812 55.6064C177.08 55.718 177.341 55.8455 177.594 55.9882C177.852 56.1302 178.086 56.3095 178.291 56.5203C178.501 56.7399 178.669 56.9967 178.785 57.2776C178.928 57.6088 179.001 57.9656 179 58.3261Z" fill="black"/>
<path d="M33.8943 54.3764C33.8943 54.9523 33.8771 55.4411 33.8427 55.8427C33.817 56.1915 33.7647 56.5378 33.6862 56.8786C33.6278 57.1375 33.5352 57.3875 33.4108 57.6219C33.2564 57.8795 33.0709 58.117 32.8584 58.3292C32.4142 58.7295 31.9209 59.0718 31.3906 59.3479C30.5393 59.8197 29.6493 60.2181 28.7304 60.5388C27.5612 60.9513 26.3608 61.269 25.1406 61.4886C23.6997 61.7505 22.2376 61.8778 20.7732 61.8689C17.9451 61.9105 15.1335 61.4304 12.4795 60.4527C10.0836 59.5552 7.93164 58.1081 6.19669 56.2276C4.38259 54.199 3.02834 51.8022 2.2267 49.2015C1.25379 46.0246 0.790069 42.7136 0.852773 39.3916C0.795866 35.959 1.30933 32.5408 2.37223 29.2765C3.26539 26.5376 4.71083 24.011 6.6192 21.8529C8.42616 19.8569 10.6635 18.2981 13.1618 17.2945C15.8362 16.2352 18.6917 15.7079 21.5681 15.7422C22.7747 15.7394 23.9792 15.8441 25.1672 16.0551C26.2505 16.2462 27.3181 16.5177 28.361 16.8673C29.2742 17.1719 30.1578 17.559 31.0009 18.0237C31.5932 18.3271 32.1447 18.7041 32.6424 19.1457C32.8881 19.3779 33.1027 19.6409 33.2809 19.9281C33.4104 20.1785 33.5032 20.4462 33.5563 20.723C33.6338 21.0989 33.6861 21.4795 33.7128 21.8623C33.7483 22.2994 33.766 22.8403 33.766 23.485C33.766 24.1756 33.7425 24.7624 33.6956 25.2454C33.6675 25.6456 33.5864 26.0402 33.4546 26.4191C33.372 26.6682 33.2297 26.8934 33.0399 27.0747C32.8881 27.2104 32.6911 27.2846 32.4875 27.2828C31.9987 27.2211 31.5408 27.0102 31.1762 26.6788C30.5171 26.1915 29.8312 25.7417 29.1216 25.3315C28.1668 24.7851 27.1604 24.3343 26.1171 23.9857C24.7736 23.5558 23.368 23.3517 21.9577 23.3817C20.3345 23.338 18.7257 23.6971 17.2752 24.4271C15.8246 25.157 14.5775 26.2349 13.6453 27.5645C12.6067 29.0411 11.8511 30.6976 11.417 32.4499C10.8872 34.5605 10.6321 36.7306 10.658 38.9065C10.6182 41.2059 10.8909 43.5 11.4686 45.726C11.9118 47.4486 12.6991 49.0636 13.783 50.4737C14.7435 51.6848 15.9885 52.6395 17.4072 53.2529C18.9218 53.8819 20.5495 54.1929 22.1893 54.1668C23.6032 54.195 25.0128 54.0029 26.3674 53.5972C27.4114 53.2746 28.423 52.8555 29.3891 52.3453C30.2237 51.8852 30.9138 51.4711 31.4594 51.1028C31.8219 50.8076 32.2579 50.6166 32.7207 50.5504C32.9144 50.5408 33.1066 50.5887 33.2731 50.6881C33.444 50.8306 33.5647 51.0243 33.6173 51.2405C33.7283 51.6173 33.7981 52.0051 33.8255 52.3969C33.8708 52.8867 33.8943 53.5408 33.8943 54.3764Z" fill="black"/>
<path d="M75.6331 38.1489C75.7163 41.7199 75.1735 45.2779 74.0292 48.6615C73.0882 51.3741 71.5068 53.8198 69.4192 55.7909C67.3264 57.6831 64.8282 59.0711 62.1161 59.8485C58.7849 60.7733 55.337 61.2092 51.8805 61.1427H41.2114C40.5115 61.1642 39.8286 60.9244 39.296 60.4698C39.014 60.1836 38.7979 59.8392 38.6628 59.4608C38.5276 59.0825 38.4767 58.6791 38.5136 58.279V19.3318C38.4767 18.9317 38.5276 18.5283 38.6628 18.1499C38.7979 17.7715 39.014 17.4272 39.296 17.141C39.8286 16.6864 40.5115 16.4465 41.2114 16.4681H52.6738C56.1048 16.389 59.5262 16.8608 62.8077 17.8655C65.4244 18.7055 67.8194 20.1215 69.8166 22.0092C71.7601 23.9104 73.2424 26.2314 74.1497 28.7943C75.19 31.8011 75.6922 34.9678 75.6331 38.1489ZM66.2441 38.4619C66.2601 36.4702 66.0106 34.4852 65.5024 32.5593C65.0525 30.8316 64.2407 29.2192 63.1207 27.8288C61.9878 26.4629 60.543 25.3894 58.9081 24.6992C56.7566 23.8738 54.4603 23.4921 52.1574 23.5772H47.5646V53.9616H52.2951C54.4304 54.0178 56.5584 53.6903 58.578 52.9946C60.2198 52.3921 61.6855 51.3895 62.8421 50.0777C64.0393 48.6676 64.9117 47.0115 65.3975 45.2267C65.996 43.0217 66.2805 40.7433 66.2425 38.4588L66.2441 38.4619Z" fill="black"/>
<path d="M85.3413 59.9001C85.3431 60.1287 85.2638 60.3505 85.1175 60.5261C84.9165 60.7422 84.6591 60.8978 84.3742 60.9752C83.9243 61.112 83.462 61.2043 82.994 61.2506C81.5301 61.3904 80.0561 61.3904 78.5922 61.2506C78.1179 61.2051 77.6493 61.1129 77.1932 60.9752C76.9088 60.8979 76.6518 60.7423 76.4515 60.5261C76.304 60.3511 76.224 60.129 76.2261 59.9001L84.8327 17.709C84.8306 17.4801 84.9106 17.2581 85.0581 17.0831C85.2632 16.8642 85.5265 16.7085 85.817 16.634C86.2738 16.4992 86.7422 16.407 87.216 16.3585C87.9384 16.2822 88.6647 16.2478 89.3911 16.2553C90.129 16.2473 90.8667 16.2818 91.6006 16.3585C92.0685 16.4056 92.5307 16.4979 92.9808 16.634C93.2657 16.7113 93.5232 16.8669 93.7241 17.0831C93.8705 17.2586 93.9497 17.4804 93.9479 17.709L85.3413 59.9001Z" fill="black"/>
<path d="M94.4565 11.6798C94.4586 11.9087 94.3787 12.1307 94.2312 12.3057C94.0312 12.5223 93.7741 12.678 93.4895 12.7548C93.0395 12.8917 92.5772 12.9839 92.1093 13.0302C90.6453 13.17 89.1714 13.17 87.7074 13.0302C87.2331 12.985 86.7645 12.8927 86.3084 12.7548C86.0238 12.678 85.7667 12.5223 85.5667 12.3057C85.4192 12.1307 85.3393 11.9087 85.3413 11.6798V1.8354C85.3393 1.60653 85.4192 1.38448 85.5667 1.20946C85.7718 0.990649 86.0351 0.834856 86.3256 0.760355C86.7825 0.625641 87.2508 0.533446 87.7246 0.484944C88.4469 0.407236 89.1732 0.372228 89.8997 0.380101C90.6377 0.371795 91.3754 0.406803 92.1093 0.484944C92.5771 0.532052 93.0393 0.624285 93.4895 0.760355C93.7741 0.8372 94.0312 0.992882 94.2312 1.20946C94.3787 1.38448 94.4586 1.60653 94.4565 1.8354V11.6798Z" fill="black"/>
</g>
</svg>
