<svg width="119" height="75" viewBox="0 0 119 75" fill="none" xmlns="http://www.w3.org/2000/svg">
<g opacity="0.7">
<path d="M27.4926 26.6704V5.98608H34.2733V1.05762H15.2842V5.98608H22.0662V26.6704H27.4926Z" fill="black"/>
<path d="M36.1187 0.120117V26.6692H41.1738V13.0127C42.1833 12.338 43.3678 11.9729 44.5819 11.9624C45.0347 11.9586 45.483 12.0519 45.8966 12.236C46.3102 12.4201 46.6796 12.6908 46.9797 13.0297C47.2799 13.3687 47.5039 13.768 47.6367 14.2009C47.7694 14.6338 47.8078 15.09 47.7493 15.539V26.6692H52.7766V15.2261C52.7766 9.50448 48.9263 7.47354 45.6297 7.47354C44.059 7.46924 42.518 7.90176 41.1789 8.72276V0.120117H36.1187Z" fill="black"/>
<path d="M64.7081 27.1391C67.445 27.17 70.106 26.2397 72.2275 24.5102L72.5012 24.3011L69.2628 20.9982L69.0449 21.1946C67.8669 22.1618 66.3882 22.6875 64.8639 22.6807C63.8575 22.6963 62.8717 22.3948 62.0461 21.8191C61.2205 21.2434 60.5969 20.4225 60.2636 19.4728H74.2698L74.3066 19.2105C74.4044 18.5748 74.4569 17.9329 74.4637 17.2898C74.4774 16.0009 74.2337 14.7223 73.7467 13.5289C73.2598 12.3354 72.5394 11.2513 71.628 10.3399C70.7165 9.42853 69.6322 8.70834 68.4387 8.22155C67.2452 7.73476 65.9666 7.49118 64.6777 7.50508C62.0832 7.51615 59.5991 8.55586 57.7702 10.3961C55.9413 12.2364 54.9171 14.727 54.9221 17.3215C54.9062 18.6125 55.1482 19.8937 55.634 21.0899C56.1198 22.2862 56.8395 23.3734 57.751 24.2878C58.6624 25.2022 59.7473 25.9255 60.942 26.4151C62.1366 26.9047 63.4171 27.1509 64.7081 27.1391ZM60.2585 15.2297C60.5727 14.3092 61.1625 13.5076 61.9478 12.9337C62.7332 12.3598 63.6761 12.0414 64.6486 12.0218C65.6271 12.0451 66.5757 12.3641 67.3697 12.9366C68.1636 13.5092 68.7657 14.3086 69.0968 15.2297H60.2585Z" fill="black"/>
<path d="M27.4901 56.1323V35.4492H34.2709V30.5208H15.2817V35.4492H22.0638V56.1323H27.4901Z" fill="black"/>
<path d="M45.2551 56.6011C47.8593 56.6011 50.3567 55.5666 52.1981 53.7252C54.0396 51.8838 55.074 49.3863 55.074 46.7822C55.074 44.178 54.0396 41.6806 52.1981 39.8392C50.3567 37.9977 47.8593 36.9633 45.2551 36.9633C42.6606 36.9743 40.1765 38.014 38.3476 39.8543C36.5187 41.6946 35.4945 44.1852 35.4995 46.7796C35.4809 48.069 35.7201 49.3491 36.2029 50.5448C36.6858 51.7404 37.4026 52.8276 38.3114 53.7425C39.2201 54.6574 40.3024 55.3815 41.4948 55.8724C42.6872 56.3633 43.9657 56.611 45.2551 56.6011ZM40.4977 46.7834C40.4386 46.123 40.5177 45.4574 40.7299 44.8291C40.9421 44.2009 41.2829 43.6237 41.7304 43.1343C42.1779 42.645 42.7224 42.2542 43.3293 41.9868C43.9361 41.7194 44.592 41.5814 45.2551 41.5814C45.9183 41.5814 46.5741 41.7194 47.181 41.9868C47.7878 42.2542 48.3323 42.645 48.7798 43.1343C49.2274 43.6237 49.5681 44.2009 49.7803 44.8291C49.9926 45.4574 50.0716 46.123 50.0126 46.7834C50.0716 47.4439 49.9926 48.1095 49.7803 48.7378C49.5681 49.366 49.2274 49.9432 48.7798 50.4326C48.3323 50.9219 47.7878 51.3127 47.181 51.5801C46.5741 51.8475 45.9183 51.9855 45.2551 51.9855C44.592 51.9855 43.9361 51.8475 43.3293 51.5801C42.7224 51.3127 42.1779 50.9219 41.7304 50.4326C41.2829 49.9432 40.9421 49.366 40.7299 48.7378C40.5177 48.1095 40.4386 47.4439 40.4977 46.7834Z" fill="black"/>
<path d="M66.1546 56.164L69.4614 46.0435L72.7682 56.164H77.0467L83.199 37.4054H77.8867L74.7687 47.9655L71.6216 37.4054H67.2391L64.1224 47.9604L61.0057 37.4054H55.6934L61.8774 56.164H66.1546Z" fill="black"/>
<path d="M103.236 48.6724C103.334 48.0371 103.387 47.3957 103.394 46.753C103.408 45.464 103.165 44.1851 102.678 42.9915C102.191 41.7978 101.471 40.7134 100.559 39.8019C99.648 38.8903 98.5636 38.17 97.3699 37.6832C96.1763 37.1964 94.8974 36.9529 93.6084 36.967C91.0139 36.9781 88.5298 38.0178 86.7009 39.8581C84.872 41.6983 83.8477 44.1889 83.8528 46.7834C83.8367 48.0745 84.0786 49.3557 84.5643 50.552C85.05 51.7484 85.7697 52.8357 86.6813 53.7501C87.5928 54.6646 88.6777 55.3878 89.8725 55.8774C91.0672 56.3669 92.3477 56.613 93.6388 56.6011C96.3756 56.6313 99.0364 55.701 101.158 53.9721L101.432 53.7631L98.1935 50.4601L97.9769 50.6565C96.7987 51.6234 95.32 52.149 93.7959 52.1426C92.7894 52.1586 91.8034 51.8574 90.9776 51.2819C90.1517 50.7064 89.5278 49.8857 89.1943 48.936H103.198L103.236 48.6724ZM93.5767 41.4875C94.5554 41.5105 95.5041 41.8293 96.2982 42.4019C97.0922 42.9745 97.6942 43.7741 98.025 44.6955H89.1867C89.5007 43.7748 90.0904 42.9731 90.8758 42.3992C91.6612 41.8253 92.6042 41.507 93.5767 41.4875Z" fill="black"/>
<path d="M114.224 36.967C113.522 36.9787 112.831 37.1488 112.204 37.4648C111.577 37.7807 111.029 38.2342 110.601 38.7915V37.4358H105.549V56.1323H110.608V45.6254C110.608 42.9091 112.186 41.9246 113.249 41.9246C114.363 42.1121 115.36 42.7261 116.028 43.6363L116.299 43.9429L119 39.5795L118.84 39.4097C118.282 38.7052 117.583 38.1244 116.788 37.7039C115.994 37.2834 115.12 37.0325 114.224 36.967Z" fill="black"/>
<path d="M5.08314 69.8711L3.22071 64.5537H0.866699V72.7674H2.71266V68.333L4.32043 72.7674H5.81797L7.37126 68.3736V72.7674H9.22736V64.5537H6.88095L5.08314 69.8711Z" fill="black"/>
<path d="M15.1649 71.3448C15.1649 71.3207 15.1649 71.289 15.1649 71.2459V68.446C15.1649 67.1929 14.2451 66.4758 12.6399 66.4758C10.6127 66.4758 10.0679 67.6414 9.96912 68.6183L9.93618 68.954H11.6668L11.7023 68.6892C11.7758 68.1317 11.9785 67.9708 12.6044 67.9708C13.4102 67.9708 13.4102 68.2888 13.4102 68.4992C13.4134 68.5717 13.4083 68.6444 13.395 68.7158C13.0808 68.8275 12.7523 68.8936 12.4194 68.9122L12.3472 68.9211C11.3058 69.0554 9.73347 69.2568 9.73347 70.9558C9.72688 71.229 9.77887 71.5005 9.88593 71.7519C9.993 72.0034 10.1527 72.229 10.3542 72.4136C10.5557 72.5982 10.7944 72.7375 11.0543 72.8221C11.3141 72.9068 11.5891 72.9348 11.8607 72.9044C12.4815 72.9239 13.0944 72.7604 13.623 72.4343C13.7366 72.594 13.8898 72.7213 14.0675 72.8037C14.2452 72.8861 14.4414 72.9208 14.6366 72.9044C14.9249 72.9023 15.2116 72.8597 15.488 72.7777L15.7211 72.7194V71.2738L15.3702 71.3257C15.3026 71.3392 15.2338 71.3455 15.1649 71.3448ZM13.4013 70.1487V70.3882C13.4386 70.6316 13.3835 70.8802 13.2467 71.085C12.9671 71.324 12.607 71.4476 12.2395 71.4309C11.5706 71.4309 11.5706 71.0419 11.5706 70.914C11.5706 70.5111 11.8125 70.4072 12.4942 70.297C12.5765 70.2843 12.6601 70.2742 12.7476 70.264C12.968 70.2418 13.1865 70.2033 13.4013 70.1487Z" fill="black"/>
<path d="M17.6758 64.5537H15.8818V72.7674H17.6758V64.5537Z" fill="black"/>
<path d="M20.1985 64.5537H18.4058V72.7674H20.1985V64.5537Z" fill="black"/>
<path d="M28.173 69.8711L26.3093 64.5537H23.9565V72.7674H25.8012V68.3343L27.409 72.7674H28.9065L30.4598 68.3736V72.7674H32.3159V64.5537H29.9695L28.173 69.8711Z" fill="black"/>
<path d="M38.2558 71.3448C38.2541 71.3118 38.2541 71.2789 38.2558 71.2459V68.446C38.2558 67.1929 37.336 66.4758 35.732 66.4758C33.7049 66.4758 33.1601 67.6414 33.0612 68.6183L33.0283 68.954H34.764L34.7982 68.6892C34.8717 68.1317 35.0744 67.9721 35.7003 67.9721C36.5061 67.9721 36.5061 68.2888 36.5061 68.4992C36.5095 68.5717 36.5044 68.6444 36.4909 68.7158C36.1768 68.8277 35.8483 68.8938 35.5153 68.9122L35.4419 68.9223C34.4017 69.0554 32.8307 69.2568 32.8307 70.9558C32.8239 71.229 32.8757 71.5005 32.9826 71.752C33.0896 72.0035 33.2491 72.2292 33.4505 72.4139C33.6519 72.5986 33.8905 72.7381 34.1503 72.8229C34.4101 72.9077 34.685 72.9359 34.9566 72.9056C35.5774 72.9247 36.1901 72.7613 36.719 72.4356C36.8334 72.5943 36.9867 72.7209 37.1642 72.8033C37.3417 72.8856 37.5374 72.9208 37.7325 72.9056C38.0208 72.903 38.3073 72.8603 38.5839 72.7789L38.8132 72.7194V71.2738L38.4636 71.327C38.3949 71.3386 38.3254 71.3445 38.2558 71.3448ZM36.4909 70.1487V70.3882C36.528 70.6314 36.4734 70.8798 36.3376 71.085C36.0561 71.3251 35.6936 71.4489 35.324 71.4309C34.6551 71.4309 34.6551 71.0419 34.6551 70.914C34.6551 70.5111 34.8971 70.4072 35.5787 70.297C35.6623 70.2843 35.7447 70.2742 35.8321 70.264C36.0543 70.2421 36.2745 70.2036 36.4909 70.1487Z" fill="black"/>
<path d="M42.1664 66.4973C41.6302 66.4752 41.1036 66.644 40.6803 66.9737V66.6468H38.9395V72.7675H40.7436V69.4936C40.7436 68.2634 41.3226 68.1215 41.7572 68.1215C42.34 68.1215 42.4996 68.3661 42.4996 69.2618V72.7713H44.3038V68.7879C44.3484 68.4901 44.3252 68.186 44.2359 67.8983C44.1466 67.6107 43.9935 67.3469 43.788 67.1267C43.5825 66.9065 43.33 66.7355 43.0492 66.6265C42.7684 66.5175 42.4666 66.4734 42.1664 66.4973Z" fill="black"/>
<path d="M50.0878 71.3448C50.0878 71.3207 50.0878 71.289 50.0878 71.2459V68.446C50.0878 67.1929 49.1667 66.4758 47.5628 66.4758C45.5356 66.4758 44.9908 67.6414 44.892 68.6183L44.8616 68.954H46.5961L46.6315 68.6892C46.705 68.1317 46.9077 67.9708 47.5336 67.9708C48.3394 67.9708 48.3394 68.2888 48.3394 68.4992C48.3433 68.5722 48.3377 68.6454 48.3229 68.7171C48.0081 68.826 47.6799 68.8917 47.3474 68.9122L47.2752 68.9223C46.235 69.0554 44.6627 69.2568 44.6627 70.9558C44.6559 71.229 44.7078 71.5005 44.8147 71.752C44.9216 72.0035 45.0811 72.2292 45.2825 72.4139C45.4839 72.5986 45.7225 72.7381 45.9823 72.8229C46.2421 72.9077 46.517 72.9359 46.7887 72.9056C47.4094 72.9247 48.0222 72.7613 48.551 72.4356C48.6654 72.5943 48.8187 72.7209 48.9963 72.8033C49.1738 72.8856 49.3695 72.9208 49.5646 72.9056C49.8524 72.9031 50.1386 72.8604 50.4147 72.7789L50.644 72.7194V71.2738L50.2943 71.327C50.2262 71.3394 50.1571 71.3453 50.0878 71.3448ZM48.3242 70.1487V70.3857C48.3614 70.6299 48.3063 70.8792 48.1696 71.085C47.8899 71.324 47.5299 71.4476 47.1624 71.4309C46.4935 71.4309 46.4934 71.0419 46.4934 70.914C46.4934 70.5111 46.7354 70.4072 47.4171 70.2957L47.6705 70.2628C47.891 70.2416 48.1095 70.2034 48.3242 70.1487Z" fill="black"/>
<path d="M54.6063 66.9357C54.2116 66.6311 53.7221 66.4758 53.224 66.4973C52.8309 66.507 52.4441 66.5992 52.0889 66.768C51.7337 66.9367 51.4179 67.1782 51.162 67.4769C50.9061 67.7755 50.7159 68.1246 50.6036 68.5015C50.4913 68.8784 50.4595 69.2747 50.5102 69.6647C50.4588 70.0437 50.4889 70.4293 50.5984 70.7958C50.7079 71.1623 50.8943 71.5012 51.1451 71.7899C51.3959 72.0786 51.7055 72.3105 52.053 72.4701C52.4006 72.6298 52.7782 72.7134 53.1607 72.7156C53.6662 72.7361 54.1635 72.5837 54.5708 72.2835C54.5328 73.2515 54.1122 73.4517 53.4546 73.4517C52.7565 73.4517 52.5677 73.2211 52.4968 72.8739L52.4461 72.6294H50.6597L50.7002 72.9702C50.8092 73.8571 51.3679 74.915 53.4242 74.915C55.4032 74.915 56.3255 73.9331 56.3255 71.8223V66.6456H54.6063V66.9357ZM53.4331 71.1534C52.7362 71.1534 52.3029 70.5744 52.3029 69.6432C52.3029 69.1757 52.4132 68.0886 53.4331 68.0886C54.453 68.0886 54.5733 69.1301 54.5733 69.5786C54.5746 70.5643 54.1476 71.1534 53.4331 71.1534Z" fill="black"/>
<path d="M60.6858 70.644C60.4869 71.2255 60.2158 71.4422 59.6862 71.4422C59.5352 71.4461 59.385 71.4196 59.2444 71.3644C59.1038 71.3092 58.9757 71.2263 58.8677 71.1207C58.7597 71.0151 58.674 70.8889 58.6157 70.7495C58.5574 70.6102 58.5277 70.4606 58.5282 70.3095H62.4951V69.8775C62.4951 67.8174 61.3675 66.4858 59.6241 66.4858C59.2122 66.497 58.807 66.5924 58.4333 66.7662C58.0597 66.9399 57.7256 67.1883 57.4517 67.4961C57.1777 67.8039 56.9697 68.1646 56.8404 68.5558C56.7111 68.9471 56.6633 69.3606 56.7 69.7711C56.6628 70.1797 56.7123 70.5916 56.8453 70.9798C56.9783 71.368 57.1918 71.7237 57.4718 72.0237C57.7518 72.3236 58.092 72.5611 58.4701 72.7205C58.8482 72.8799 59.2557 72.9576 59.6659 72.9486C60.3036 72.9785 60.9309 72.7795 61.4348 72.3876C61.9387 71.9957 62.286 71.4366 62.414 70.8112L62.4976 70.4387H60.7568L60.6858 70.644ZM60.6402 68.8893H58.584C58.6217 68.6436 58.7461 68.4196 58.9347 68.2577C59.1233 68.0958 59.3636 68.0069 59.6121 68.0069C59.8606 68.0069 60.1009 68.0958 60.2895 68.2577C60.4781 68.4196 60.6025 68.6436 60.6402 68.8893Z" fill="black"/>
<path d="M69.1944 66.4973C68.8764 66.4896 68.5602 66.5488 68.2665 66.671C67.9727 66.7932 67.7079 66.9758 67.4891 67.2068C67.3048 66.9744 67.0681 66.789 66.7983 66.6657C66.5285 66.5424 66.2334 66.4847 65.9371 66.4973C65.4326 66.4838 64.9393 66.6479 64.5434 66.961V66.6455H62.8052V72.7675H64.6081V69.2897C64.6081 68.7614 64.7702 68.1317 65.5393 68.1317C65.9776 68.1317 66.1246 68.2584 66.1246 69.0186V72.7738H67.9288V69.2263C67.9288 68.5004 68.224 68.1317 68.8068 68.1317C69.2439 68.1317 69.4656 68.2786 69.4656 69.0768V72.7675H71.2697V68.5574C71.2851 68.2815 71.2419 68.0055 71.1428 67.7475C71.0438 67.4896 70.8912 67.2556 70.6951 67.0609C70.499 66.8663 70.2639 66.7154 70.0052 66.6182C69.7465 66.5211 69.4702 66.4799 69.1944 66.4973Z" fill="black"/>
<path d="M75.6174 70.644C75.4185 71.2255 75.1473 71.4422 74.6177 71.4422C74.4667 71.4463 74.3164 71.4199 74.1757 71.3648C74.035 71.3096 73.9069 71.2267 73.7989 71.1211C73.6909 71.0154 73.6052 70.8892 73.5469 70.7497C73.4887 70.6103 73.459 70.4606 73.4598 70.3095H77.4215V69.8775C77.4215 67.8174 76.2952 66.4858 74.5519 66.4858C74.14 66.497 73.7347 66.5924 73.3611 66.7662C72.9875 66.9399 72.6534 67.1883 72.3794 67.4961C72.1054 67.8039 71.8974 68.1646 71.7681 68.5558C71.6389 68.9471 71.5911 69.3606 71.6277 69.7711C71.5905 70.1797 71.64 70.5916 71.773 70.9798C71.906 71.368 72.1195 71.7237 72.3995 72.0237C72.6795 72.3236 73.0197 72.5611 73.3978 72.7205C73.7759 72.8799 74.1834 72.9576 74.5937 72.9486C75.2315 72.9784 75.859 72.7793 76.3629 72.3871C76.8668 71.995 77.214 71.4356 77.3417 70.81L77.4253 70.4387H75.6883L75.6174 70.644ZM75.5718 68.8893H73.5155C73.5532 68.6436 73.6776 68.4196 73.8662 68.2577C74.0548 68.0958 74.2951 68.0069 74.5436 68.0069C74.7922 68.0069 75.0325 68.0958 75.2211 68.2577C75.4097 68.4196 75.5341 68.6436 75.5718 68.8893Z" fill="black"/>
<path d="M80.9696 66.4972C80.4334 66.4749 79.9067 66.6437 79.4835 66.9736V66.6467H77.7363V72.7674H79.5392V69.4936C79.5392 68.2634 80.1195 68.1215 80.5528 68.1215C81.1356 68.1215 81.2952 68.366 81.2952 69.2617V72.77H83.0981V68.7917C83.1434 68.4943 83.121 68.1905 83.0325 67.903C82.9441 67.6154 82.7919 67.3516 82.5873 67.131C82.3827 66.9105 82.131 66.739 81.8509 66.6292C81.5708 66.5195 81.2696 66.4744 80.9696 66.4972Z" fill="black"/>
<path d="M85.8964 64.991H84.0922V66.6469H83.1914V68.1432H84.0922V70.6644C83.9917 71.2732 84.1346 71.8971 84.49 72.4014C84.6812 72.5602 84.9022 72.679 85.14 72.7511C85.3779 72.8231 85.6277 72.8468 85.8748 72.8208C86.1564 72.8266 86.438 72.8117 86.7174 72.7764L86.9859 72.7435V71.1674L86.6439 71.2092C86.5072 71.2247 86.3696 71.2311 86.2321 71.2282C86.0129 71.2282 85.9356 71.1927 85.9293 71.1826C85.8956 71.0386 85.8845 70.8903 85.8964 70.743V68.1432H86.9847V66.6469H85.8964V64.991Z" fill="black"/>
<path d="M93.8553 69.2682H96.7439C96.7589 69.6213 96.7002 69.9736 96.5717 70.3028C96.4432 70.632 96.2476 70.9309 95.9974 71.1805C95.7472 71.4301 95.4479 71.625 95.1184 71.7527C94.7888 71.8804 94.4364 71.9382 94.0833 71.9224C92.3032 71.9224 91.1541 70.6023 91.1541 68.5587C91.1541 66.42 92.2944 65.0391 94.0681 65.0391C94.655 65.0133 95.2317 65.1986 95.6938 65.5614C96.1558 65.9242 96.4726 66.4405 96.5868 67.0168L96.6375 67.2588H97.6929L97.6409 66.9091C97.5042 66.0721 97.0655 65.3142 96.4079 64.7787C95.7503 64.2432 94.9193 63.9671 94.0719 64.0027C91.7166 64.0027 90.0721 65.8753 90.0721 68.5637C90.0217 69.1199 90.0875 69.6805 90.2655 70.2098C90.4435 70.7391 90.7297 71.2256 91.1059 71.6382C91.4821 72.0509 91.9401 72.3808 92.4507 72.6068C92.9614 72.8329 93.5135 72.9502 94.0719 72.9512C94.589 72.9628 95.1021 72.8575 95.5729 72.6431C96.0436 72.4288 96.46 72.111 96.7908 71.7134L96.8402 72.7726H97.7765V68.2533H93.8553V69.2669V69.2682Z" fill="black"/>
<path d="M101.647 66.3694H101.343C100.993 66.3413 100.64 66.3917 100.311 66.5168C99.9827 66.642 99.6859 66.8387 99.4427 67.0928V66.4137H98.4038V72.7675H99.4528V69.9802C99.3796 69.3205 99.5252 68.655 99.8671 68.0861C100.016 67.8797 100.212 67.7127 100.44 67.5994C100.667 67.4861 100.919 67.4301 101.173 67.4361H101.643V66.3656L101.647 66.3694Z" fill="black"/>
<path d="M104.137 66.2452C103.717 66.2501 103.303 66.3433 102.921 66.5187C102.54 66.6942 102.2 66.948 101.923 67.2637C101.646 67.5793 101.439 67.9497 101.315 68.3507C101.191 68.7518 101.152 69.1745 101.202 69.5913C101.202 71.6184 102.349 72.936 104.125 72.936C104.543 72.937 104.956 72.8488 105.337 72.6772C105.718 72.5055 106.057 72.2545 106.333 71.9409C106.609 71.6274 106.815 71.2584 106.937 70.8589C107.059 70.4593 107.093 70.0384 107.039 69.6242C107.037 67.6034 105.872 66.2452 104.137 66.2452ZM104.125 67.2487C105.243 67.2487 105.965 68.1812 105.965 69.6242C105.965 71.0673 105.264 71.9339 104.137 71.9339C102.98 71.9339 102.263 71.0356 102.263 69.5913C102.263 68.1672 102.994 67.2487 104.125 67.2487Z" fill="black"/>
<path d="M111.367 69.8382C111.367 70.8517 110.945 71.9337 109.758 71.9337C109.186 71.9337 108.424 71.7665 108.424 70.3196V66.4136H107.375V70.421C107.33 70.7429 107.358 71.0705 107.454 71.3808C107.551 71.691 107.714 71.9762 107.933 72.2162C108.152 72.4562 108.422 72.645 108.722 72.7694C109.022 72.8938 109.346 72.9506 109.67 72.9359C109.987 72.9459 110.303 72.8914 110.599 72.7755C110.894 72.6596 111.163 72.4849 111.388 72.2619V72.7686H112.417V66.4148H111.367V69.8356V69.8382Z" fill="black"/>
<path d="M115.983 66.2566C115.65 66.2436 115.317 66.3013 115.008 66.426C114.698 66.5507 114.418 66.7395 114.187 66.98V66.4137H113.159V74.8427H114.209V72.2873C114.446 72.5153 114.726 72.6933 115.032 72.8104C115.339 72.9275 115.666 72.9814 115.995 72.9689C117.676 72.9689 118.806 71.6247 118.806 69.6241C118.806 67.578 117.699 66.2566 115.983 66.2566ZM114.187 69.6355C114.187 68.1152 114.834 67.2486 115.96 67.2486C117.055 67.2486 117.734 68.1595 117.734 69.6241C117.734 71.0545 117.042 71.9781 115.971 71.9781C114.655 71.9781 114.187 70.7682 114.187 69.6355Z" fill="black"/>
<path d="M9.59533 1.30847H0.517578V56.762H9.59533V1.30847Z" fill="black"/>
</g>
</svg>
