<svg width="50" height="50" viewBox="0 0 50 50" fill="none" xmlns="http://www.w3.org/2000/svg">
<circle cx="25" cy="25" r="25" fill="#009789"/>
<path d="M25 14.3275C14.3124 14.3275 8.86938 25.0813 8.86938 25.0813C8.86938 25.0813 14.3124 35.835 25 35.835C35.6887 35.835 41.1306 25.0813 41.1306 25.0813C41.1306 25.0813 35.6887 14.3275 25 14.3275ZM25 34.0413C16.0937 34.0413 11.5578 25.0813 11.5578 25.0813C11.5578 25.0813 16.0937 16.1191 25 16.1191C33.9073 16.1191 38.4422 25.0813 38.4422 25.0813C38.4422 25.0813 33.9073 34.0413 25 34.0413Z" fill="white"/>
<path d="M24.9454 32.8777C20.6466 32.8777 17.149 29.3801 17.149 25.0812C17.149 20.7824 20.6466 17.2848 24.9454 17.2848C29.2443 17.2848 32.7419 20.7824 32.7419 25.0812C32.7419 29.3801 29.2448 32.8777 24.9454 32.8777ZM24.9454 18.8979C21.536 18.8979 18.762 21.6718 18.762 25.0812C18.762 28.4907 21.536 31.2646 24.9454 31.2646C28.3549 31.2646 31.1288 28.4907 31.1288 25.0812C31.1288 21.6718 28.3549 18.8979 24.9454 18.8979Z" fill="white"/>
<path d="M28.9781 25.0779C28.9781 27.3083 27.172 29.116 24.9476 29.116C24.4175 29.1159 23.8926 29.0114 23.4029 28.8084C22.9132 28.6054 22.4683 28.3079 22.0936 27.9329C21.7189 27.5579 21.4217 27.1128 21.2191 26.6229C21.0165 26.133 20.9124 25.608 20.9128 25.0779C20.9128 22.8514 22.7183 21.0507 24.9476 21.0507C27.172 21.0507 28.9781 22.8519 28.9781 25.0779Z" fill="white"/>
</svg>
