<svg width="59" height="53" viewBox="0 0 59 53" fill="none" xmlns="http://www.w3.org/2000/svg">
<path d="M54.6939 0H0V24.2555H54.6939V0Z" fill="#279688"/>
<path d="M27.3755 0H0V48.8868H27.3755V0Z" fill="#031530"/>
<path d="M31.3232 27.9368V52.373H58.7035V27.9368H31.3232ZM43.8363 50.1663C41.9465 50.1663 40.0992 49.6059 38.5279 48.556C36.9566 47.5061 35.732 46.0139 35.0088 44.2679C34.2856 42.522 34.0964 40.6009 34.4651 38.7474C34.8337 36.894 35.7437 35.1915 37.08 33.8552C38.4163 32.519 40.1188 31.609 41.9722 31.2403C43.8257 30.8716 45.7468 31.0608 47.4927 31.784C49.2386 32.5072 50.7309 33.7319 51.7808 35.3031C52.8307 36.8744 53.391 38.7217 53.391 40.6115C53.3917 41.8664 53.1449 43.1092 52.665 44.2687C52.185 45.4282 51.4813 46.4818 50.5939 47.3691C49.7065 48.2565 48.653 48.9603 47.4934 49.4402C46.3339 49.9202 45.0912 50.1669 43.8363 50.1663ZM56.2018 50.1663H54.3803L56.2018 48.4969V50.1663ZM55.6549 48.6158L53.976 50.1663H53.0724L55.1508 48.1402C55.2569 48.053 55.3435 47.9444 55.405 47.8215C55.4664 47.6986 55.5013 47.5641 55.5075 47.4268C55.5163 47.3068 55.5003 47.1862 55.4605 47.0727C55.4207 46.9591 55.3578 46.855 55.2759 46.7668C55.194 46.6786 55.0948 46.6083 54.9845 46.5602C54.8741 46.5121 54.7551 46.4872 54.6347 46.4872C54.5144 46.4872 54.3953 46.5121 54.285 46.5602C54.1747 46.6083 54.0755 46.6786 53.9935 46.7668C53.9116 46.855 53.8488 46.9591 53.809 47.0727C53.7691 47.1862 53.7531 47.3068 53.762 47.4268H53.0724C53.0725 47.1644 53.1386 46.9062 53.2645 46.676C53.3905 46.4459 53.5724 46.2511 53.7934 46.1096C54.0144 45.9681 54.2674 45.8844 54.5292 45.8663C54.791 45.8482 55.0531 45.8963 55.2915 46.006C55.5298 46.1158 55.7368 46.2837 55.8932 46.4944C56.0497 46.705 56.1507 46.9516 56.1869 47.2115C56.2231 47.4714 56.1933 47.7363 56.1003 47.9817C56.0074 48.2271 55.8542 48.4451 55.6549 48.6158Z" fill="#031530"/>
<path d="M50.6558 40.6115C50.6558 41.9604 50.2558 43.279 49.5064 44.4005C48.757 45.5221 47.6919 46.3962 46.4457 46.9124C45.1994 47.4286 43.8282 47.5637 42.5052 47.3005C41.1822 47.0374 39.967 46.3878 39.0132 45.434C38.0594 44.4802 37.4098 43.265 37.1467 41.942C36.8835 40.619 37.0186 39.2477 37.5348 38.0015C38.051 36.7553 38.9251 35.6902 40.0467 34.9408C41.1682 34.1914 42.4868 33.7914 43.8357 33.7914C45.6445 33.7914 47.3792 34.5099 48.6583 35.7889C49.9373 37.068 50.6558 38.8027 50.6558 40.6115Z" fill="#279688"/>
</svg>
