<svg width="86" height="86" viewBox="0 0 86 86" fill="none" xmlns="http://www.w3.org/2000/svg">
<path d="M42.9986 0C24.0786 0 8.59863 15.48 8.59863 34.4C8.59863 62.78 42.9986 86 42.9986 86C42.9986 86 77.3987 62.78 77.3987 34.4C77.3987 15.48 61.9187 0 42.9986 0ZM42.9986 60.2C28.8086 60.2 17.1986 48.59 17.1986 34.4C17.1986 20.21 28.8086 8.6 42.9986 8.6C57.1887 8.6 68.7987 20.21 68.7987 34.4C68.7987 48.59 57.1887 60.2 42.9986 60.2Z" fill="#031530"/>
<path d="M42.9949 51.6031C52.4942 51.6031 60.1949 43.9024 60.1949 34.4031C60.1949 24.9038 52.4942 17.2031 42.9949 17.2031C33.4956 17.2031 25.7949 24.9038 25.7949 34.4031C25.7949 43.9024 33.4956 51.6031 42.9949 51.6031Z" fill="#009789"/>
<path d="M77 86H70.0152L77 79.4058V86ZM74.9027 79.8755L68.465 86H65L72.9696 77.9968C73.3767 77.6522 73.7088 77.2232 73.9445 76.7377C74.1801 76.2522 74.314 75.721 74.3374 75.1788C74.3714 74.7047 74.3101 74.2284 74.1573 73.7798C74.0045 73.3312 73.7636 72.9199 73.4495 72.5716C73.1354 72.2233 72.755 71.9454 72.332 71.7554C71.9089 71.5654 71.4524 71.4674 70.9909 71.4674C70.5294 71.4674 70.0728 71.5654 69.6498 71.7554C69.2268 71.9454 68.8463 72.2233 68.5322 72.5716C68.2182 72.9199 67.9772 73.3312 67.8244 73.7798C67.6717 74.2284 67.6104 74.7047 67.6444 75.1788H65C65.0003 74.1422 65.2537 73.1224 65.7368 72.2132C66.22 71.3039 66.9173 70.5344 67.7648 69.9755C68.6122 69.4166 69.5824 69.0862 70.5862 69.0147C71.5901 68.9432 72.5952 69.133 73.5093 69.5665C74.4233 70 75.2167 70.6633 75.8167 71.4954C76.4167 72.3276 76.8039 73.3018 76.9426 74.3284C77.0814 75.3551 76.9673 76.4012 76.6109 77.3705C76.2544 78.3399 75.667 79.2013 74.9027 79.8755Z" fill="#031530"/>
</svg>
