<svg width="87" height="92" viewBox="0 0 87 92" fill="none" xmlns="http://www.w3.org/2000/svg">
<path fill-rule="evenodd" clip-rule="evenodd" d="M84.7553 0.429905C85.1712 0.687073 85.5144 1.04618 85.7525 1.47319C85.9906 1.9002 86.1157 2.38095 86.116 2.86986V88.9858C86.116 89.7472 85.8136 90.4773 85.2752 91.0156C84.7369 91.5539 84.0068 91.8564 83.2455 91.8564H66.0223C65.2609 91.8564 64.5308 91.5539 63.9925 91.0156C63.4541 90.4773 63.1517 89.7472 63.1517 88.9858V80.3742H57.4107V88.9858C57.4107 89.7472 57.1082 90.4773 56.5699 91.0156C56.0316 91.5539 55.3014 91.8564 54.5401 91.8564H2.87053C2.10922 91.8564 1.37909 91.5539 0.84076 91.0156C0.30243 90.4773 0 89.7472 0 88.9858V57.41C0.000457257 56.8078 0.190305 56.2209 0.542674 55.7326C0.895042 55.2442 1.39208 54.879 1.96344 54.6887L34.4464 43.8611V25.8341C34.4464 25.3015 34.5946 24.7793 34.8745 24.3261C35.1543 23.8729 35.5547 23.5065 36.0309 23.2679L81.9594 0.303601C82.3975 0.0843263 82.8844 -0.0191832 83.3738 0.00292496C83.8632 0.0250331 84.3388 0.172023 84.7553 0.429905ZM34.4464 49.9122L5.74107 59.4768V86.1153H34.4464V49.9122ZM40.1875 86.1153H51.6696V77.5037C51.6696 76.7424 51.972 76.0123 52.5103 75.4739C53.0487 74.9356 53.7788 74.6332 54.5401 74.6332H66.0223C66.7836 74.6332 67.5137 74.9356 68.052 75.4739C68.5904 76.0123 68.8928 76.7424 68.8928 77.5037V86.1153H80.3749V7.51438L40.1875 27.6081V86.1153Z" fill="#031530"/>
<path d="M11.4819 63.1507H17.223V68.8918H11.4819V63.1507ZM22.9641 63.1507H28.7051V68.8918H22.9641V63.1507ZM11.4819 74.6328H17.223V80.3739H11.4819V74.6328ZM22.9641 74.6328H28.7051V80.3739H22.9641V74.6328ZM45.9283 51.6686H51.6694V57.4096H45.9283V51.6686ZM57.4105 51.6686H63.1515V57.4096H57.4105V51.6686ZM45.9283 63.1507H51.6694V68.8918H45.9283V63.1507ZM57.4105 63.1507H63.1515V68.8918H57.4105V63.1507ZM68.8926 51.6686H74.6337V57.4096H68.8926V51.6686ZM68.8926 63.1507H74.6337V68.8918H68.8926V63.1507ZM45.9283 40.1864H51.6694V45.9275H45.9283V40.1864ZM57.4105 40.1864H63.1515V45.9275H57.4105V40.1864ZM68.8926 40.1864H74.6337V45.9275H68.8926V40.1864ZM45.9283 28.7043H51.6694V34.4454H45.9283V28.7043ZM57.4105 28.7043H63.1515V34.4454H57.4105V28.7043ZM68.8926 28.7043H74.6337V34.4454H68.8926V28.7043ZM68.8926 17.2222H74.6337V22.9632H68.8926V17.2222Z" fill="#031530"/>
</svg>
