<svg width="87" height="93" viewBox="0 0 87 93" fill="none" xmlns="http://www.w3.org/2000/svg">
<path fill-rule="evenodd" clip-rule="evenodd" d="M85.6391 0.839329C86.0549 1.0965 86.3982 1.45561 86.6363 1.88261C86.8744 2.30962 86.9995 2.79037 86.9998 3.27928V89.3953C86.9998 90.1566 86.6973 90.8867 86.159 91.425C85.6207 91.9634 84.8906 92.2658 84.1292 92.2658H66.906C66.1447 92.2658 65.4146 91.9634 64.8763 91.425C64.3379 90.8867 64.0355 90.1566 64.0355 89.3953V80.7837H58.2944V89.3953C58.2944 90.1566 57.992 90.8867 57.4537 91.425C56.9154 91.9634 56.1852 92.2658 55.4239 92.2658H3.75432C2.99301 92.2658 2.26288 91.9634 1.72455 91.425C1.18622 90.8867 0.883789 90.1566 0.883789 89.3953V57.8194C0.884246 57.2172 1.07409 56.6304 1.42646 56.142C1.77883 55.6536 2.27587 55.2884 2.84723 55.0981L35.3302 44.2705V26.2435C35.3302 25.7109 35.4784 25.1888 35.7583 24.7355C36.0381 24.2823 36.4385 23.9159 36.9147 23.6773L82.8432 0.713025C83.2813 0.49375 83.7682 0.390241 84.2576 0.412349C84.747 0.434457 85.2226 0.581447 85.6391 0.839329V0.839329ZM35.3302 50.3216L6.62485 59.8862V86.5247H35.3302V50.3216ZM41.0712 86.5247H52.5534V77.9131C52.5534 77.1518 52.8558 76.4217 53.3941 75.8834C53.9325 75.345 54.6626 75.0426 55.4239 75.0426H66.906C67.6674 75.0426 68.3975 75.345 68.9358 75.8834C69.4741 76.4217 69.7766 77.1518 69.7766 77.9131V86.5247H81.2587V7.9238L41.0712 28.0175V86.5247Z" fill="white"/>
<path d="M12.3658 63.5602H18.1069V69.3013H12.3658V63.5602ZM23.848 63.5602H29.589V69.3013H23.848V63.5602ZM12.3658 75.0423H18.1069V80.7834H12.3658V75.0423ZM23.848 75.0423H29.589V80.7834H23.848V75.0423ZM46.8122 52.0781H52.5533V57.8191H46.8122V52.0781ZM58.2944 52.0781H64.0354V57.8191H58.2944V52.0781ZM46.8122 63.5602H52.5533V69.3013H46.8122V63.5602ZM58.2944 63.5602H64.0354V69.3013H58.2944V63.5602ZM69.7765 52.0781H75.5176V57.8191H69.7765V52.0781ZM69.7765 63.5602H75.5176V69.3013H69.7765V63.5602ZM46.8122 40.5959H52.5533V46.337H46.8122V40.5959ZM58.2944 40.5959H64.0354V46.337H58.2944V40.5959ZM69.7765 40.5959H75.5176V46.337H69.7765V40.5959ZM46.8122 29.1138H52.5533V34.8549H46.8122V29.1138ZM58.2944 29.1138H64.0354V34.8549H58.2944V29.1138ZM69.7765 29.1138H75.5176V34.8549H69.7765V29.1138ZM69.7765 17.6317H75.5176V23.3727H69.7765V17.6317Z" fill="white"/>
</svg>
